<?xml version="1.0" encoding="UTF-8"?>
<svg width="96px" height="96px" viewBox="0 0 96 96" version="1.1" xmlns="http://www.w3.org/2000/svg" xmlns:xlink="http://www.w3.org/1999/xlink">
    <!-- Generator: Sketch 60 (88103) - https://sketch.com -->
    <title>icon / Forecast/Night/Cloudy night</title>
    <desc>Created with Sketch.</desc>
    <g id="icon-/-Forecast/Night/Cloudy-night" stroke="none" stroke-width="1" fill="none" fill-rule="evenodd">
        <g id="04-cloudy-night">
            <rect id="Rectangle" x="0" y="0" width="96" height="96"></rect>
            <circle id="Oval" fill="#A6A6A6" fill-rule="nonzero" cx="80.7478" cy="40.2829" r="13.9548"></circle>
            <circle id="Oval" fill="#A6A6A6" fill-rule="nonzero" cx="64.3289" cy="29.0533" r="20.6439"></circle>
            <g id="Group" opacity="0.15" transform="translate(43.000000, 10.000000)" fill="#787878" fill-rule="nonzero">
                <path d="M48.0981,39.5657 C46.2449,31.1037 40.7181,22.52 29.1981,16.367 C22.0629,12.5562 16.9722,6.6048 12.5042,0.4118 C2.79028735,4.97510898 -1.79937834,16.2264181 1.95109154,26.2821559 C5.70156143,36.3378937 16.5381185,41.8357131 26.8678,38.9234 C29.3923381,42.1615129 33.2278787,44.1070478 37.3319317,44.2312133 C41.4359847,44.3553788 45.3821243,42.6452736 48.0981,39.5657 L48.0981,39.5657 Z" id="Path"></path>
            </g>
            <path d="M88.367,62.304 C88.3629927,55.5562666 83.8263221,49.6528933 77.307,47.9121 C79.014071,44.0628433 78.2728212,39.5674608 75.4203032,36.470041 C72.5677851,33.3726212 68.1485258,32.2644413 64.172,33.6494 C61.012438,22.4128148 50.1387094,15.1523653 38.5492522,16.5409477 C26.9597951,17.9295302 18.1090317,27.5532556 17.6934,39.2182 C7.96258632,41.0364311 1.21843894,49.9674221 2.13289607,59.8243216 C3.0473532,69.6812211 11.3193732,77.2191126 21.2186,77.2162008 C21.4,77.2162008 21.5753,77.1941 21.7556,77.1892 L21.7556,77.2162008 L73.6217,77.2162008 L73.6217,77.2078 C81.7900991,77.1190818 88.3656186,70.4728807 88.367,62.304 Z" id="Path" fill="#C9C9C9" fill-rule="nonzero"></path>
        </g>
    </g>
</svg>