<?xml version="1.0" encoding="UTF-8"?>
<svg width="96px" height="96px" viewBox="0 0 96 96" version="1.1" xmlns="http://www.w3.org/2000/svg" xmlns:xlink="http://www.w3.org/1999/xlink">
    <!-- Generator: Sketch 60 (88103) - https://sketch.com -->
    <title>icon / Forecast/Night/Cyclone night</title>
    <desc>Created with Sketch.</desc>
    <g id="icon-/-Forecast/Night/Cyclone-night" stroke="none" stroke-width="1" fill="none" fill-rule="evenodd">
        <g id="19-tropical-cyclone-night">
            <rect id="Rectangle" x="0" y="0" width="96" height="96"></rect>
            <path d="M45.0282,15.2538 C54.877205,19.9207924 61.4692802,29.5085646 62.3007,40.3756 C62.383462,41.1894075 62.4248154,42.006895 62.4246,42.8249 C62.4194776,45.6858354 61.8994539,48.5224914 60.8894,51.1992 C62.651157,50.7437086 64.3719336,50.1423316 66.0339,49.4013 C70.4301103,40.2603465 70.006173,29.5340834 64.9022414,20.7686069 C59.7983098,12.0031304 50.679056,6.33994638 40.5593,5.6513 C40.2047203,5.639164 39.8773478,5.8405479 39.728284,6.16250133 C39.5792202,6.48445476 39.6374512,6.86437233 39.8761,7.1269 C41.9770902,9.57272038 43.7124962,12.3101423 45.0282,15.2538 Z" id="Path" fill="#496A87" fill-rule="nonzero"></path>
            <path d="M31.9181,70.3957 C22.0692333,65.7285941 15.4771323,56.1410272 14.6453,45.2741 C14.5628714,44.460304 14.5216521,43.6428599 14.5218,42.8249 C14.5270447,39.9638168 15.0469234,37.1270091 16.0566,34.45 C14.2949691,34.9055014 12.5742984,35.5068096 10.9124,36.2477 C6.51634228,45.3886809 6.94036545,56.1148813 12.0442912,64.8803133 C17.1482169,73.6457453 26.2673931,79.3089419 36.3871,79.9977 C36.7412554,80.0093584 37.0680399,79.8080566 37.2169398,79.4865122 C37.3658396,79.1649678 37.3079759,78.7855442 37.07,78.523 C34.9692609,76.0768862 33.2339419,73.3393606 31.9181,70.3957 Z" id="Path" fill="#496A87" fill-rule="nonzero"></path>
            <path d="M32.783,81.4900002 C32.6614482,81.4900552 32.5401563,81.478773 32.4207,81.4563 C30.7707165,81.1455921 29.1473404,80.7072755 27.5652,80.1453 C26.5504321,79.7844647 26.0203149,78.669318 26.3811501,77.65455 C26.7419853,76.6397821 27.857132,76.1096648 28.8719,76.4705 C30.26308,76.9647063 31.690538,77.3501316 33.1414,77.6233 C34.1312633,77.8086161 34.8171893,78.7172094 34.7242444,79.7199719 C34.6312995,80.7227344 33.7900608,81.4897765 32.783,81.4900002 L32.783,81.4900002 Z" id="Path" fill="#5EB4E9" fill-rule="nonzero"></path>
            <path d="M21.364,76.7930016 C20.9753913,76.7930016 20.5957072,76.6764936 20.274,76.4585 C18.5458629,75.2906552 16.9333874,73.9601971 15.4586,72.4853 C15.109,72.1362333 14.7675333,71.7791333 14.4342,71.414 C13.9548249,70.9015203 13.7877796,70.1709902 13.9967906,69.501102 C14.2058016,68.8312137 14.758631,68.3252908 15.4443784,68.1763395 C16.1301257,68.0273882 16.8430211,68.2583826 17.3111,68.7812 C17.6060333,69.104 17.9078,69.4196 18.2164,69.728 C19.515113,71.0271391 20.9353383,72.1988283 22.4576,73.227 C23.1683086,73.7069686 23.4820123,74.5949335 23.2305251,75.4148303 C22.979038,76.2347271 22.2213986,76.7940787 21.3638,76.7930016 L21.364,76.7930016 Z" id="Path" fill="#5EB4E9" fill-rule="nonzero"></path>
            <path d="M11.3973,65.683101 C10.6733318,65.6838257 10.0085516,65.283402 9.6707,64.6431 C7.21170622,59.9638603 5.92647399,54.757213 5.9256,49.4712 C5.9256,48.3942447 6.79864474,47.5212 7.8756,47.5212 C8.95255526,47.5212 9.8256,48.3942447 9.8256,49.4712 C9.82586827,54.1228692 10.9564341,58.7048111 13.12,62.8227 C13.4387598,63.4268172 13.4181855,64.1536817 13.0657638,64.7388008 C12.7133421,65.3239198 12.0804555,65.6819839 11.3974,65.6827 L11.3973,65.683101 Z" id="Path" fill="#5EB4E9" fill-rule="nonzero"></path>
            <path d="M74.1715,44.2276 C70.3436832,47.5485738 65.7968637,49.9351397 60.8894,51.1992 C61.8994539,48.5224914 62.4194776,45.6858354 62.4246,42.8249 C62.4248154,42.006895 62.383462,41.1894075 62.3007,40.3756 C61.0203286,24.4134534 47.6445548,12.141128 31.6314229,12.2358658 C15.618291,12.3317058 2.38951636,24.7623463 1.29868182,40.7386 C1.28707942,41.0931963 1.48847302,41.420579 1.81043661,41.5696593 C2.13240021,41.7187395 2.51233535,41.6605321 2.7749,41.4219 C6.60250341,38.1007727 11.1492072,35.7140929 16.0566,34.45 C15.0469706,37.1268833 14.5270926,39.9635513 14.5218,42.8245 C14.5216521,43.6424599 14.5628714,44.459904 14.6453,45.2737 C15.9256955,61.2358462 29.3014903,73.508152 45.3146236,73.4133882 C61.3277569,73.3175216 74.5565118,60.8868572 75.6473108,44.9106 C75.658831,44.5561374 75.4574698,44.2289188 75.1356207,44.0799166 C74.8137717,43.9309144 74.4339901,43.9890891 74.1715,44.2276 Z M45.344,50.258 C45.4445618,50.2625785 45.5325675,50.3270249 45.5672883,50.4215135 C45.6020091,50.5160021 45.5766708,50.622098 45.503,50.6907 C41.9805986,53.7585563 36.6609461,53.4844008 33.4725808,50.070696 C30.2842155,46.6569912 30.3734124,41.3310257 33.6743,38.026 L33.6772,38.0309 L33.6778,38.0297 C34.2534737,37.4626995 34.9264595,37.0038918 35.6646,36.6752 C34.4294025,35.9355272 33.0379453,35.4958547 31.602,35.3915 C31.50153,35.3868433 31.4136336,35.3224318 31.378929,35.228031 C31.3442245,35.1336302 31.3694703,35.0276243 31.443,34.959 C34.9652864,31.890513 40.28541,32.1643234 43.474069,35.5782021 C46.662728,38.9920809 46.5733733,44.3184964 43.272,47.6235 L43.2692,47.6186 L43.2682,47.6199 C42.6927827,48.187048 42.0198605,48.6458478 41.2817,48.9743 C42.5167761,49.714 43.9081429,50.1536764 45.344,50.258 Z" id="Shape" fill="#00253F" fill-rule="nonzero"></path>
        </g>
    </g>
</svg>