<?xml version="1.0" encoding="UTF-8"?>
<svg width="96px" height="96px" viewBox="0 0 96 96" version="1.1" xmlns="http://www.w3.org/2000/svg" xmlns:xlink="http://www.w3.org/1999/xlink">
    <!-- Generator: Sketch 60 (88103) - https://sketch.com -->
    <title>icon / Forecast/Day/Cyclone</title>
    <desc>Created with Sketch.</desc>
    <g id="icon-/-Forecast/Day/Cyclone" stroke="none" stroke-width="1" fill="none" fill-rule="evenodd">
        <g id="19-tropical-cyclone">
            <rect id="Rectangle" x="0" y="0" width="96" height="96"></rect>
            <path d="M45,15.25 C54.856862,19.9170802 61.4584698,29.5065832 62.3,40.38 C62.38,41.18 62.42,42 62.42,42.82 C62.4194309,45.6827345 61.9010879,48.5217636 60.89,51.2 C62.6395394,50.7402563 64.348565,50.1382512 66,49.4 C70.4001979,40.2647943 69.9827893,29.5419179 64.8857715,20.7764097 C59.7887537,12.0109015 50.6759122,6.34429502 40.56,5.65 C40.2030914,5.63498579 39.872519,5.83722085 39.7233778,6.16182223 C39.5742366,6.48642361 39.6361224,6.86897731 39.88,7.13 C41.9692031,9.57567986 43.6937193,12.3106548 45,15.25 Z" id="Path" fill="#D3DBE2" fill-rule="nonzero"></path>
            <path d="M31.92,70.4 C22.0677866,65.7329694 15.4755256,56.140409 14.65,45.27 C14.5611275,44.4563873 14.5177267,43.638449 14.52,42.82 C14.5247504,39.9599937 15.0464723,37.1244009 16.06,34.45 C14.2969913,34.9081336 12.5745459,35.5101534 10.91,36.25 C6.51316866,45.3917551 6.93753494,56.1191859 12.0427735,64.8850487 C17.148012,73.6509116 26.2691136,79.3133638 36.39,80 C36.7469086,80.0150142 37.077481,79.8127792 37.2266222,79.4881778 C37.3757634,79.1635764 37.3138776,78.7810227 37.07,78.52 C34.9667884,76.078776 33.231775,73.343182 31.92,70.4 Z" id="Path" fill="#D3DBE2" fill-rule="nonzero"></path>
            <path d="M32.78,81.49 C32.6602034,81.4998797 32.5397966,81.4998797 32.42,81.49 C30.7719189,81.1792819 29.1503971,80.7413038 27.57,80.18 C26.7549642,80.0827531 26.082093,79.497391 25.872958,78.7036638 C25.663823,77.9099365 25.9608892,77.0690107 26.6221857,76.5827729 C27.2834823,76.096535 28.1747328,76.0637159 28.87,76.5 C30.2619893,76.9914533 31.6894718,77.3759041 33.14,77.65 C34.0123429,77.9500919 34.5662551,78.8079194 34.4808085,79.7264706 C34.3953619,80.6450217 33.6927271,81.3859611 32.78,81.52 L32.78,81.49 Z" id="Path" fill="#5EB4E9" fill-rule="nonzero"></path>
            <path d="M21.36,76.79 C20.9723639,76.7879567 20.5936753,76.6733079 20.27,76.46 C18.5425171,75.2834512 16.9318147,73.9439898 15.46,72.46 C15.11,72.12 14.77,71.76 14.46,71.39 C13.9992738,70.5781287 14.1614549,69.5555158 14.8507719,68.9260354 C15.5400889,68.2965549 16.5731868,68.2276457 17.34,68.76 C17.64,69.08 17.94,69.4 18.25,69.76 C19.5497482,71.05782 20.9694117,72.229712 22.49,73.26 C23.1960382,73.7424661 23.5053589,74.6286475 23.252907,75.4456735 C23.0004552,76.2626995 22.2451394,76.82 21.39,76.82 L21.36,76.79 Z" id="Path" fill="#5EB4E9" fill-rule="nonzero"></path>
            <path d="M11.4,65.68 C10.682808,65.6921238 10.0174526,65.3075253 9.67,64.68 C7.20616681,59.9891336 5.92247332,54.7685512 5.92996709,49.47 C6.13739482,48.5599841 6.94665038,47.9144097 7.88,47.9144097 C8.81334962,47.9144097 9.62260518,48.5599841 9.83,49.47 C9.82597645,54.1211797 10.9552051,58.7033082 13.12,62.82 C13.598327,63.7751062 13.2416805,64.9375098 12.31,65.46 C12.0283444,65.6042968 11.7164669,65.6796957 11.4,65.68 L11.4,65.68 Z" id="Path" fill="#5EB4E9" fill-rule="nonzero"></path>
            <path d="M74.17,44.23 C70.3460723,47.5616086 65.7996105,49.9580869 60.89,51.23 C61.9010879,48.5517636 62.4194309,45.7127345 62.42,42.85 C62.42,42.03 62.42,41.21 62.3,40.41 C61.0504472,24.4247467 47.666271,12.1190483 31.6325332,12.2131316 C15.5987953,12.308299 2.36079398,24.7711119 1.29956856,40.77 C1.28898232,41.1227623 1.48978865,41.4479809 1.81011095,41.5961572 C2.13043326,41.7443335 2.50829575,41.6867984 2.77,41.45 C6.59764697,38.1182453 11.1473764,35.7218491 16.06,34.45 C15.0464723,37.1244009 14.5247504,39.9599937 14.52,42.82 C14.5177267,43.638449 14.5611275,44.4563873 14.65,45.27 C15.8995528,61.2552533 29.283729,73.5609517 45.3174668,73.4668684 C61.3512047,73.371701 74.589206,60.9088881 75.65,44.91 C75.6650142,44.5530914 75.4627792,44.222519 75.1381778,44.0733778 C74.8135764,43.9242366 74.4310227,43.9861224 74.17,44.23 L74.17,44.23 Z M45.34,50.23 C45.4395161,50.2352356 45.5264183,50.2990736 45.5611709,50.3924713 C45.5959235,50.485869 45.5718883,50.590986 45.5,50.66 C41.9762587,53.7058091 36.6756242,53.4232831 33.4956138,50.0201611 C30.3156033,46.6170391 30.3926049,41.3094391 33.67,38 L33.67,38 C34.2486198,37.4316263 34.926477,36.9740727 35.67,36.65 C34.4377952,35.9048248 33.0463375,35.4627114 31.61,35.36 C31.5104839,35.3547644 31.4235817,35.2909264 31.3888291,35.1975287 C31.3540765,35.104131 31.3781117,34.999014 31.45,34.93 C33.7168502,32.8185604 36.9379457,32.0768598 39.8999312,32.9842899 C42.8619166,33.8917199 45.1147959,36.3104202 45.8099312,39.3292899 C46.5050665,42.3481595 45.5368502,45.5085604 43.27,47.62 L43.27,47.62 C42.6925427,48.1897947 42.0144061,48.6475369 41.27,48.97 C42.5064275,49.7138958 43.9008035,50.1558479 45.34,50.26 L45.34,50.23 Z" id="Shape" fill="#627E97" fill-rule="nonzero"></path>
        </g>
    </g>
</svg>