<?xml version="1.0" encoding="UTF-8"?>
<svg width="96px" height="96px" viewBox="0 0 96 96" version="1.1" xmlns="http://www.w3.org/2000/svg" xmlns:xlink="http://www.w3.org/1999/xlink">
    <!-- Generator: Sketch 60 (88103) - https://sketch.com -->
    <title>icon / Forecast/Day/Dust</title>
    <desc>Created with Sketch.</desc>
    <g id="icon-/-Forecast/Day/Dust" stroke="none" stroke-width="1" fill="none" fill-rule="evenodd">
        <g id="13-dust">
            <rect id="Rectangle" x="0" y="0" width="96" height="96"></rect>
            <rect id="Rectangle" x="0" y="0" width="96" height="96"></rect>
            <g id="Group" opacity="0.1" transform="translate(11.000000, 1.000000)" fill="#CFB344" fill-rule="nonzero">
                <circle id="Oval" cx="42.5" cy="41.81" r="41.51"></circle>
            </g>
            <g id="Group" opacity="0.1" transform="translate(55.000000, 24.000000)" fill="#000000" fill-rule="nonzero">
                <path d="M17.46,18.9 L3.46,18.9 C2.53110944,18.9 1.67277915,18.4044428 1.20833386,17.6 C0.743888568,16.7955572 0.743888568,15.8044428 1.20833386,15 C1.67277915,14.1955572 2.53110944,13.7 3.46,13.7 L17.46,13.7 C19.516421,13.7334103 21.3835292,12.5041673 22.1656143,10.6019773 C22.9476994,8.69978733 22.4852033,6.51272795 21,5.09 C20.0421939,4.06485622 20.0704444,2.46469572 21.0638396,1.47399992 C22.0572348,0.483304123 23.6574663,0.459407957 24.68,1.42 C27.6054096,4.34601635 28.4824772,8.74503822 26.9029128,12.5692466 C25.3233485,16.393455 21.5975739,18.8913029 17.46,18.9 Z" id="Path"></path>
            </g>
            <path d="M63.14,65.9 C62.4492497,65.9052877 61.7856778,65.6312037 61.3,65.14 C60.8114734,64.6522822 60.536954,63.9903093 60.536954,63.3 C60.536954,62.6096907 60.8114734,61.9477178 61.3,61.46 C62.6724314,60.0899681 63.0834042,58.0276095 62.3409747,56.2361425 C61.5985453,54.4446756 59.8492136,53.277602 57.91,53.28 L49.3,53.28 C47.8640597,53.28 46.7,52.1159403 46.7,50.68 C46.7,49.2440597 47.8640597,48.0799969 49.3,48.0799969 L57.91,48.0799969 C61.9532106,48.076812 65.6005112,50.5086818 67.1521733,54.2423002 C68.7038353,57.9759186 67.8545088,62.2765508 65,65.14 C64.5094795,65.6362256 63.837664,65.9107309 63.14,65.9 Z" id="Path" fill="#D6CDAF" fill-rule="nonzero"></path>
            <g id="Group" opacity="0.05" transform="translate(20.000000, 58.000000)" fill="#000000" fill-rule="nonzero">
                <path d="M7.38,5.65 L2.62,5.65 C1.18405965,5.65 0.02,4.48594035 0.02,3.05 C0.02,1.61405965 1.18405965,0.45 2.62,0.45 L7.38,0.45 C8.81594035,0.45 9.98,1.61405965 9.98,3.05 C9.98,4.48594035 8.81594035,5.65 7.38,5.65 L7.38,5.65 Z" id="Path"></path>
            </g>
            <g id="Group" opacity="0.6" transform="translate(23.000000, 48.000000)" fill="#D6CDAF" fill-rule="nonzero">
                <path d="M5.15,5.28 L2.65,5.28 C1.21405965,5.28 0.05,4.11594035 0.05,2.68 C0.05,1.24405965 1.21405965,0.08 2.65,0.08 L5.15,0.08 C6.58594035,0.08 7.75,1.24405965 7.75,2.68 C7.75,4.11594035 6.58594035,5.28 5.15,5.28 L5.15,5.28 Z" id="Path"></path>
            </g>
            <g id="Group" opacity="0.6" transform="translate(0.000000, 48.000000)" fill="#D6CDAF" fill-rule="nonzero">
                <path d="M15.27,5.28 L3.16,5.28 C1.72405965,5.28 0.56,4.11594035 0.56,2.68 C0.56,1.24405965 1.72405965,0.08 3.16,0.08 L15.27,0.08 C16.7059403,0.08 17.87,1.24405965 17.87,2.68 C17.87,4.11594035 16.7059403,5.28 15.27,5.28 L15.27,5.28 Z" id="Path"></path>
            </g>
            <path d="M48,42.9 L35.38,42.9 C34.4511094,42.9 33.5927792,42.4044428 33.1283339,41.6 C32.6638886,40.7955572 32.6638886,39.8044428 33.1283339,39 C33.5927792,38.1955572 34.4511094,37.7 35.38,37.7 L48,37.7 C48.9288906,37.7 49.7872208,38.1955572 50.2516661,39 C50.7161114,39.8044428 50.7161114,40.7955572 50.2516661,41.6 C49.7872208,42.4044428 48.9288906,42.9 48,42.9 Z" id="Path" fill="#D6CDAF" fill-rule="nonzero"></path>
            <g id="Group" opacity="0.1" transform="translate(35.000000, 58.000000)" fill="#000000" fill-rule="nonzero">
                <path d="M17.84,11 C16.4063367,10.9945175 15.2454825,9.83366327 15.24,8.4 C15.24001,6.87959081 14.0103992,5.64550873 12.49,5.64 L2.76,5.64 C1.32405965,5.64 0.16,4.47594035 0.16,3.04 C0.16,1.60405965 1.32405965,0.44 2.76,0.44 L12.49,0.44 C16.8887393,0.467492657 20.44,4.04117479 20.44,8.44 C20.4181467,9.86029522 19.2604633,11.0001681 17.84,11 L17.84,11 Z" id="Path"></path>
            </g>
            <path d="M61.93,32.52 L41.71,32.52 C40.2740597,32.52 39.11,31.3559403 39.11,29.92 C39.11,28.4840597 40.2740597,27.32 41.71,27.32 L61.93,27.32 C63.0548023,27.3452112 64.0815152,26.6827192 64.522048,25.6474672 C64.9625807,24.6122152 64.7280699,23.4130323 63.93,22.62 C63.044918,21.748498 61.6879036,21.5727402 60.61,22.19 C59.8061524,22.6580179 58.813682,22.6616367 58.0064428,22.1994933 C57.1992036,21.7373498 56.6998345,20.8796547 56.6964428,19.9494933 C56.6930512,19.0193319 57.1861524,18.1580179 57.99,17.69 C59.2063277,16.9884812 60.5858699,16.6194537 61.99,16.62 C65.0431607,16.2770365 68.0229992,17.7128785 69.6573017,20.3145067 C71.2916042,22.9161349 71.2916042,26.2238651 69.6573017,28.8254933 C68.0229992,31.4271215 65.0431607,32.8629635 61.99,32.52 L61.93,32.52 Z" id="Path" fill="#D6CDAF" fill-rule="nonzero"></path>
            <circle id="Oval" fill="#CCB281" fill-rule="nonzero" cx="74.5" cy="50.68" r="2.6"></circle>
            <circle id="Oval" fill="#CCB281" fill-rule="nonzero" cx="38.73" cy="50.68" r="2.6"></circle>
            <g id="Group" opacity="0.05" transform="translate(9.000000, 58.000000)" fill="#000000" fill-rule="nonzero">
                <circle id="Oval" cx="3.24" cy="3.05" r="2.6"></circle>
            </g>
            <circle id="Oval" fill="#CCB281" fill-rule="nonzero" cx="20.68" cy="29.92" r="2.6"></circle>
            <circle id="Oval" fill="#CCB281" fill-rule="nonzero" cx="31.05" cy="29.92" r="2.6"></circle>
            <path d="M25,42.9 L17.65,42.9 C16.2140597,42.9 15.0500001,41.7359403 15.0500001,40.3 C15.0500001,38.8640597 16.2140597,37.7 17.65,37.7 L25,37.7 C25.9288906,37.7 26.7872208,38.1955572 27.2516661,39 C27.7161114,39.8044428 27.7161114,40.7955572 27.2516661,41.6 C26.7872208,42.4044428 25.9288906,42.9 25,42.9 Z" id="Path" fill="#D6CDAF" fill-rule="nonzero"></path>
            <g id="Group" opacity="0.6" transform="translate(2.000000, 37.000000)" fill="#D6CDAF" fill-rule="nonzero">
                <path d="M5.27,5.9 L3.11,5.9 C1.67405969,5.9 0.51000011,4.73594031 0.51000011,3.3 C0.51000011,1.86405969 1.67405969,0.7 3.11,0.7 L5.27,0.7 C6.19889056,0.7 7.05722085,1.19555715 7.52166614,1.99999997 C7.98611143,2.80444278 7.98611143,3.79555722 7.52166614,4.60000003 C7.05722085,5.40444285 6.19889056,5.9 5.27,5.9 Z" id="Path"></path>
            </g>
        </g>
    </g>
</svg>