<?xml version="1.0" encoding="UTF-8"?>
<svg width="96px" height="96px" viewBox="0 0 96 96" version="1.1" xmlns="http://www.w3.org/2000/svg" xmlns:xlink="http://www.w3.org/1999/xlink">
    <!-- Generator: Sketch 60 (88103) - https://sketch.com -->
    <title>icon / Forecast/Night/Dust night</title>
    <desc>Created with Sketch.</desc>
    <g id="icon-/-Forecast/Night/Dust-night" stroke="none" stroke-width="1" fill="none" fill-rule="evenodd">
        <g id="13-dust-night">
            <rect id="Rectangle" x="0" y="0" width="96" height="96"></rect>
            <g id="Group" opacity="0.1" transform="translate(11.000000, 1.000000)" fill="#CFB344" fill-rule="nonzero">
                <circle id="Oval" cx="42.4981" cy="41.8108" r="41.5135"></circle>
            </g>
            <g id="Group" opacity="0.48" transform="translate(55.000000, 24.000000)" fill="#878787" fill-rule="nonzero">
                <path d="M17.4574,18.8974 L3.4074,18.8974 C1.97145965,18.8974 0.8074,17.7333403 0.8074,16.2974 C0.8074,14.8614597 1.97145965,13.6974 3.4074,13.6974 L17.4574,13.6974 C19.495874,13.6975471 21.3337186,12.4697418 22.1139608,10.5865003 C22.8942031,8.7032589 22.4631901,6.53544747 21.0219,5.0939 C20.3519841,4.43994038 20.085372,3.47631875 20.3238766,2.57101988 C20.5623813,1.66572101 21.2691716,0.958546188 22.1743405,0.7195491 C23.0795095,0.480552011 24.0432761,0.746639912 24.6976,1.4162 C27.6265681,4.34466117 28.5029932,8.74917118 26.9181772,12.5758012 C25.3333613,16.4024312 21.5994279,18.8976 17.4576,18.8976 L17.4574,18.8974 Z" id="Path"></path>
            </g>
            <path d="M63.1351,65.9009021 C62.0833737,65.9009021 61.1352463,65.26724 60.7329164,64.2955102 C60.3305866,63.3237803 60.5533059,62.2053714 61.2972,61.4619 C62.6685842,60.0903056 63.0786931,58.0276598 62.33629,56.2357882 C61.5938869,54.4439167 59.8451788,53.2757057 57.9056,53.2759 L49.3041,53.2759 C47.8681597,53.2759 46.7041,52.1118403 46.7041,50.6759 C46.7041,49.2399597 47.8681597,48.0759 49.3041,48.0759 L57.9056,48.0759 C61.9485329,48.0759 65.5933003,50.5115289 67.1403177,54.2467723 C68.6873351,57.9820157 67.831936,62.2813655 64.973,65.14 C64.4859318,65.6279531 63.8245439,65.9017711 63.1351,65.9009021 L63.1351,65.9009021 Z" id="Path" fill="#BFB293" fill-rule="nonzero"></path>
            <g id="Group" opacity="0.48" transform="translate(20.000000, 58.000000)" fill="#878787" fill-rule="nonzero">
                <path d="M7.3783,5.6543 L2.6215,5.6543 C1.18555965,5.6543 0.0215,4.49024035 0.0215,3.0543 C0.0215,1.61835965 1.18555965,0.4543 2.6215,0.4543 L7.3783,0.4543 C8.81424035,0.4543 9.9783,1.61835965 9.9783,3.0543 C9.9783,4.49024035 8.81424035,5.6543 7.3783,5.6543 L7.3783,5.6543 Z" id="Path"></path>
            </g>
            <g id="Group" opacity="0.6" transform="translate(23.000000, 48.000000)" fill="#D6CDAF" fill-rule="nonzero">
                <path d="M5.1527,5.2759 L2.6488,5.2759 C1.21285965,5.2759 0.0488,4.11184035 0.0488,2.6759 C0.0488,1.23995965 1.21285965,0.0759 2.6488,0.0759 L5.1527,0.0759 C6.58864035,0.0759 7.7527,1.23995965 7.7527,2.6759 C7.7527,4.11184035 6.58864035,5.2759 5.1527,5.2759 L5.1527,5.2759 Z" id="Path"></path>
            </g>
            <g id="Group" opacity="0.6" transform="translate(0.000000, 48.000000)" fill="#D6CDAF" fill-rule="nonzero">
                <path d="M15.27,5.2759 L3.1625,5.2759 C1.72655965,5.2759 0.5625,4.11184035 0.5625,2.6759 C0.5625,1.23995965 1.72655965,0.0759 3.1625,0.0759 L15.27,0.0759 C16.7059403,0.0759 17.87,1.23995965 17.87,2.6759 C17.87,4.11184035 16.7059403,5.2759 15.27,5.2759 Z" id="Path"></path>
            </g>
            <path d="M48.0287,42.8974 L35.3787,42.8974 C33.9427597,42.8974 32.7787,41.7333403 32.7787,40.2974 C32.7787,38.8614597 33.9427597,37.6974 35.3787,37.6974 L48.0287,37.6974 C49.4646403,37.6974 50.6286999,38.8614597 50.6286999,40.2974 C50.6286999,41.7333403 49.4646403,42.8974 48.0287,42.8974 L48.0287,42.8974 Z" id="Path" fill="#BFB293" fill-rule="nonzero"></path>
            <g id="Group" opacity="0.48" transform="translate(35.000000, 58.000000)" fill="#878787" fill-rule="nonzero">
                <path d="M17.8422,11.0054 C16.4062597,11.0054 15.2422,9.84134035 15.2422,8.4054 C15.2403256,6.88645136 14.0091492,5.65572235 12.4902,5.6544 L2.7562,5.6544 C1.32025965,5.6544 0.1562,4.49034035 0.1562,3.0544 C0.1562,1.61845965 1.32025965,0.4544 2.7562,0.4544 L12.4906,0.4544 C16.8799161,0.459249834 20.4369502,4.01628393 20.4418,8.4056 C20.4418,9.84130605 19.277906,11.0051791 17.8422,11.0054 L17.8422,11.0054 Z" id="Path"></path>
            </g>
            <path d="M61.9349,32.519 L41.7074,32.519 C40.2714597,32.519 39.1074,31.3549403 39.1074,29.919 C39.1074,28.4830597 40.2714597,27.319 41.7074,27.319 L61.9349,27.319 C63.0477408,27.3193467 64.0511873,26.649227 64.4772453,25.6211757 C64.9033033,24.5931245 64.6680482,23.4096464 63.8812,22.6227 C62.9928297,21.7539436 61.6375499,21.5760837 60.5551,22.1862 C59.7510658,22.6675865 58.7501886,22.6790416 57.9353475,22.2161833 C57.1205063,21.7533249 56.6177962,20.8877795 56.6195255,19.9506557 C56.6212549,19.0135319 57.1271561,18.1498478 57.9437,17.69 C60.8368175,16.0110402 64.4713473,16.3222087 67.0369666,18.4685155 C69.6025858,20.6148224 70.5506528,24.1372933 69.408945,27.2814209 C68.2672371,30.4255485 65.2799015,32.519 61.9349,32.519 Z" id="Path" fill="#BFB293" fill-rule="nonzero"></path>
            <circle id="Oval" fill="#CCB281" fill-rule="nonzero" cx="74.4958" cy="50.6756" r="2.6"></circle>
            <circle id="Oval" fill="#CCB281" fill-rule="nonzero" cx="38.7282" cy="50.6756" r="2.6"></circle>
            <g id="Group" opacity="0.48" transform="translate(9.000000, 58.000000)" fill="#878787" fill-rule="nonzero">
                <circle id="Oval" cx="3.2432" cy="3.054" r="2.6"></circle>
            </g>
            <circle id="Oval" fill="#CCB281" fill-rule="nonzero" cx="20.6757" cy="29.9189" r="2.6"></circle>
            <circle id="Oval" fill="#CCB281" fill-rule="nonzero" cx="31.0541" cy="29.9189" r="2.6"></circle>
            <path d="M25,42.8974 L17.6488,42.8974 C16.2128597,42.8974 15.0488,41.7333403 15.0488,40.2974 C15.0488,38.8614597 16.2128597,37.6974 17.6488,37.6974 L25,37.6974 C26.4359403,37.6974 27.5999999,38.8614597 27.5999999,40.2974 C27.5999999,41.7333403 26.4359403,42.8974 25,42.8974 L25,42.8974 Z" id="Path" fill="#BFB293" fill-rule="nonzero"></path>
            <g id="Group" opacity="0.6" transform="translate(2.000000, 37.000000)" fill="#D6CDAF" fill-rule="nonzero">
                <path d="M5.27,5.8974 L3.1078,5.8974 C1.67185965,5.8974 0.5078,4.73334035 0.5078,3.2974 C0.5078,1.86145965 1.67185965,0.6974 3.1078,0.6974 L5.27,0.6974 C6.70594031,0.6974 7.86999989,1.86145969 7.86999989,3.2974 C7.86999989,4.73334031 6.70594031,5.8974 5.27,5.8974 L5.27,5.8974 Z" id="Path"></path>
            </g>
        </g>
    </g>
</svg>