<?xml version="1.0" encoding="UTF-8"?>
<svg width="96px" height="96px" viewBox="0 0 96 96" version="1.1" xmlns="http://www.w3.org/2000/svg" xmlns:xlink="http://www.w3.org/1999/xlink">
    <!-- Generator: Sketch 60 (88103) - https://sketch.com -->
    <title>icon / Forecast/Day/Frost</title>
    <desc>Created with Sketch.</desc>
    <g id="icon-/-Forecast/Day/Frost" stroke="none" stroke-width="1" fill="none" fill-rule="evenodd">
        <g id="14-frost">
            <path d="M62.21,28.8 C61.7458393,27.4415921 60.2686,26.716402 58.91,27.18 L53.91,28.89 L55.29,26 C55.9251274,24.7104151 55.3945848,23.1501275 54.105,22.5150001 C52.8154151,21.8798726 51.2551275,22.4104151 50.62,23.7 L46.91,31.23 L40.81,33.3 L40.81,23.22 L47.16,16.86 C47.8845849,16.2194974 48.193799,15.2297549 47.9627036,14.29068 C47.7316083,13.351605 46.998395,12.6183917 46.05932,12.3872964 C45.1202451,12.156201 44.1305026,12.4654151 43.49,13.19 L40.81,15.86 L40.81,10.48 C40.81,9.04405965 39.6459403,7.88 38.21,7.88 C36.7740597,7.88 35.61,9.04405965 35.61,10.48 L35.61,15.86 L32.93,13.19 C32.2894974,12.4654151 31.2997549,12.156201 30.36068,12.3872964 C29.421605,12.6183917 28.6883917,13.351605 28.4572964,14.29068 C28.226201,15.2297549 28.5354151,16.2194974 29.26,16.86 L35.61,23.22 L35.61,33.32 L29.51,31.25 L25.8,23.72 C25.1420521,22.4833902 23.6227201,21.9902897 22.3639779,22.6048362 C21.1052357,23.2193828 20.5595983,24.7206481 21.13,26 L22.55,28.87 L17.55,27.16 C16.6597228,26.8168455 15.6530098,26.9888852 14.9272138,27.6082144 C14.2014178,28.2275435 13.8731496,29.1946572 14.0719776,30.1278323 C14.2708057,31.0610075 14.9647851,31.8103147 15.88,32.08 L20.88,33.79 L18,35.22 C17.1657848,35.6308554 16.614127,36.45555 16.5528306,37.3834292 C16.4915343,38.3113085 16.9299118,39.2014055 17.7028306,39.7184293 C18.4757495,40.2354531 19.4657848,40.3008555 20.3,39.89 L27.83,36.17 L35.6,38.81 L35.6,56 C35.6,57.4359403 36.7640597,58.6 38.2,58.6 C39.6359403,58.6 40.8,57.4359403 40.8,56 L40.8,38.81 L48.57,36.17 L56.1,39.89 C57.3895849,40.5251275 58.9498725,39.9945849 59.585,38.705 C60.2201275,37.4154151 59.6895849,35.8551275 58.4,35.22 L55.53,33.81 L60.53,32.1 C61.1933535,31.889418 61.7445876,31.4216741 62.0603401,30.8014459 C62.3760927,30.1812177 62.4300007,29.4602896 62.21,28.8 L62.21,28.8 Z" id="Path" fill="#ECECEC" fill-rule="nonzero"></path>
            <path d="M72.32,59.28 L4.09,59.28 C2.65405965,59.28 1.49,58.1159403 1.49,56.68 C1.49,55.2440597 2.65405965,54.08 4.09,54.08 L72.32,54.08 C73.7559403,54.08 74.92,55.2440597 74.92,56.68 C74.92,58.1159403 73.7559403,59.28 72.32,59.28 L72.32,59.28 Z" id="Path" fill="#C8C8C8" fill-rule="nonzero"></path>
            <path d="M63.4,69.65 L13,69.65 C11.5640597,69.65 10.4,68.4859403 10.4,67.05 C10.4,65.6140597 11.5640597,64.45 13,64.45 L63.4,64.45 C64.8359403,64.45 66,65.6140597 66,67.05 C66,68.4859403 64.8359403,69.65 63.4,69.65 Z" id="Path" fill="#C8C8C8" fill-rule="nonzero"></path>
            <path d="M49.5,80 L26.92,80 C25.4840597,80 24.32,78.8359403 24.32,77.4 C24.32,75.9640597 25.4840597,74.8 26.92,74.8 L49.5,74.8 C50.9359403,74.8 52.1,75.9640597 52.1,77.4 C52.1,78.8359403 50.9359403,80 49.5,80 L49.5,80 Z" id="Path" fill="#C8C8C8" fill-rule="nonzero"></path>
            <rect id="Rectangle" x="0" y="0" width="96" height="96"></rect>
        </g>
    </g>
</svg>