<?xml version="1.0" encoding="UTF-8"?>
<svg width="96px" height="96px" viewBox="0 0 96 96" version="1.1" xmlns="http://www.w3.org/2000/svg" xmlns:xlink="http://www.w3.org/1999/xlink">
    <!-- Generator: Sketch 60 (88103) - https://sketch.com -->
    <title>icon / Forecast/Day/Haze</title>
    <desc>Created with Sketch.</desc>
    <g id="icon-/-Forecast/Day/Haze" stroke="none" stroke-width="1" fill="none" fill-rule="evenodd">
        <g id="06-haze">
            <rect id="Rectangle" x="0" y="0" width="96" height="96"></rect>
            <g id="Group" opacity="0.15" transform="translate(1.000000, 1.000000)" fill="#E6E58D" fill-rule="nonzero">
                <circle id="Oval" cx="42.44" cy="41.81" r="41.51"></circle>
            </g>
            <g id="Group" opacity="0.2" transform="translate(16.000000, 15.000000)" fill="#FADFA2" fill-rule="nonzero">
                <circle id="Oval" cx="27.81" cy="27.81" r="27.74"></circle>
            </g>
            <g id="Group" opacity="0.4" transform="translate(16.000000, 15.000000)" fill="#FADFA2" fill-rule="nonzero">
                <path d="M0.07,27.81 C0.07,12.489621 12.489621,0.07 27.81,0.07 C43.130379,0.07 55.55,12.489621 55.55,27.81 L0.07,27.81 Z" id="Path"></path>
            </g>
            <g id="Group" opacity="0.6" transform="translate(65.000000, 40.000000)" fill="#CCB995" fill-rule="nonzero">
                <path d="M14.67,5.4 L3,5.4 C1.56405965,5.4 0.4,4.23594035 0.4,2.8 C0.4,1.36405965 1.56405965,0.2 3,0.2 L14.67,0.2 C16.1059403,0.2 17.27,1.36405965 17.27,2.8 C17.27,4.23594035 16.1059403,5.4 14.67,5.4 Z" id="Path"></path>
            </g>
            <g id="Group" opacity="0.6" transform="translate(19.000000, 19.000000)" fill="#CCB995" fill-rule="nonzero">
                <path d="M33.59,5.6 L2.78,5.6 C1.34405965,5.6 0.18,4.43594035 0.18,3 C0.18,1.56405965 1.34405965,0.4 2.78,0.4 L33.59,0.4 C35.0259403,0.4 36.19,1.56405965 36.19,3 C36.19,4.43594035 35.0259403,5.6 33.59,5.6 Z" id="Path"></path>
            </g>
            <g id="Group" opacity="0.6" transform="translate(38.000000, 61.000000)" fill="#CCB995" fill-rule="nonzero">
                <path d="M32.91,5.2 L3.07,5.2 C1.63405965,5.2 0.47,4.03594035 0.47,2.6 C0.47,1.16405965 1.63405965,0 3.07,0 L32.91,0 C34.3459403,0 35.51,1.16405965 35.51,2.6 C35.51,4.03594035 34.3459403,5.2 32.91,5.2 Z" id="Path"></path>
            </g>
            <path d="M70.59,29.8 L36.44,29.8 C35.5111094,29.8 34.6527792,30.2955572 34.1883339,31.1 C33.7238886,31.9044428 33.7238886,32.8955572 34.1883339,33.7 C34.6527792,34.5044428 35.5111094,35 36.44,35 L40.44,35 C41.8759403,35 43.04,36.1640597 43.04,37.6 C43.04,39.0359403 41.8759403,40.2 40.44,40.2 L10.12,40.2 C8.68405965,40.2 7.52,41.3640597 7.52,42.8 C7.52,44.2359403 8.68405965,45.4 10.12,45.4 L19.75,45.4 C21.1859403,45.4 22.35,46.5640597 22.35,48 C22.35,49.4359403 21.1859403,50.6 19.75,50.6 L16.59,50.6 C15.1540597,50.6 13.99,51.7640597 13.99,53.2 C13.99,54.6359403 15.1540597,55.8 16.59,55.8 L42.05,55.8 C43.4859403,55.8 44.65,54.6359403 44.65,53.2 C44.65,51.7640597 43.4859403,50.6 42.05,50.6 L40.59,50.6 C39.1540597,50.6 37.99,49.4359403 37.99,48 C37.99,46.5640597 39.1540597,45.4 40.59,45.4 L57.59,45.4 C58.5188906,45.4 59.3772208,44.9044428 59.8416661,44.1 C60.3061114,43.2955572 60.3061114,42.3044428 59.8416661,41.5 C59.3772208,40.6955572 58.5188906,40.2 57.59,40.2 L51.13,40.2 C49.6940597,40.2 48.53,39.0359403 48.53,37.6 C48.53,36.1640597 49.6940597,35 51.13,35 L70.59,35 C72.0259403,35 73.19,33.8359403 73.19,32.4 C73.19,30.9640597 72.0259403,29.8 70.59,29.8 Z" id="Path" fill="#CCB995" fill-rule="nonzero"></path>
            <path d="M15.36,35 L26.06,35 C26.9888906,35 27.8472208,34.5044428 28.3116661,33.7 C28.7761114,32.8955572 28.7761114,31.9044428 28.3116661,31.1 C27.8472208,30.2955572 26.9888906,29.8 26.06,29.8 L15.36,29.8 C13.9240597,29.8 12.76,30.9640597 12.76,32.4 C12.76,33.8359403 13.9240597,35 15.36,35 Z" id="Path" fill="#CCB995" fill-rule="nonzero"></path>
            <path d="M60.21,50.6 L52.42,50.6 C50.9840597,50.6 49.82,51.7640597 49.82,53.2 C49.82,54.6359403 50.9840597,55.8 52.42,55.8 L60.21,55.8 C61.6459403,55.8 62.81,54.6359403 62.81,53.2 C62.81,51.7640597 61.6459403,50.6 60.21,50.6 L60.21,50.6 Z" id="Path" fill="#CCB995" fill-rule="nonzero"></path>
        </g>
    </g>
</svg>