<?xml version="1.0" encoding="UTF-8"?>
<svg width="96px" height="96px" viewBox="0 0 96 96" version="1.1" xmlns="http://www.w3.org/2000/svg" xmlns:xlink="http://www.w3.org/1999/xlink">
    <!-- Generator: Sketch 60 (88103) - https://sketch.com -->
    <title>icon / Forecast/Night/Haze night</title>
    <desc>Created with Sketch.</desc>
    <g id="icon-/-Forecast/Night/Haze-night" stroke="none" stroke-width="1" fill="none" fill-rule="evenodd">
        <g id="06-haze-night" transform="translate(0.000000, -1.000000)">
            <path d="M14.0844,14.4531 C25.9571477,2.58034689 43.8128026,-0.971366852 59.3252994,5.45411762 C74.8377961,11.8796021 84.9522133,27.0168953 84.9522133,43.8075 C84.9522133,60.5981047 74.8377961,75.7353979 59.3252994,82.1608824 C43.8128026,88.5863669 25.9571477,85.0346531 14.0844,73.1619 C6.29910687,65.3766409 1.92537188,54.8175431 1.92537188,43.8075 C1.92537188,32.7974569 6.29910687,22.2383591 14.0844,14.4531" id="Path" fill="#000000" fill-rule="nonzero" opacity="0.02"></path>
            <rect id="Rectangle" x="0" y="0.9968" width="96" height="96"></rect>
            <g id="Group" opacity="0.6" transform="translate(16.000000, 16.000000)">
                <path d="M8.1951,8.1917 C19.0286124,-2.64160008 36.5930166,-2.64148534 47.4263875,8.19195627 C58.2597583,19.0253979 58.2597583,36.5898021 47.4263875,47.4232437 C36.5930166,58.2566853 19.0286124,58.2568001 8.1951,47.4235 C-2.63839163,36.5899083 -2.63839163,19.0252917 8.1951,8.1917" id="Path" fill="#FFFFFF"></path>
                <g opacity="0.85" transform="translate(20.000000, 0.000000)" fill="#D6D6D6" id="Path">
                    <path d="M10.1033,0.176 C-3.84631573,16.1332897 -3.11709626,40.151378 11.7749,55.233 C25.7384147,53.2295869 35.9693868,41.0575514 35.5412929,26.9575464 C35.1131989,12.8575413 24.1626354,1.32860398 10.1033,0.176 L10.1033,0.176 Z"></path>
                </g>
            </g>
            <g id="Group" opacity="0.6" transform="translate(65.000000, 41.000000)" fill="#DBD5CA" fill-rule="nonzero">
                <path d="M14.6672,5.397 L2.9924,5.397 C1.55645965,5.397 0.3924,4.23294035 0.3924,2.797 C0.3924,1.36105965 1.55645965,0.197 2.9924,0.197 L14.6672,0.197 C16.1031403,0.197 17.2672,1.36105965 17.2672,2.797 C17.2672,4.23294035 16.1031403,5.397 14.6672,5.397 Z" id="Path"></path>
            </g>
            <g id="Group" opacity="0.6" transform="translate(19.000000, 20.000000)" fill="#DBD5CA" fill-rule="nonzero">
                <path d="M33.5861,5.5967 L2.7761,5.5967 C1.34015965,5.5967 0.1761,4.43264035 0.1761,2.9967 C0.1761,1.56075965 1.34015965,0.3967 2.7761,0.3967 L33.5861,0.3967 C35.0220403,0.3967 36.1861,1.56075965 36.1861,2.9967 C36.1861,4.43264035 35.0220403,5.5967 33.5861,5.5967 Z" id="Path"></path>
            </g>
            <g id="Group" opacity="0.6" transform="translate(38.000000, 61.000000)" fill="#DBD5CA" fill-rule="nonzero">
                <path d="M32.9113,6.1968 L3.0734,6.1968 C1.63745965,6.1968 0.4734,5.03274035 0.4734,3.5968 C0.4734,2.16085965 1.63745965,0.9968 3.0734,0.9968 L32.9113,0.9968 C34.3472403,0.9968 35.5113,2.16085965 35.5113,3.5968 C35.5113,5.03274035 34.3472403,6.1968 32.9113,6.1968 Z" id="Path"></path>
            </g>
            <path d="M70.5861,30.7969 L36.4416,30.7969 C35.0056597,30.7969 33.8416,31.9609597 33.8416,33.3969 C33.8416,34.8328403 35.0056597,35.9969 36.4416,35.9969 L40.4323,35.9969 C41.8677985,35.9990815 43.0297315,37.1645515 43.02755,38.60005 C43.0253685,40.0355485 41.8598985,41.1974815 40.4244,41.1953 L40.4244,41.1966 L10.1232,41.1966 C8.68725965,41.1966 7.5232,42.3606597 7.5232,43.7966 C7.5232,45.2325403 8.68725965,46.3966 10.1232,46.3966 L19.7518,46.3966 C21.1811602,46.4071146 22.3338197,47.5697821 22.3319775,48.9991797 C22.3301352,50.4285774 21.1744825,51.5882698 19.7451,51.5951 L19.7451,51.5963 L16.5861,51.5963 C15.1501597,51.5963 13.9861,52.7603597 13.9861,54.1963 C13.9861,55.6322403 15.1501597,56.7963 16.5861,56.7963 L42.0461,56.7963 C43.4820403,56.7963 44.6461,55.6322403 44.6461,54.1963 C44.6461,52.7603597 43.4820403,51.5963 42.0461,51.5963 L40.5861,51.5963 L40.5861,51.5951 C39.1646682,51.5771233 38.0213405,50.4206026 38.0196723,48.9990581 C38.0180041,47.5775137 39.1586143,46.4183128 40.58,46.397 L57.6135,46.397 C59.0494403,46.397 60.2135,45.2329403 60.2135,43.797 C60.2135,42.3610597 59.0494403,41.197 57.6135,41.197 L51.1271,41.197 L51.1271,41.1957 C49.6916015,41.1978815 48.5261315,40.0359485 48.52395,38.60045 C48.5217685,37.1649515 49.6837015,35.9994815 51.1192,35.9973 L70.5861,35.9973 C72.0220403,35.9973 73.1861,34.8332403 73.1861,33.3973 C73.1861,31.9613597 72.0220403,30.7973 70.5861,30.7973 L70.5861,30.7969 Z" id="Path" fill="#DBD5CA" fill-rule="nonzero"></path>
            <path d="M15.3605,35.9971 L26.0627,35.9971 C27.4986403,35.9971 28.6626999,34.8330403 28.6626999,33.3971 C28.6626999,31.9611597 27.4986403,30.7971 26.0627,30.7971 L15.3605,30.7971 C13.9245597,30.7971 12.7605001,31.9611597 12.7605001,33.3971 C12.7605001,34.8330403 13.9245597,35.9971 15.3605,35.9971 Z" id="Path" fill="#DBD5CA" fill-rule="nonzero"></path>
            <path d="M60.2082,51.5967 L52.424,51.5967 C50.9880597,51.5967 49.824,52.7607597 49.824,54.1967 C49.824,55.6326403 50.9880597,56.7967 52.424,56.7967 L60.2082,56.7967 C61.6441403,56.7967 62.8082,55.6326403 62.8082,54.1967 C62.8082,52.7607597 61.6441403,51.5967 60.2082,51.5967 Z" id="Path" fill="#DBD5CA" fill-rule="nonzero"></path>
        </g>
    </g>
</svg>