<?xml version="1.0" encoding="UTF-8"?>
<svg width="96px" height="96px" viewBox="0 0 96 96" version="1.1" xmlns="http://www.w3.org/2000/svg" xmlns:xlink="http://www.w3.org/1999/xlink">
    <!-- Generator: Sketch 60 (88103) - https://sketch.com -->
    <title>icon / Forecast/Day/Heavy showers</title>
    <desc>Created with Sketch.</desc>
    <g id="icon-/-Forecast/Day/Heavy-showers" stroke="none" stroke-width="1" fill="none" fill-rule="evenodd">
        <g id="18-heavy-showers">
            <rect id="Rectangle" x="0" y="0.969896907" width="96" height="95.0103093"></rect>
            <ellipse id="Oval" fill="#FFE58D" fill-rule="nonzero" cx="64.06" cy="19.1406186" rx="17.06" ry="16.8841237"></ellipse>
            <path d="M46.9999667,19.1406186 C46.9835887,27.4140757 53.0304908,34.4790324 61.2790069,35.8236345 C69.527523,37.1682365 77.5444575,32.3958454 80.21,24.5542268 C72.1400222,23.5168824 64.613254,19.9638801 58.72,14.4098969 C56.59,12.3612371 54.21,9.90680412 51.72,7.48206186 C48.6850855,10.6195821 46.9937875,14.7971442 46.9999667,19.1406186 Z" id="Path" fill="#FFDF64" fill-rule="nonzero"></path>
            <path d="M21.71,87.5084728 C20.2740597,87.5084728 19.11,86.3563946 19.11,84.9352577 L19.11,53.9678351 C19.11,52.5466982 20.2740597,51.3946393 21.71,51.3946393 C23.1459403,51.3946393 24.3100194,52.5466982 24.3100194,53.9678351 L24.3100194,84.9352577 C24.3126707,85.6185186 24.0396007,86.2745579 23.5514259,86.7576999 C23.0632512,87.2408419 22.4003782,87.5110968 21.71,87.5084728 Z" id="Path" fill="#5EB4E9" fill-rule="nonzero"></path>
            <path d="M32.09,81.6099161 C30.6540597,81.6099161 29.49,80.4578379 29.49,79.036701 L29.49,66.2301031 C29.49,64.8089663 30.6540597,63.6569072 32.09,63.6569072 C33.5259403,63.6569072 34.6900194,64.8089663 34.6900194,66.2301031 L34.6900194,79.036701 C34.6926707,79.7199619 34.4196007,80.3760012 33.9314259,80.8591432 C33.4432512,81.3422852 32.7803782,81.6125401 32.09,81.6099161 L32.09,81.6099161 Z" id="Path" fill="#5EB4E9" fill-rule="nonzero"></path>
            <g id="Group" opacity="0.6" transform="translate(29.000000, 86.103093)" fill="#5EB4E9" fill-rule="nonzero">
                <path d="M3.09,8.66969072 C1.65633673,8.66426472 0.49548252,7.51537809 0.49,6.09649485 L0.49,3.20659794 C0.49,1.7854611 1.65405965,0.633402062 3.09,0.633402062 C4.52594035,0.633402062 5.69,1.7854611 5.69,3.20659794 L5.69,6.09649485 C5.69,6.77894882 5.41607222,7.43345126 4.92847763,7.9160191 C4.44088305,8.39858693 3.77956287,8.66969072 3.09,8.66969072 Z" id="Path"></path>
            </g>
            <g id="Group" opacity="0.6" transform="translate(39.000000, 50.474227)" fill="#5EB4E9" fill-rule="nonzero">
                <path d="M3.47,19.219813 C2.03405965,19.219813 0.87,18.0677348 0.87,16.6465979 L0.87,3.49360825 C0.87,2.07247141 2.03405965,0.920412371 3.47,0.920412371 C4.90594035,0.920412371 6.07001941,2.07247141 6.07001941,3.49360825 L6.07001941,16.6465979 C6.07267074,17.3298588 5.79960067,17.9858981 5.31142594,18.4690401 C4.82325121,18.9521821 4.16037816,19.222437 3.47,19.219813 Z" id="Path"></path>
            </g>
            <path d="M52.85,77.8787821 C52.1596218,77.8814061 51.4967488,77.6111512 51.0085741,77.1280092 C50.5203993,76.6448672 50.2473293,75.9888279 50.2499806,75.305567 L50.2499806,53.9678351 C50.2499806,52.5466982 51.4140597,51.3946392 52.85,51.3946392 C54.2859403,51.3946392 55.45,52.5466982 55.45,53.9678351 L55.45,75.305567 C55.45,76.7267039 54.2859403,77.8787821 52.85,77.8787821 Z" id="Path" fill="#5EB4E9" fill-rule="nonzero"></path>
            <g id="Group" opacity="0.6" transform="translate(50.000000, 82.144330)" fill="#5EB4E9" fill-rule="nonzero">
                <path d="M2.85,11.628866 C1.41405965,11.628866 0.25,10.4768069 0.25,9.0556701 L0.25,3.4342268 C0.25,2.01308996 1.41405965,0.861030928 2.85,0.861030928 C4.28594035,0.861030928 5.45,2.01308996 5.45,3.4342268 L5.45,9.0556701 C5.44451748,10.4745533 4.28366327,11.62344 2.85,11.628866 Z" id="Path"></path>
            </g>
            <g id="Group" opacity="0.6" transform="translate(60.000000, 72.247423)" fill="#5EB4E9" fill-rule="nonzero">
                <path d="M3.23,19.2791753 C2.54043713,19.2791753 1.87911695,19.0080715 1.39152237,18.5255036 C0.903927785,18.0429358 0.63,17.3884334 0.63,16.7059794 L0.63,3.4342268 C0.63,2.01309002 1.79405971,0.861031081 3.23,0.861031081 C4.66594029,0.861031081 5.83,2.01309002 5.83,3.4342268 L5.83,16.7059794 C5.82451748,18.1248626 4.66366327,19.2737493 3.23,19.2791753 L3.23,19.2791753 Z" id="Path"></path>
            </g>
            <path d="M63.23,67.9818749 C62.5396218,67.9844989 61.8767488,67.714244 61.3885741,67.231102 C60.9003993,66.74796 60.6273293,66.0919206 60.6299806,65.4086598 L60.6299806,59.8465979 C60.6299806,58.4254611 61.7940597,57.2734021 63.23,57.2734021 C64.6659403,57.2734021 65.83,58.4254611 65.83,59.8465979 L65.83,65.4086598 C65.83,66.8297966 64.6659403,67.9818749 63.23,67.9818749 Z" id="Path" fill="#5EB4E9" fill-rule="nonzero"></path>
            <g id="Group" opacity="0.6" transform="translate(8.000000, 63.340206)" fill="#5EB4E9" fill-rule="nonzero">
                <path d="M3.34,9.57030928 C1.90405965,9.57030928 0.74,8.41825024 0.74,6.9971134 L0.74,2.86020619 C0.680032651,1.90461105 1.16110423,0.995081154 1.98872624,0.499322904 C2.81634826,0.00356465402 3.85365174,0.00356465402 4.68127376,0.499322904 C5.50889577,0.995081154 5.98996735,1.90461105 5.93,2.86020619 L5.93,6.9971134 C5.93001059,8.41439421 4.77203356,9.5648582 3.34,9.57030928 Z" id="Path"></path>
            </g>
            <path d="M11.34,92.7538336 C10.6496218,92.7564576 9.98674879,92.4862027 9.49857406,92.0030607 C9.01039933,91.5199187 8.73732926,90.8638794 8.74,90.1806186 L8.74,80.6004124 C8.68003265,79.6448172 9.16110423,78.7352873 9.98872624,78.2395291 C10.8163483,77.7437708 11.8536517,77.7437708 12.6812738,78.2395291 C13.5088958,78.7352873 13.9899673,79.6448172 13.93,80.6004124 L13.93,90.1806186 C13.9326589,90.8621609 13.6609589,91.5166914 13.1749512,91.9995458 C12.6889435,92.4824003 12.0286468,92.7538336 11.34,92.7538336 L11.34,92.7538336 Z" id="Path" fill="#5EB4E9" fill-rule="nonzero"></path>
            <g id="Group" opacity="0.6" transform="translate(39.000000, 74.226804)" fill="#5EB4E9" fill-rule="nonzero">
                <path d="M3.47,5.93816536 C2.03405965,5.93816536 0.87,4.78608529 0.87,3.36494845 L0.87,3.16701031 C0.87,1.74587347 2.03405965,0.593814433 3.47,0.593814433 C4.90594035,0.593814433 6.07,1.74587347 6.07,3.16701031 L6.07,3.32536082 C6.08346904,4.01544281 5.81517398,4.68174002 5.32581608,5.17350396 C4.83645818,5.6652679 4.1673947,5.94093797 3.47,5.93816536 Z" id="Path"></path>
            </g>
            <path d="M42.47,90.883299 C41.0363367,90.877873 39.8754825,89.7289863 39.87,88.3101031 L39.87,87.8251546 C39.87,86.4040178 41.0340597,85.2519588 42.47,85.2519588 C43.9059403,85.2519588 45.07,86.4040178 45.07,87.8251546 L45.07,88.3101031 C45.07,89.7312399 43.9059403,90.883299 42.47,90.883299 Z" id="Path" fill="#5EB4E9" fill-rule="nonzero"></path>
            <path d="M71.43,36.3117526 C71.954002,34.939167 72.2216817,33.4837829 72.22,32.0164948 C72.2226535,28.7153779 70.8994896,25.5485672 68.5418696,23.2133964 C66.1842497,20.8782255 62.9855046,19.5661845 59.65,19.5661856 C59.37,19.5661856 59.1,19.5661856 58.82,19.5661856 C57.0853823,13.9285406 52.4227017,9.6488351 46.6120158,8.36091934 C40.8013298,7.07300359 34.7396483,8.97569626 30.7411209,13.3426121 C26.7425936,17.709528 25.4244829,23.8665356 27.29,29.4630928 L27.29,54.9278351 L67.39,54.9278351 C72.018735,54.9068378 76.0068871,51.6958872 76.9696824,47.2150179 C77.9324778,42.7341487 75.6095801,38.194971 71.39,36.3117526 L71.43,36.3117526 Z" id="Path" fill="#C8C8C8" fill-rule="nonzero"></path>
            <g id="Group" opacity="0.15" transform="translate(26.000000, 21.773196)" fill="#9D9D9D" fill-rule="nonzero">
                <path d="M0.509997906,1.89030928 C0.509997906,2.14762887 0.509997906,2.40494845 0.509997906,2.66226804 C0.509119483,4.393475 0.785896304,6.1138479 1.33,7.75917526 L1.33,33.1546392 L37.61,33.1546392 C39.29,28.8494845 39.06,23.5645361 35.3,17.1315464 C25,-0.544329897 9.78,-2.23670103 0.509997906,1.89030928 Z" id="Path"></path>
            </g>
            <path d="M60.1900056,50.5830928 C60.1900056,46.0242066 57.091788,42.0354611 52.64,40.8643299 C53.0307784,39.9708711 53.2316097,39.0073859 53.23,38.0338144 C53.2355463,34.0732681 50.0017717,30.855125 46,30.8387629 C45.2233677,30.8478066 44.4533629,30.9815025 43.72,31.2346392 C41.5813202,23.6264469 34.1518146,18.7020722 26.2290688,19.6414183 C18.306323,20.5807644 12.2623368,27.1025994 12,34.9954639 C5.37586591,36.2412771 0.794043898,42.2664918 1.41803617,48.9110205 C2.04202844,55.5555493 7.66734212,60.641867 14.41,60.6581443 L14.77,60.6581443 L14.77,60.6581443 L50.13,60.6581443 C55.70763,60.5984374 60.195811,56.1035414 60.1900056,50.5830928 Z" id="Path" fill="#AAAAAA" fill-rule="nonzero"></path>
        </g>
    </g>
</svg>