<?xml version="1.0" encoding="UTF-8"?>
<svg width="96px" height="96px" viewBox="0 0 96 96" version="1.1" xmlns="http://www.w3.org/2000/svg" xmlns:xlink="http://www.w3.org/1999/xlink">
    <!-- Generator: Sketch 62 (91390) - https://sketch.com -->
    <title>icon / Forecast/Night/Missing night</title>
    <desc>Created with Sketch.</desc>
    <g id="icon-/-Forecast/Night/Missing-night" stroke="none" stroke-width="1" fill="none" fill-rule="evenodd">
        <g id="00-missing-data-night">
            <g id="Group" opacity="0.1" transform="translate(2.000000, 16.000000)" fill="#FFFFFF" fill-rule="nonzero">
                <path d="M86.6138,46.304 C86.6097927,39.5562666 82.0731221,33.6528933 75.5538,31.9121 C77.260871,28.0628433 76.5196212,23.5674608 73.6671032,20.470041 C70.8145851,17.3726212 66.3953258,16.2644413 62.4188,17.6494 C59.2594831,6.41249255 48.3855867,-0.848290632 36.7958867,0.540314959 C25.2061866,1.92892055 16.3553293,11.5530007 15.94,23.2182 C6.20918632,25.0364311 -0.534961064,33.9674221 0.379496065,43.8243216 C1.2939532,53.6812211 9.56597323,61.2191126 19.4652,61.2162008 C19.6466,61.2162008 19.8219,61.1941 20.0022,61.1892 L20.0022,61.2162008 L71.8685,61.2162008 L71.8685,61.2078 C80.0368991,61.1190818 86.6124186,54.4728807 86.6138,46.304 Z" id="Path"></path>
            </g>
            <path d="M80.5385,47.6191 C80.1127,47.4204 79.6762,47.2402 79.2328,47.0786 C79.3717685,46.6053544 79.4813442,46.1239694 79.5609,45.6372 C79.6357471,45.1787568 79.4603322,44.7152073 79.1007323,44.4211662 C78.7411324,44.1271251 78.2519794,44.0472641 77.8175323,44.2116662 C77.3830853,44.3760683 77.0693471,44.7597568 76.9945,45.2182 C76.8717272,45.9685245 76.6582638,46.7011571 76.3588,47.4 C76.2106165,47.7467715 76.220214,48.1407833 76.3851052,48.4799289 C76.5499964,48.8190745 76.8539508,49.0699711 77.2182,49.1676 C77.9811521,49.3716227 78.7248408,49.6418481 79.4408,49.9752 C79.8631541,50.1807692 80.3635547,50.1425097 80.7497474,49.8751207 C81.1359402,49.6077318 81.3478529,49.152806 81.3040684,48.685126 C81.2602839,48.2174459 80.967613,47.8097595 80.5385,47.6187 L80.5385,47.6191 Z" id="Path" fill="#7B7B7B" fill-rule="nonzero"></path>
            <path d="M75.8939,39.0928 C76.120851,39.5021984 76.5503772,39.7579736 77.0184518,39.7625101 C77.4865264,39.7669272 77.9208662,39.5194142 78.1556061,39.1144315 C78.390346,38.7094488 78.389236,38.2095363 78.1527,37.8056 C77.2561475,36.2370284 76.0186418,34.8899239 74.5316,33.8638 C74.14904,33.6003881 73.6550114,33.5610787 73.23561,33.7606794 C72.8162086,33.9602802 72.5351514,34.3684668 72.49831,34.8314795 C72.4614686,35.2944921 72.67444,35.7419881 73.057,36.0054 C74.2220709,36.8089125 75.1916062,37.8640584 75.8939,39.0928 Z" id="Path" fill="#7B7B7B" fill-rule="nonzero"></path>
            <path d="M66.8354,31.8042 C66.3133513,31.8519196 65.795198,31.9354496 65.2846,32.0542 C65.1303,31.5996 64.9633,31.1489 64.7836,30.7055 C64.5139194,30.0399969 63.7558031,29.7191194 63.0903,29.9888 C62.4247969,30.2584806 62.1039194,31.0165969 62.3736,31.6821 C62.6807048,32.4403587 62.9461012,33.2148491 63.1686,34.0021 C63.2651736,34.343749 63.4972775,34.6310357 63.8110075,34.7972403 C64.1247376,34.9634449 64.4927944,34.994105 64.8297,34.8821 C65.5542617,34.6327095 66.3054353,34.4686681 67.068,34.3933 C67.5306589,34.3517858 67.9360259,34.0665994 68.1314029,33.6451679 C68.32678,33.2237363 68.2824848,32.7300851 68.0152029,32.3501678 C67.747921,31.9702506 67.2982589,31.7617857 66.8356,31.8033 L66.8354,31.8042 Z" id="Path" fill="#7B7B7B" fill-rule="nonzero"></path>
            <path d="M58.3734,25.229 C58.849359,25.766732 59.671118,25.816809 60.20885,25.34085 C60.746582,24.864891 60.796659,24.043132 60.3207,23.5054 C59.065749,22.0880083 57.6551593,20.8164615 56.1156,19.7148 C55.7379569,19.4390893 55.2413401,19.3874248 54.815032,19.5794981 C54.3887239,19.7715713 54.0984063,20.1777894 54.0547319,20.6433248 C54.0110574,21.1088602 54.2207551,21.5619875 54.6039,21.83 C55.9841818,22.8176922 57.2486724,23.9578974 58.3734,25.229 L58.3734,25.229 Z" id="Path" fill="#7B7B7B" fill-rule="nonzero"></path>
            <path d="M36.1049,16.98 C35.898883,16.2931107 35.1766845,15.9016703 34.4887,16.104 C32.6727996,16.6433662 30.9247201,17.3891351 29.2787,18.3267 C28.8673917,18.5526472 28.6097856,18.9827326 28.6046917,19.4519881 C28.5995978,19.9212436 28.8478069,20.3568197 29.2541135,20.5916424 C29.66042,20.826465 30.1617469,20.8240792 30.5658,20.5854 C32.039287,19.7468058 33.6038106,19.0794064 35.2289,18.5962 C35.9170643,18.3917529 36.309241,17.6681958 36.1049,16.98 L36.1049,16.98 Z" id="Path" fill="#7B7B7B" fill-rule="nonzero"></path>
            <path d="M42.7689,17.7016 C44.4629521,17.787236 46.1417547,18.0653925 47.7729,18.5307 C48.4632559,18.7280866 49.1829134,18.3284559 49.3803,17.6381 C49.5776866,16.9477441 49.1780559,16.2280866 48.4877,16.0307 C46.6662749,15.5111882 44.7916495,15.2006238 42.9,15.105 C42.1871502,15.0754108 41.5836559,15.6258702 41.5477343,16.3384289 C41.5118128,17.0509877 42.0568885,17.6593489 42.7691,17.7016 L42.7689,17.7016 Z" id="Path" fill="#7B7B7B" fill-rule="nonzero"></path>
            <path d="M20.07,30.1279 C20.3746452,30.2897125 20.7311381,30.3237185 21.0608815,30.2224206 C21.3906249,30.1211227 21.6665419,29.892839 21.8278,29.5879 C22.6236811,28.0891968 23.586173,26.68511 24.697,25.4023 C25.0107046,25.0525746 25.1113091,24.5608011 24.9601494,24.1159762 C24.8089897,23.6711513 24.4295873,23.342493 23.967753,23.2563101 C23.5059186,23.1701272 23.033517,23.3398305 22.7321,23.7002 C21.4923094,25.1311218 20.4184426,26.6977576 19.531,28.3702 C19.3692252,28.6747295 19.3351317,29.0310743 19.4362283,29.3607542 C19.5373249,29.690434 19.7653197,29.9664093 20.07,30.1279 L20.07,30.1279 Z" id="Path" fill="#7B7B7B" fill-rule="nonzero"></path>
            <path d="M19.24,39.2646 C19.269389,38.4467395 19.3433991,37.6310928 19.4617,36.8213 C19.538501,36.357315 19.3587151,35.8880283 18.9915632,35.5941238 C18.6244113,35.3002192 18.1271494,35.2275303 17.6912326,35.4040436 C17.2553157,35.5805568 16.9487237,35.9787456 16.8895,36.4453 C16.8065,37.0097 16.743,37.581 16.699,38.1533 C16.1307,38.289 15.5682,38.4492 15.0184,38.6313 C14.5744056,38.7749955 14.241497,39.1456491 14.1461287,39.6024689 C14.0507603,40.0592887 14.2075661,40.5321778 14.5569836,40.8415106 C14.9064012,41.1508435 15.3948141,41.2491543 15.8367,41.0991 C16.6031125,40.8453987 17.3858397,40.643937 18.1795,40.4961 C18.7779082,40.3848329 19.2187617,39.8728941 19.24,39.2646 Z" id="Path" fill="#7B7B7B" fill-rule="nonzero"></path>
            <path d="M11.9691,73.1875 C10.4464201,72.2297366 9.07632031,71.0485801 7.9047,69.6836 C7.60204246,69.3312111 7.1343781,69.1670562 6.67787158,69.2529708 C6.22136505,69.3388855 5.84537056,69.6618173 5.69152158,70.1001208 C5.5376726,70.5384244 5.62934246,71.0255111 5.932,71.3779 C7.27356557,72.940628 8.84254888,74.2926849 10.5863,75.3887 C10.979743,75.6467227 11.4818979,75.6720186 11.899279,75.4548408 C12.3166601,75.237663 12.5841189,74.8119106 12.5986009,74.3416304 C12.6130828,73.8713503 12.3723273,73.4299478 11.9691,73.1875 L11.9691,73.1875 Z" id="Path" fill="#7B7B7B" fill-rule="nonzero"></path>
            <path d="M3.5971,58.0483 C3.5971,57.7842333 3.60293333,57.5212333 3.6146,57.2593 C3.64658534,56.5421874 3.09167165,55.9346911 2.3746,55.9018 C1.66146371,55.880608 1.06042916,56.4296598 1.0172,57.1418 C1.0035,57.4426 0.997697629,57.7448 0.997697629,58.048 C0.996856032,59.804619 1.22132067,61.5540922 1.6656,63.2536 C1.84763307,63.9482914 2.55835863,64.363883 3.25304999,64.18185 C3.94774135,63.9998169 4.36333303,63.2890914 4.1813,62.5944 C3.79267869,61.1103057 3.59633816,59.5824322 3.5971,58.0483 L3.5971,58.0483 Z" id="Path" fill="#7B7B7B" fill-rule="nonzero"></path>
            <path d="M8.9926,45.2656 C9.32526788,44.9414708 9.4597448,44.4644869 9.3453746,44.0143234 C9.2310044,43.56416 8.88516264,43.2092076 8.43812458,43.0831734 C7.99108651,42.9571392 7.51076785,43.0791708 7.1781,43.4033 C5.70244134,44.8400872 4.4514604,46.490813 3.4672,48.3 C3.23186595,48.7088833 3.2365191,49.2131708 3.4793581,49.6176419 C3.72219711,50.022113 4.16510403,50.2632789 4.63662013,50.2477789 C5.10813623,50.2322789 5.53424859,49.9625462 5.75,49.543 C6.6102736,47.9626745 7.70336931,46.5207428 8.9926,45.2656 L8.9926,45.2656 Z" id="Path" fill="#7B7B7B" fill-rule="nonzero"></path>
            <path d="M24.5971,75.9165 L22.265,75.9165 C22.1673592,75.8944311 22.0672004,75.885552 21.9672,75.8901 C21.8695,75.8926 21.7738,75.8989 21.6772,75.9057 C20.9662772,75.9380224 20.2538889,75.9076382 19.5483,75.8149 C19.0821073,75.7571559 18.6210255,75.9554087 18.3422221,76.3334811 C18.0634188,76.7115535 18.0102679,77.2106283 18.2031921,77.6389392 C18.3961164,78.0672502 18.8051024,78.3581644 19.273,78.3999 C20.1148142,78.5069782 20.9642937,78.5412719 21.812,78.5024 C21.8749061,78.5116708 21.9384146,78.5162501 22.002,78.5161 L24.5968,78.5161 C25.3147701,78.5160999 25.8967999,77.9340701 25.8967999,77.2161 C25.8967999,76.4981299 25.3147701,75.9161001 24.5968,75.9161 L24.5971,75.9165 Z" id="Path" fill="#7B7B7B" fill-rule="nonzero"></path>
            <path d="M37.5629,75.9165 L32.3764,75.9165 C31.6584298,75.9165 31.0764,76.4985298 31.0764,77.2165 C31.0764,77.9344702 31.6584298,78.5165 32.3764,78.5165 L37.5629,78.5165 C38.2808702,78.5165 38.8629,77.9344702 38.8629,77.2165 C38.8629,76.4985298 38.2808702,75.9165 37.5629,75.9165 Z" id="Path" fill="#7B7B7B" fill-rule="nonzero"></path>
            <path d="M50.5287,75.9165 L45.3422,75.9165 C44.6242298,75.9165 44.0422,76.4985298 44.0422,77.2165 C44.0422,77.9344702 44.6242298,78.5165 45.3422,78.5165 L50.5287,78.5165 C51.2466702,78.5165 51.8287,77.9344702 51.8287,77.2165 C51.8287,76.4985298 51.2466702,75.9165 50.5287,75.9165 L50.5287,75.9165 Z" id="Path" fill="#7B7B7B" fill-rule="nonzero"></path>
            <path d="M63.4945,75.9165 L58.308,75.9165 C57.5900298,75.9165 57.008,76.4985298 57.008,77.2165 C57.008,77.9344702 57.5900298,78.5165 58.308,78.5165 L63.4945,78.5165 C64.2124702,78.5165 64.7945,77.9344702 64.7945,77.2165 C64.7945,76.4985298 64.2124702,75.9165 63.4945,75.9165 L63.4945,75.9165 Z" id="Path" fill="#7B7B7B" fill-rule="nonzero"></path>
            <path d="M76.2123,75.6777 C75.4342358,75.8219902 74.6451817,75.8989417 73.8539,75.9077 C73.8098447,75.9079616 73.7658401,75.9107327 73.7221,75.916 L71.2738,75.916 C70.8093547,75.916 70.3801895,76.1637786 70.1479669,76.566 C69.9157442,76.9682214 69.9157442,77.4637786 70.1479669,77.866 C70.3801895,78.2682214 70.8093547,78.5160038 71.2738,78.5160038 L73.8686,78.5160038 C73.924409,78.5161365 73.9801653,78.5125619 74.0355,78.5053 C74.9251865,78.4870144 75.811911,78.3963821 76.6869,78.2343 C77.1436105,78.1495209 77.5203992,77.8275296 77.6753336,77.3896172 C77.830268,76.9517047 77.7398097,76.4644005 77.4380336,76.1112672 C77.1362575,75.7581338 76.6690105,75.5928209 76.2123,75.6776 L76.2123,75.6777 Z" id="Path" fill="#7B7B7B" fill-rule="nonzero"></path>
            <path d="M87.4955,53.791 C87.2509517,53.3960608 86.8142822,53.1615868 86.3499806,53.1759022 C85.885679,53.1902176 85.4642839,53.4511476 85.2445306,53.8604022 C85.0247773,54.2696569 85.0400517,54.7650608 85.2846,55.16 C86.2151067,56.6576021 86.8421285,58.3235217 87.13,60.063 C87.2338418,60.6894274 87.7750252,61.1491797 88.41,61.1504 C88.4820137,61.1504 88.5538996,61.1443383 88.6249,61.1323 C89.3329621,61.0145944 89.8116389,60.3453064 89.6942,59.6372 C89.3514853,57.5632136 88.6044227,55.5768228 87.4955,53.791 L87.4955,53.791 Z" id="Path" fill="#7B7B7B" fill-rule="nonzero"></path>
            <path d="M87.8715,67.1416 C87.5562665,67.0017019 87.1983327,66.992936 86.8766289,67.1172353 C86.5549251,67.2415347 86.2958738,67.4886902 86.1566,67.8042 C85.4433406,69.4179459 84.4215925,70.8767514 83.1488,72.0986 C82.8142029,72.4209786 82.6770094,72.8973741 82.7888989,73.348333 C82.9007884,73.7992919 83.2447623,74.1563027 83.6912489,74.284883 C84.1377355,74.4134633 84.6189029,74.2940786 84.9535,73.9717 C86.4680233,72.5157359 87.6840555,70.7783724 88.5335,68.8569 C88.6732026,68.5416536 88.6819392,68.1838194 88.5577873,67.862131 C88.4336354,67.5404426 88.186767,67.2812562 87.8715,67.1416 L87.8715,67.1416 Z" id="Path" fill="#7B7B7B" fill-rule="nonzero"></path>
            <path d="M45.456,40.0243 C38.851061,40.0243 33.4967,45.378661 33.4967,51.9836 C33.4967,58.588539 38.851061,63.9429 45.456,63.9429 C52.060939,63.9429 57.4153,58.588539 57.4153,51.9836 C57.4153,45.3786839 52.0609161,40.0243 45.456,40.0243 L45.456,40.0243 Z M36.0593835,51.9836 C36.0527323,48.4150883 38.0716925,45.1519558 41.2680211,43.5651969 C44.4643496,41.978438 48.2842098,42.3429948 51.1227,44.5057 L37.9774,57.6494 C36.7339891,56.0222619 36.0600513,54.03144 36.0593835,51.9836 L36.0593835,51.9836 Z M45.456,61.3800162 C43.4077439,61.3793225 41.4165422,60.7051291 39.7892,59.4613 L52.9345,46.3177 C55.0966695,49.1562766 55.4608292,52.9758625 53.8739974,56.1718692 C52.2871657,59.367876 49.0242559,61.3866056 45.456,61.3800162 Z" id="Shape" fill="#7B7B7B" fill-rule="nonzero"></path>
            <rect id="Rectangle" x="0" y="0" width="96" height="96"></rect>
        </g>
    </g>
</svg>