<?xml version="1.0" encoding="UTF-8"?>
<svg width="96px" height="96px" viewBox="0 0 96 96" version="1.1" xmlns="http://www.w3.org/2000/svg" xmlns:xlink="http://www.w3.org/1999/xlink">
    <!-- Generator: Sketch 60 (88103) - https://sketch.com -->
    <title>icon / Forecast/Night/Mostly clear night</title>
    <desc>Created with Sketch.</desc>
    <g id="icon-/-Forecast/Night/Mostly-clear-night" stroke="none" stroke-width="1" fill="none" fill-rule="evenodd">
        <g id="05-mostly-sunny-night" transform="translate(1.000000, 0.000000)">
            <path d="M35.0355,9.4224 C45.8690124,-1.41090008 63.4334166,-1.41078534 74.2667875,9.42265627 C85.1001583,20.2560979 85.1001583,37.8205021 74.2667875,48.6539437 C63.4334166,59.4873853 45.8690124,59.4875001 35.0355,48.6542 C24.2020084,37.8206083 24.2020084,20.2559917 35.0355,9.4224" id="Path" fill="#FFFFFF"></path>
            <g id="Group" opacity="0.85" transform="translate(46.000000, 1.000000)" fill="#D6D6D6">
                <path d="M10.9437,0.4067 C-3.00591573,16.3639897 -2.27669626,40.382078 12.6153,55.4637 C26.5788147,53.4602869 36.8097868,41.2882514 36.3816929,27.1882464 C35.9535989,13.0882413 25.0030354,1.55930398 10.9437,0.4067 L10.9437,0.4067 Z" id="Path"></path>
            </g>
            <g id="Group" opacity="0.6" transform="translate(60.000000, 46.000000)" fill="#C9C9C9" fill-rule="nonzero">
                <path d="M27.9914,6.0923 L2.6945,6.0923 C1.25855965,6.0923 0.0945,4.92824035 0.0945,3.4923 C0.0945,2.05635965 1.25855965,0.8923 2.6945,0.8923 L27.9914,0.8923 C29.4273403,0.8923 30.5914,2.05635965 30.5914,3.4923 C30.5914,4.92824035 29.4273403,6.0923 27.9914,6.0923 L27.9914,6.0923 Z" id="Path"></path>
            </g>
            <path d="M80.2072,57.292 L64.4841,57.292 C67.032176,53.1124976 66.4590528,47.7432356 63.0861857,44.1957436 C59.7133187,40.6482516 54.3797954,39.8050597 50.0771,42.1391 C49.9204211,38.8025092 47.8439693,35.8592037 44.7531648,34.5925885 C41.6623603,33.3259732 38.1175811,33.9656918 35.6645,36.2328 C31.7423995,30.7655774 24.5678112,28.7256931 18.3560269,31.311642 C12.1442427,33.8975909 8.53664134,40.4260714 9.6528,47.0614 C9.4462,47.0449 9.239,47.0299 9.028,47.0299 C4.75839715,47.0299001 1.29720023,50.4910971 1.29720023,54.7607 C1.29720023,59.0303029 4.75839715,62.4914999 9.028,62.4915 L23.9348,62.4915 C25.3527435,62.5163752 26.4891947,63.6729383 26.4891947,65.0911 C26.4891947,66.5092617 25.3527435,67.6658248 23.9348,67.6907 L23.9348,67.6919 L19.6135,67.6919 C18.1775597,67.6919 17.0135,68.8559597 17.0135,70.2919 C17.0135,71.7278403 18.1775597,72.8919 19.6135,72.8919 L58.0451,72.8919 C59.4810403,72.8919 60.6451,71.7278403 60.6451,70.2919 C60.6451,68.8559597 59.4810403,67.6919 58.0451,67.6919 L54.3168,67.6919 L54.3168,67.6907 C52.8874259,67.6838034 51.7318306,66.5240699 51.7300433,65.0946803 C51.7282561,63.6652907 52.8809477,62.5026711 54.3103,62.4922 L80.2072,62.4922 C81.6431403,62.4922 82.8072,61.3281403 82.8072,59.8922 C82.8072,58.4562597 81.6431403,57.2922 80.2072,57.2922 L80.2072,57.292 Z" id="Path" fill="#C9C9C9" fill-rule="nonzero"></path>
            <g id="Group" opacity="0.6" transform="translate(2.000000, 67.000000)" fill="#C9C9C9" fill-rule="nonzero">
                <path d="M7.2346,5.8921 L2.8019,5.8921 C1.36595965,5.8921 0.2019,4.72804035 0.2019,3.2921 C0.2019,1.85615965 1.36595965,0.6921 2.8019,0.6921 L7.2346,0.6921 C8.67054035,0.6921 9.8346,1.85615965 9.8346,3.2921 C9.8346,4.72804035 8.67054035,5.8921 7.2346,5.8921 Z" id="Path"></path>
            </g>
            <g id="Group" opacity="0.6" transform="translate(64.000000, 67.000000)" fill="#C9C9C9" fill-rule="nonzero">
                <path d="M8.3693,5.8921 L3.0725,5.8921 C1.63655965,5.8921 0.4725,4.72804035 0.4725,3.2921 C0.4725,1.85615965 1.63655965,0.6921 3.0725,0.6921 L8.3693,0.6921 C9.80524035,0.6921 10.9693,1.85615965 10.9693,3.2921 C10.9693,4.72804035 9.80524035,5.8921 8.3693,5.8921 L8.3693,5.8921 Z" id="Path"></path>
            </g>
            <g id="Group" opacity="0.6" transform="translate(78.000000, 67.000000)" fill="#C9C9C9" fill-rule="nonzero">
                <path d="M13.883,5.8921 L3.3967,5.8921 C1.96075965,5.8921 0.7967,4.72804035 0.7967,3.2921 C0.7967,1.85615965 1.96075965,0.6921 3.3967,0.6921 L13.883,0.6921 C15.3189403,0.6921 16.483,1.85615965 16.483,3.2921 C16.483,4.72804035 15.3189403,5.8921 13.883,5.8921 Z" id="Path"></path>
            </g>
            <g id="Group" opacity="0.6" transform="translate(41.000000, 78.000000)" fill="#C9C9C9" fill-rule="nonzero">
                <path d="M33.2922,5.292 L3.5314,5.292 C2.09545965,5.292 0.9314,4.12794035 0.9314,2.692 C0.9314,1.25605965 2.09545965,0.092 3.5314,0.092 L33.2922,0.092 C34.7281403,0.092 35.8922,1.25605965 35.8922,2.692 C35.8922,4.12794035 34.7281403,5.292 33.2922,5.292 Z" id="Path"></path>
            </g>
            <g id="Group" opacity="0.6" transform="translate(21.000000, 78.000000)" fill="#C9C9C9" fill-rule="nonzero">
                <path d="M13.1535,5.292 L3.5012,5.292 C2.06525965,5.292 0.9012,4.12794035 0.9012,2.692 C0.9012,1.25605965 2.06525965,0.092 3.5012,0.092 L13.1535,0.092 C14.5894403,0.092 15.7535,1.25605965 15.7535,2.692 C15.7535,4.12794035 14.5894403,5.292 13.1535,5.292 Z" id="Path"></path>
            </g>
            <g id="Group" opacity="0.6" transform="translate(81.000000, 78.000000)" fill="#C9C9C9" fill-rule="nonzero">
                <path d="M3.7482,5.292 L2.6975,5.292 C1.26155965,5.292 0.0975,4.12794035 0.0975,2.692 C0.0975,1.25605965 1.26155965,0.092 2.6975,0.092 L3.7482,0.092 C5.18414035,0.092 6.3482,1.25605965 6.3482,2.692 C6.3482,4.12794035 5.18414035,5.292 3.7482,5.292 L3.7482,5.292 Z" id="Path"></path>
            </g>
            <rect id="Rectangle" x="0" y="0" width="96" height="96"></rect>
        </g>
    </g>
</svg>