<?xml version="1.0" encoding="UTF-8"?>
<svg width="96px" height="96px" viewBox="0 0 96 96" version="1.1" xmlns="http://www.w3.org/2000/svg" xmlns:xlink="http://www.w3.org/1999/xlink">
    <!-- Generator: Sketch 60 (88103) - https://sketch.com -->
    <title>icon / Forecast/Day/Mostly sunny</title>
    <desc>Created with Sketch.</desc>
    <g id="icon-/-Forecast/Day/Mostly-sunny" stroke="none" stroke-width="1" fill="none" fill-rule="evenodd">
        <g id="05-mostly-sunny">
            <circle id="Oval" fill="#FFE58D" fill-rule="nonzero" cx="54.65" cy="29.04" r="27.74"></circle>
            <g id="Group" opacity="0.58" transform="translate(26.000000, 9.000000)" fill="#FFDF64" fill-rule="nonzero">
                <path d="M0.91,20 C0.91,33.5785011 10.741841,45.159994 24.1403889,47.3633108 C37.5389368,49.5666275 50.5621428,41.7435854 54.91,28.88 C43,27.13 30.44,22.48 20,12.27 C16.54,8.89 12.66,4.87 8.67,0.86 C3.70464742,5.99586677 0.923175121,12.8563539 0.91,20 L0.91,20 Z" id="Path"></path>
            </g>
            <g id="Group" opacity="0.6" transform="translate(60.000000, 46.000000)" fill="#EFEFEF" fill-rule="nonzero">
                <path d="M28,6.09 L2.69,6.09 C1.25405965,6.09 0.09,4.92594035 0.09,3.49 C0.09,2.05405965 1.25405965,0.89 2.69,0.89 L28,0.89 C29.4359403,0.89 30.6,2.05405965 30.6,3.49 C30.6,4.92594035 29.4359403,6.09 28,6.09 Z" id="Path"></path>
            </g>
            <path d="M80.21,57.29 L64.48,57.29 C65.526704,55.5987241 66.0808081,53.6489703 66.08,51.66 C66.0800012,48.785972 64.937614,46.0298025 62.9044317,43.9984959 C60.8712494,41.9671892 58.1140268,40.8273462 55.24,40.83 C53.4370499,40.824541 51.6620076,41.2751816 50.08,42.14 C49.9198302,38.803488 47.8421257,35.8615477 44.7512911,34.5947771 C41.6604564,33.3280064 38.1156923,33.9655924 35.66,36.23 C31.7345971,30.7734719 24.5667839,28.7414476 18.3617706,31.3260743 C12.1567572,33.910701 8.55103176,40.4303186 9.66,47.06 C9.46,47.06 9.25,47.06 9.04,47.06 C4.96484226,47.3034184 1.78151799,50.6738003 1.7709085,54.7562079 C1.76035191,58.8386154 4.92615907,62.2254565 9,62.49 L23.9,62.49 C25.3359403,62.49 26.5,63.6540597 26.5,65.09 C26.5,66.5259403 25.3359403,67.69 23.9,67.69 L19.61,67.69 C18.1740597,67.69 17.01,68.8540597 17.01,70.29 C17.01,71.7259403 18.1740597,72.89 19.61,72.89 L58.05,72.89 C59.4859403,72.89 60.65,71.7259403 60.65,70.29 C60.65,68.8540597 59.4859403,67.69 58.05,67.69 L54.32,67.69 C52.8840597,67.69 51.72,66.5259403 51.72,65.09 C51.72,63.6540597 52.8840597,62.49 54.32,62.49 L80.22,62.49 C81.6559403,62.49 82.82,61.3259403 82.82,59.89 C82.82,58.4540597 81.6559403,57.29 80.22,57.29 L80.21,57.29 Z" id="Path" fill="#EFEFEF" fill-rule="nonzero"></path>
            <g id="Group" opacity="0.6" transform="translate(2.000000, 67.000000)" fill="#EFEFEF" fill-rule="nonzero">
                <path d="M7.23,5.89 L2.8,5.89 C1.36405965,5.89 0.2,4.72594035 0.2,3.29 C0.2,1.85405965 1.36405965,0.69 2.8,0.69 L7.23,0.69 C8.66594035,0.69 9.83,1.85405965 9.83,3.29 C9.83,4.72594035 8.66594035,5.89 7.23,5.89 Z" id="Path"></path>
            </g>
            <g id="Group" opacity="0.6" transform="translate(64.000000, 67.000000)" fill="#EFEFEF" fill-rule="nonzero">
                <path d="M8.37,5.89 L3.07,5.89 C1.63405965,5.89 0.47,4.72594035 0.47,3.29 C0.47,1.85405965 1.63405965,0.69 3.07,0.69 L8.37,0.69 C9.80594035,0.69 10.97,1.85405965 10.97,3.29 C10.97,4.72594035 9.80594035,5.89 8.37,5.89 Z" id="Path"></path>
            </g>
            <g id="Group" opacity="0.6" transform="translate(78.000000, 67.000000)" fill="#EFEFEF" fill-rule="nonzero">
                <path d="M13.88,5.89 L3.4,5.89 C1.96405965,5.89 0.8,4.72594035 0.8,3.29 C0.8,1.85405965 1.96405965,0.69 3.4,0.69 L13.88,0.69 C15.3159403,0.69 16.48,1.85405965 16.48,3.29 C16.48,4.72594035 15.3159403,5.89 13.88,5.89 Z" id="Path"></path>
            </g>
            <g id="Group" opacity="0.6" transform="translate(41.000000, 78.000000)" fill="#EFEFEF" fill-rule="nonzero">
                <path d="M33.29,5.29 L3.53,5.29 C2.09405965,5.29 0.93,4.12594035 0.93,2.69 C0.93,1.25405965 2.09405965,0.09 3.53,0.09 L33.29,0.09 C34.7259403,0.09 35.89,1.25405965 35.89,2.69 C35.89,4.12594035 34.7259403,5.29 33.29,5.29 Z" id="Path"></path>
            </g>
            <g id="Group" opacity="0.6" transform="translate(21.000000, 78.000000)" fill="#EFEFEF" fill-rule="nonzero">
                <path d="M13.15,5.29 L3.5,5.29 C2.06405965,5.29 0.9,4.12594035 0.9,2.69 C0.9,1.25405965 2.06405965,0.09 3.5,0.09 L13.15,0.09 C14.5859403,0.09 15.75,1.25405965 15.75,2.69 C15.75,4.12594035 14.5859403,5.29 13.15,5.29 Z" id="Path"></path>
            </g>
            <g id="Group" opacity="0.6" transform="translate(81.000000, 78.000000)" fill="#EFEFEF" fill-rule="nonzero">
                <path d="M3.75,5.29 L2.75,5.29 C1.31405965,5.29 0.15,4.12594035 0.15,2.69 C0.15,1.25405965 1.31405965,0.09 2.75,0.09 L3.75,0.09 C5.18594035,0.09 6.35,1.25405965 6.35,2.69 C6.35,4.12594035 5.18594035,5.29 3.75,5.29 L3.75,5.29 Z" id="Path"></path>
            </g>
            <rect id="Rectangle" x="0" y="0" width="96" height="96"></rect>
        </g>
    </g>
</svg>