<?xml version="1.0" encoding="UTF-8"?>
<svg width="96px" height="96px" viewBox="0 0 96 96" version="1.1" xmlns="http://www.w3.org/2000/svg" xmlns:xlink="http://www.w3.org/1999/xlink">
    <!-- Generator: Sketch 60 (88103) - https://sketch.com -->
    <title>icon / Forecast/Day/Partly cloudy</title>
    <desc>Created with Sketch.</desc>
    <g id="icon-/-Forecast/Day/Partly-cloudy" stroke="none" stroke-width="1" fill="none" fill-rule="evenodd">
        <g id="03-partly-cloudy">
            <rect id="Rectangle" x="0" y="0" width="96" height="96"></rect>
            <circle id="Oval" fill="#FFE58D" fill-rule="nonzero" cx="66.36" cy="29.04" r="27.74"></circle>
            <g id="Group" opacity="0.58" transform="translate(38.000000, 9.000000)" fill="#FFDF64" fill-rule="nonzero">
                <path d="M0.619992602,20 C0.619992602,33.5785011 10.451841,45.159994 23.8503889,47.3633108 C37.2489368,49.5666275 50.2721428,41.7435854 54.6199926,28.88 C42.74,27.09 30.15,22.44 19.68,12.23 C16.22,8.85 12.34,4.83 8.35,0.82 C3.38601013,5.97057956 0.614766902,12.8467044 0.619992602,20 L0.619992602,20 Z" id="Path"></path>
            </g>
            <path d="M87.6100041,62.3 C87.6069746,55.5523466 83.0697195,49.6489921 76.55,47.91 C77.1253788,46.5881262 77.4215644,45.1616687 77.42,43.72 C77.4665691,40.2847848 75.8328297,37.0432518 73.0438341,35.0371671 C70.2548385,33.0310825 66.6620047,32.513216 63.42,33.65 C60.2595246,22.4137252 49.3855606,15.1539393 37.7961849,16.5427694 C26.2068093,17.9315995 17.3560818,27.5551231 16.94,39.22 C7.19382378,41.0237915 0.432198756,49.963082 1.34899545,59.8322815 C2.26579214,69.701481 10.5583343,77.2423185 20.47,77.2200494 C20.65,77.2200494 20.82,77.2200494 21,77.2200494 L21,77.2200494 L72.87,77.2200494 C81.0419975,77.1268211 87.6160124,70.4725265 87.6100041,62.3 Z" id="Path" fill="#EFEFEF" fill-rule="nonzero"></path>
        </g>
    </g>
</svg>