<?xml version="1.0" encoding="UTF-8"?>
<svg width="96px" height="96px" viewBox="0 0 96 96" version="1.1" xmlns="http://www.w3.org/2000/svg" xmlns:xlink="http://www.w3.org/1999/xlink">
    <!-- Generator: Sketch 60 (88103) - https://sketch.com -->
    <title>icon / Forecast/Day/Snow</title>
    <desc>Created with Sketch.</desc>
    <g id="icon-/-Forecast/Day/Snow" stroke="none" stroke-width="1" fill="none" fill-rule="evenodd">
        <g id="15-snow">
            <rect id="Rectangle" x="0" y="0" width="96" height="96"></rect>
            <circle id="Oval" fill="#E7E7E7" fill-rule="nonzero" cx="22.13" cy="57.21" r="3.52"></circle>
            <circle id="Oval" fill="#E9E9E9" fill-rule="nonzero" cx="53.91" cy="60.24" r="3.52"></circle>
            <circle id="Oval" fill="#E9E9E9" fill-rule="nonzero" cx="35.21" cy="73.71" r="3.52"></circle>
            <circle id="Oval" fill="#E9E9E9" fill-rule="nonzero" cx="47.32" cy="71.37" r="3.52"></circle>
            <circle id="Oval" fill="#F5F5F5" fill-rule="nonzero" cx="22.71" cy="69.03" r="3.52"></circle>
            <path d="M66.6000056,44.5 C66.5959053,39.8973445 63.4981959,35.8723737 59.05,34.69 C60.2308513,32.0548447 59.7255548,28.9693267 57.7658424,26.8484824 C55.80613,24.727638 52.7700633,23.9806141 50.05,24.95 C47.898885,17.2788366 40.477852,12.3200588 32.5673893,13.2680171 C24.6569267,14.2159755 18.6176727,20.7877803 18.34,28.75 C11.7176782,30.0083681 7.13617449,36.0934288 7.75742826,42.8055581 C8.37868203,49.5176874 13.9992157,54.6584794 20.74,54.68 L21.11,54.68 L21.11,54.68 L56.54,54.68 C62.11763,54.6196711 66.605811,50.0779532 66.6000056,44.5 Z" id="Path" fill="#ECECEC" fill-rule="nonzero"></path>
            <circle id="Oval" fill="#E8E8E8" fill-rule="nonzero" cx="32.87" cy="63.56" r="2.34"></circle>
            <circle id="Oval" fill="#C8C8C8" fill-rule="nonzero" cx="46.15" cy="83.09" r="2.34"></circle>
            <circle id="Oval" fill="#C8C8C8" fill-rule="nonzero" cx="59.82" cy="74.89" r="2.34"></circle>
            <circle id="Oval" fill="#C8C8C8" fill-rule="nonzero" cx="41.51" cy="59.92" r="2.34"></circle>
            <circle id="Oval" fill="#F5F5F5" fill-rule="nonzero" cx="64.43" cy="58.62" r="2.34"></circle>
            <circle id="Oval" fill="#E8E8E8" fill-rule="nonzero" cx="25.45" cy="81.53" r="2.34"></circle>
            <circle id="Oval" fill="#E8E8E8" fill-rule="nonzero" cx="34.13" cy="90.66" r="2.34"></circle>
            <circle id="Oval" fill="#F5F5F5" fill-rule="nonzero" cx="60.72" cy="87.41" r="2.34"></circle>
            <circle id="Oval" fill="#E8E8E8" fill-rule="nonzero" cx="66.56" cy="67.3" r="2.34"></circle>
            <circle id="Oval" fill="#F5F5F5" fill-rule="nonzero" cx="17.26" cy="89.36" r="2.34"></circle>
            <circle id="Oval" fill="#F5F5F5" fill-rule="nonzero" cx="3.64" cy="69.25" r="2.34"></circle>
            <circle id="Oval" fill="#E8E8E8" fill-rule="nonzero" cx="13.59" cy="76.35" r="2.34"></circle>
            <circle id="Oval" fill="#E8E8E8" fill-rule="nonzero" cx="12.29" cy="63.2" r="2.34"></circle>
        </g>
    </g>
</svg>