<?xml version="1.0" encoding="UTF-8"?>
<svg width="96px" height="96px" viewBox="0 0 96 96" version="1.1" xmlns="http://www.w3.org/2000/svg" xmlns:xlink="http://www.w3.org/1999/xlink">
    <!-- Generator: Sketch 60 (88103) - https://sketch.com -->
    <title>icon / Forecast/Night/Snow night</title>
    <desc>Created with Sketch.</desc>
    <g id="icon-/-Forecast/Night/Snow-night" stroke="none" stroke-width="1" fill="none" fill-rule="evenodd">
        <g id="15-snow-night">
            <rect id="Rectangle" x="0" y="0" width="96" height="96"></rect>
            <circle id="Oval" fill="#E0E0E0" fill-rule="nonzero" cx="22.1253" cy="54.4336" r="3.5156"></circle>
            <circle id="Oval" fill="#FFFFFF" fill-rule="nonzero" cx="53.9113" cy="60.2432" r="3.5156"></circle>
            <circle id="Oval" fill="#E0E0E0" fill-rule="nonzero" cx="35.2112" cy="73.7136" r="3.5156"></circle>
            <circle id="Oval" fill="#E0E0E0" fill-rule="nonzero" cx="47.3206" cy="71.3699" r="3.5156"></circle>
            <circle id="Oval" fill="#FFFFFF" fill-rule="nonzero" cx="22.7112" cy="69.0261" r="3.5156"></circle>
            <path d="M64.437,44.505 C64.4344028,39.9008661 61.3389808,35.8727936 56.8907,34.685 C58.0551009,32.0586871 57.5492334,28.9917316 55.6030822,26.8784771 C53.6569311,24.7652226 50.641929,24.0089945 47.9288,24.9536 C45.7730667,17.2867316 38.3537682,12.3328414 30.4461632,13.2803856 C22.5385582,14.2279297 16.4997173,20.7944676 16.2164,28.7536 C9.57597294,29.9931517 4.97317078,36.087319 5.59719242,42.8135629 C6.22121405,49.5398068 11.8665723,54.6832096 18.6217,54.6800015 C18.7455,54.6800015 18.865,54.6649 18.9881,54.6615 L18.9881,54.6800015 L54.3763,54.6800015 L54.3763,54.6742 C59.9497418,54.6137008 64.4362871,50.0787701 64.437,44.505 Z" id="Path" fill="#FFFFFF" fill-rule="nonzero"></path>
            <circle id="Oval" fill="#E0E0E0" fill-rule="nonzero" cx="32.8675" cy="63.5574" r="2.3438"></circle>
            <circle id="Oval" fill="#FFFFFF" fill-rule="nonzero" cx="46.1488" cy="83.0887" r="2.3438"></circle>
            <circle id="Oval" fill="#FFFFFF" fill-rule="nonzero" cx="59.8207" cy="74.8855" r="2.3438"></circle>
            <circle id="Oval" fill="#FFFFFF" fill-rule="nonzero" cx="41.5135" cy="59.9189" r="2.3438"></circle>
            <circle id="Oval" fill="#FFFFFF" fill-rule="nonzero" cx="64.4324" cy="58.6216" r="2.3438"></circle>
            <circle id="Oval" fill="#FFFFFF" fill-rule="nonzero" cx="25.4456" cy="81.5262" r="2.3438"></circle>
            <circle id="Oval" fill="#E0E0E0" fill-rule="nonzero" cx="34.1275" cy="90.6562" r="2.3438"></circle>
            <circle id="Oval" fill="#FFFFFF" fill-rule="nonzero" cx="60.7221" cy="87.413" r="2.3438"></circle>
            <circle id="Oval" fill="#E0E0E0" fill-rule="nonzero" cx="66.56" cy="67.3049" r="2.3438"></circle>
            <circle id="Oval" fill="#FFFFFF" fill-rule="nonzero" cx="17.2627" cy="89.3589" r="2.3438"></circle>
            <circle id="Oval" fill="#FFFFFF" fill-rule="nonzero" cx="3.6411" cy="69.2508" r="2.3438"></circle>
            <circle id="Oval" fill="#E0E0E0" fill-rule="nonzero" cx="13.587" cy="76.3514" r="2.3438"></circle>
            <circle id="Oval" fill="#FFFFFF" fill-rule="nonzero" cx="12.2897" cy="63.1968" r="2.3438"></circle>
        </g>
    </g>
</svg>