<?xml version="1.0" encoding="UTF-8"?>
<svg width="96px" height="96px" viewBox="0 0 96 96" version="1.1" xmlns="http://www.w3.org/2000/svg" xmlns:xlink="http://www.w3.org/1999/xlink">
    <!-- Generator: Sketch 60 (88103) - https://sketch.com -->
    <title>icon / Forecast/Night/Storms night</title>
    <desc>Created with Sketch.</desc>
    <g id="icon-/-Forecast/Night/Storms-night" stroke="none" stroke-width="1" fill="none" fill-rule="evenodd">
        <g id="16-storms-night">
            <rect id="Rectangle" x="0" y="0" width="96" height="96"></rect>
            <path d="M41.9232,84.33 C40.4872597,84.33 39.3232,83.1659403 39.3232,81.73 L39.3232,58.0542 C39.3067161,57.1145828 39.7985603,56.2392 40.6096565,55.7645684 C41.4207527,55.2899368 42.4248473,55.2899368 43.2359435,55.7645684 C44.0470397,56.2392 44.5388839,57.1145828 44.5224,58.0542 L44.5224,81.73 C44.5224001,83.165628 43.3588279,84.3295583 41.9232,84.33 Z" id="Path" fill="#5EB4E9" fill-rule="nonzero"></path>
            <path d="M52.3021,77.9888 C50.8661597,77.9888 49.7021,76.8247403 49.7021,75.3888 L49.7021,65.2265 C49.6856161,64.2868828 50.1774603,63.4115 50.9885565,62.9368684 C51.7996527,62.4622368 52.8037473,62.4622368 53.6148435,62.9368684 C54.4259397,63.4115 54.9177839,64.2868828 54.9013,65.2265 L54.9013,75.3887 C54.9013553,76.824367 53.737767,77.9883583 52.3021,77.9888 L52.3021,77.9888 Z" id="Path" fill="#5EB4E9" fill-rule="nonzero"></path>
            <g id="Group" opacity="0.6" transform="translate(28.000000, 54.000000)" fill="#5EB4E9" fill-rule="nonzero">
                <path d="M3.5453,19.8808 C2.10935965,19.8808 0.9453,18.7167403 0.9453,17.2808 L0.9453,3.4429 C0.928816122,2.50328281 1.42066031,1.62789995 2.23175652,1.1532684 C3.04285273,0.678636849 4.04694727,0.678636849 4.85804348,1.1532684 C5.66913969,1.62789995 6.16098388,2.50328281 6.1445,3.4429 L6.1445,17.2807 C6.14455529,18.716367 4.98096697,19.8803583 3.5453,19.8808 Z" id="Path"></path>
            </g>
            <g id="Group" opacity="0.6" transform="translate(28.000000, 79.000000)" fill="#5EB4E9" fill-rule="nonzero">
                <path d="M3.5453,5.28610938 C2.10725437,5.28991721 0.937702361,4.1285626 0.931379352,2.69052569 C0.925107412,1.25248879 2.08444312,0.0809354691 3.52246702,0.0721081474 C4.96049092,0.0633800314 6.13404206,1.22069337 6.1453,2.6587 L6.1453,2.686 C6.1453,3.3755802 5.87141045,4.03692606 5.38381299,4.52454228 C4.89621553,5.01215849 4.2348802,5.28610938 3.5453,5.28610938 L3.5453,5.28610938 Z" id="Path"></path>
            </g>
            <path d="M78.262,32.6237 C79.8366361,28.3922415 79.2364966,23.657639 76.6558973,19.9528817 C74.0752979,16.2481244 69.8422323,14.0440863 65.3273,14.0544 C65.0217,14.0544 64.7228,14.0806 64.422,14.1002 C62.5043107,7.86151044 57.3850863,3.1325316 51.0142156,1.71450968 C44.6433449,0.29648776 38.0016312,2.40772895 33.6188726,7.24407122 C29.236114,12.0804135 27.7870414,18.8972961 29.8236,25.0982 L29.8236,53.2582009 L73.8219,53.2582009 C78.9097803,53.2602714 83.3082647,49.7090464 84.3785657,44.7350153 C85.4488667,39.7609841 82.9003292,34.7149144 78.2619,32.6241 L78.262,32.6237 Z" id="Path" fill="#A6A6A6" fill-rule="nonzero"></path>
            <g id="Group" opacity="0.15" transform="translate(28.000000, 16.000000)" fill="#787878" fill-rule="nonzero">
                <path d="M0.96,2.5948 C0.9467,2.8808 0.917,3.1627 0.917,3.452 C0.918515172,5.37013479 1.22445416,7.27587409 1.8234,9.0981 L1.8234,37.2581 L41.676,37.2581 C43.5137,32.4824 43.2685,26.6254 39.1378,19.4981 C27.7792,-0.1022 11.1325,-1.9785 0.96,2.5948 Z" id="Path"></path>
            </g>
            <path d="M70.325,20.008 L61.44,20.008 L69.9044,9.4493 C70.7110671,8.4430648 70.5492851,6.97341714 69.54305,6.16675005 C68.5368148,5.36008296 67.0671671,5.52186484 66.2605,6.5281 L54.7533,20.8823 C54.1916152,21.5830754 54.08154,22.5438568 54.4701774,23.3535092 C54.8588147,24.1631615 55.6773043,24.6782269 56.5754,24.6783 L65.7829,24.6783 L51.6029,45.3143 C51.3142522,45.7352124 51.407053,46.3086215 51.8137298,46.6170023 C52.2204066,46.9253831 52.7975871,46.860017 53.125,46.4685 L72.0784,23.7541 C72.6462658,23.0736329 72.7690323,22.1260127 72.3933155,21.3233023 C72.0175988,20.5205919 71.2112883,20.0078355 70.325,20.008 Z" id="Path" fill="#FFE77C" fill-rule="nonzero"></path>
            <path d="M65.9236,48.4438 C65.920522,43.3917001 62.5238714,38.9718049 57.6428,37.6684 C58.9207304,34.7864473 58.3656725,31.4208381 56.2300019,29.1018581 C54.0943313,26.7828781 50.7857052,25.9531747 47.8085,26.99 C45.4430153,18.5769092 37.301671,13.1407844 28.624417,14.1804361 C19.9471629,15.2200878 13.3204594,22.4256233 13.0094,31.1594 C5.72261654,32.5195805 0.671771677,39.2069086 1.35650089,46.5878604 C2.04123011,53.9688123 8.23605594,59.6128821 15.6487,59.6094016 C15.7846,59.6094016 15.9158,59.5929 16.0508,59.5894 L16.0508,59.6094016 L54.8836,59.6094016 L54.8836,59.6031 C60.9996595,59.5367357 65.9236,54.5602195 65.9236,48.4438 L65.9236,48.4438 Z" id="Path" fill="#6D6D6D" fill-rule="nonzero"></path>
            <path d="M27.5446,46.3135 L18.66,46.3135 L27.1241,35.7549 C27.9307671,34.7486096 27.7689404,33.2789171 26.76265,32.47225 C25.7563596,31.6655829 24.2866671,31.8274096 23.48,32.8337 L11.9726,47.1879 C11.4108917,47.8886554 11.3008044,48.84944 11.6894497,49.6590875 C12.0780951,50.4687351 12.8966052,50.9837762 13.7947,50.9838 L23.0022,50.9838 L8.8218,71.62 C8.53189032,72.0410123 8.62433557,72.6155772 9.03167366,72.924405 C9.43901175,73.2332329 10.017198,73.1671145 10.3443,72.7743 L29.2977,50.06 C29.8655311,49.3795746 29.9883201,48.4320241 29.6126791,47.6293382 C29.2370381,46.8266522 28.4308341,46.313852 27.5446,46.3139 L27.5446,46.3135 Z" id="Path" fill="#FFD413" fill-rule="nonzero"></path>
        </g>
    </g>
</svg>