<?xml version="1.0" encoding="UTF-8"?>
<svg width="96px" height="96px" viewBox="0 0 96 96" version="1.1" xmlns="http://www.w3.org/2000/svg" xmlns:xlink="http://www.w3.org/1999/xlink">
    <!-- Generator: Sketch 60 (88103) - https://sketch.com -->
    <title>icon / Forecast/Day/Storms</title>
    <desc>Created with Sketch.</desc>
    <g id="icon-/-Forecast/Day/Storms" stroke="none" stroke-width="1" fill="none" fill-rule="evenodd">
        <g id="16-storms">
            <rect id="Rectangle" x="0" y="0" width="96" height="96"></rect>
            <path d="M41.92,84.3300194 C40.4840597,84.3300194 39.32,83.1659403 39.32,81.73 L39.32,58.05 C39.32,56.6140597 40.4840597,55.45 41.92,55.45 C43.3559403,55.45 44.5200194,56.6140597 44.5200194,58.05 L44.5200194,81.73 C44.5226707,82.4203782 44.2496007,83.0832512 43.7614259,83.5714259 C43.2732512,84.0596007 42.6103782,84.3326707 41.92,84.3300194 L41.92,84.3300194 Z" id="Path" fill="#5EB4E9" fill-rule="nonzero"></path>
            <path d="M52.3,78 C50.8663367,77.9945175 49.7054825,76.8336633 49.7,75.4 L49.7,65.23 C49.7,63.7940597 50.8640597,62.63 52.3,62.63 C53.7359403,62.63 54.9000193,63.7940597 54.9000193,65.23 L54.9000193,75.39 C54.9026588,76.0812939 54.6299053,76.745186 54.1420222,77.2349455 C53.6541392,77.724705 52.991299,78 52.3,78 Z" id="Path" fill="#5EB4E9" fill-rule="nonzero"></path>
            <g id="Group" opacity="0.6" transform="translate(28.000000, 54.000000)" fill="#5EB4E9" fill-rule="nonzero">
                <path d="M3.55,19.8800194 C2.85962184,19.8826707 2.19674879,19.6096007 1.70857406,19.1214259 C1.22039933,18.6332512 0.947329261,17.9703782 0.95,17.28 L0.95,3.44 C0.890032651,2.47445074 1.37110423,1.55544658 2.19872624,1.05452418 C3.02634826,0.553601786 4.06365174,0.553601786 4.89127376,1.05452418 C5.71889577,1.55544658 6.19996735,2.47445074 6.14,3.44 L6.14,17.28 C6.14265887,17.9686417 5.87095889,18.6299903 5.38495118,19.1178744 C4.89894348,19.6057586 4.23864684,19.8800194 3.55,19.8800194 Z" id="Path"></path>
            </g>
            <g id="Group" opacity="0.6" transform="translate(28.000000, 79.000000)" fill="#5EB4E9" fill-rule="nonzero">
                <path d="M3.55,5.29 C2.10859875,5.3010029 0.931184754,4.14145095 0.920153643,2.70004991 C0.909122531,1.25864887 2.06865144,0.0812121839 3.51005226,0.0701528598 C4.95145308,0.0590935356 6.12891246,1.2185994 6.14,2.66 L6.14,2.66 C6.14800182,3.35301593 5.87898383,4.02054494 5.39268449,4.51435469 C4.90638516,5.00816444 4.24305718,5.28738057 3.55,5.29 L3.55,5.29 Z" id="Path"></path>
            </g>
            <path d="M78.26,32.62 C79.8385406,28.3891979 79.2407417,23.6531468 76.6604117,19.9472901 C74.0800818,16.2414334 69.845675,14.0374953 65.33,14.05 C65.02,14.05 64.72,14.05 64.42,14.05 C61.3824339,4.49547383 51.1745262,-0.787566124 41.62,2.25 C32.0654738,5.28756612 26.7824339,15.4954738 29.82,25.05 L29.82,53.26 L73.82,53.26 C78.905144,53.2546682 83.2977087,49.7027252 84.3671423,44.7313039 C85.436576,39.7598825 82.8931366,34.7158921 78.26,32.62 L78.26,32.62 Z" id="Path" fill="#C8C8C8" fill-rule="nonzero"></path>
            <g id="Group" opacity="0.15" transform="translate(29.000000, 16.000000)" fill="#9D9D9D" fill-rule="nonzero">
                <path d="M0,2.59 C0,2.88 0,3.16 0,3.45 C0.000424314767,5.36899029 0.304172314,7.27585273 0.9,9.1 L0.9,37.26 L40.68,37.26 C42.51,32.48 42.27,26.63 38.14,19.5 C26.78,-0.1 10.13,-2 0,2.59 Z" id="Path"></path>
            </g>
            <path d="M70.33,20 L61.44,20 L69.9,9.45 C70.4216078,8.79977663 70.5567032,7.92067101 70.2543971,7.14383374 C69.952091,6.36699647 69.258311,5.81044761 68.4343971,5.68383372 C67.6104833,5.55721984 66.7816078,5.87977661 66.26,6.53 L54.75,20.88 C54.188875,21.5828129 54.0801862,22.5450223 54.4703968,23.3552957 C54.8606074,24.1655692 55.680663,24.6805148 56.58,24.68 L65.78,24.68 L51.6,45.31 C51.3391298,45.723322 51.4152547,46.2646551 51.78,46.59 C52.1908325,46.9013534 52.7710256,46.8493958 53.12,46.47 L72.12,23.75 C72.4643694,23.3416733 72.6522375,22.8241497 72.6500235,22.29 C72.652785,21.6765796 72.4082732,21.0879144 71.9717015,20.656988 C71.5351298,20.2260616 70.9433323,19.9892318 70.33,20 Z" id="Path" fill="#FFE77C" fill-rule="nonzero"></path>
            <path d="M65.9200052,48.44 C65.9180507,43.3889539 62.5208524,38.9701344 57.64,37.67 C58.069585,36.6789452 58.2908317,35.6101538 58.29,34.53 C58.319827,31.9607891 57.0951916,29.5383764 55.0085764,28.0391194 C52.9219612,26.5398625 50.2354346,26.1520606 47.81,27 C45.4492139,18.5808387 37.3058766,13.1374446 28.6237657,14.1750079 C19.9416548,15.2125713 13.310359,22.4216212 13,31.16 C5.72761994,32.5354547 0.694319173,39.2162794 1.37818111,46.585928 C2.06204306,53.9555766 8.23870307,59.59618 15.64,59.61 L16.04,59.61 L16.04,59.61 L54.88,59.61 C61.0004825,59.5441873 65.9258384,54.5608336 65.9200052,48.44 Z" id="Path" fill="#AAAAAA" fill-rule="nonzero"></path>
            <path d="M27.54,46.31 L18.66,46.31 L27.12,35.75 C27.9263357,34.7448418 27.7651582,33.2763357 26.76,32.47 C25.7548418,31.6636643 24.2863357,31.8248418 23.48,32.83 L12,47.19 C11.4285545,47.8848249 11.3081683,48.846551 11.6907128,49.6607937 C12.0732573,50.4750365 12.890379,50.9963061 13.79,51 L23,51 L8.82,71.62 C8.55912978,72.033322 8.63525474,72.5746551 9,72.9 C9.41331651,73.2088528 9.99375903,73.1525412 10.34,72.77 L29.34,50.06 C29.905119,49.3771273 30.025406,48.4294546 29.6488113,47.6270512 C29.2722167,46.8246479 28.4663814,46.3116352 27.58,46.31 L27.54,46.31 Z" id="Path" fill="#FFD413" fill-rule="nonzero"></path>
        </g>
    </g>
</svg>