<?xml version="1.0" encoding="UTF-8"?>
<svg width="96px" height="96px" viewBox="0 0 96 96" version="1.1" xmlns="http://www.w3.org/2000/svg" xmlns:xlink="http://www.w3.org/1999/xlink">
    <!-- Generator: Sketch 60 (88103) - https://sketch.com -->
    <title>icon / Forecast/Night/Wind night</title>
    <desc>Created with Sketch.</desc>
    <g id="icon-/-Forecast/Night/Wind-night" stroke="none" stroke-width="1" fill="none" fill-rule="evenodd">
        <g id="09-wind-night">
            <g id="Group" opacity="0.48" transform="translate(54.000000, 27.000000)" fill="#878787" fill-rule="nonzero">
                <path d="M20.0869,18.4184 L3.4433,18.4184 C2.00735965,18.4184 0.8433,17.2543403 0.8433,15.8184 C0.8433,14.3824597 2.00735965,13.2184 3.4433,13.2184 L20.0869,13.2184 C22.1252071,13.2180618 23.9626433,11.9900174 24.7425446,10.1068154 C25.5224459,8.2236134 25.091253,6.05604854 23.65,4.6147 C22.9932208,3.95774217 22.7368146,3.00030057 22.9773672,2.10303419 C23.2179198,1.2057678 23.9188854,0.504992741 24.8162172,0.264684186 C25.713549,0.0243756318 26.6709208,0.28104217 27.3277,0.938 C30.2558213,3.86674686 31.1315334,8.27089768 29.5465367,12.0970234 C27.96154,15.9231491 24.2279312,18.4178597 20.0865,18.418 L20.0869,18.4184 Z" id="Path"></path>
            </g>
            <path d="M64.7656,68.4214022 C63.7139115,68.4214022 62.7656885,67.7881693 62.3631475,66.8165678 C61.9606065,65.8449662 62.1830348,64.726547 62.9267,63.9829 C64.2981607,62.6115053 64.7084623,60.5489951 63.9662794,58.7571267 C63.2240965,56.9652583 61.4755916,55.7969149 59.5361,55.7969 L46.2685,55.7969 C44.8325597,55.7969 43.6685,54.6328403 43.6685,53.1969 C43.6685,51.7609597 44.8325597,50.5969 46.2685,50.5969 L59.5361,50.5969 C63.5787281,50.5971005 67.2232332,53.0323283 68.7703982,56.7671807 C70.3175631,60.5020331 69.462747,64.8011076 66.6045,67.66 C66.1172129,68.148298 65.4554426,68.4223052 64.7656,68.4214022 Z" id="Path" fill="#C6C6C6" fill-rule="nonzero"></path>
            <g id="Group" opacity="0.6" transform="translate(0.000000, 50.000000)" fill="#A9C3D9" fill-rule="nonzero">
                <path d="M35.8906,5.7969 L3.459,5.7969 C2.02305965,5.7969 0.859,4.63284035 0.859,3.1969 C0.859,1.76095965 2.02305965,0.5969 3.459,0.5969 L35.8906,0.5969 C37.3265403,0.5969 38.4906,1.76095965 38.4906,3.1969 C38.4906,4.63284035 37.3265403,5.7969 35.8906,5.7969 Z" id="Path"></path>
            </g>
            <path d="M47.0654,45.4184 L31.8222,45.4184 C30.3862597,45.4184 29.2222,44.2543403 29.2222,42.8184 C29.2222,41.3824597 30.3862597,40.2184 31.8222,40.2184 L47.0654,40.2184 C48.5013403,40.2184 49.6654,41.3824597 49.6654,42.8184 C49.6654,44.2543403 48.5013403,45.4184 47.0654,45.4184 Z" id="Path" fill="#C6C6C6" fill-rule="nonzero"></path>
            <g id="Group" opacity="0.48" transform="translate(10.000000, 60.000000)" fill="#878787" fill-rule="nonzero">
                <path d="M41.8779,11.5259 C40.4419597,11.5259 39.2779,10.3618403 39.2779,8.9259 C39.2760257,7.40699036 38.0449102,6.17627747 36.526,6.1749 L2.8838,6.1749 C1.44785965,6.1749 0.2838,5.01084035 0.2838,3.5749 C0.2838,2.13895965 1.44785965,0.9749 2.8838,0.9749 L36.5264,0.9749 C40.915677,0.979804933 44.4726503,4.53682292 44.4775,8.9261 C44.4775,10.3618061 43.313606,11.5256791 41.8779,11.5259 L41.8779,11.5259 Z" id="Path"></path>
            </g>
            <path d="M63.5654,35.0405 L38.6728,35.0405 C37.2368597,35.0405 36.0728,33.8764403 36.0728,32.4405 C36.0728,31.0045597 37.2368597,29.8405 38.6728,29.8405 L63.5654,29.8405 C64.6784684,29.8410356 65.6821536,29.1707204 66.1080732,28.1423653 C66.5339928,27.1140102 66.2981879,25.9303285 65.5107,25.1437 C64.6206367,24.2807735 63.2700386,24.1035766 62.1875,24.7077 C60.9462124,25.4298952 59.3544952,25.0090876 58.6323,23.7678 C57.9101048,22.5265124 58.3309124,20.9347952 59.5722,20.2126 C62.4651172,18.5327038 66.1000825,18.8430731 68.6663259,20.9890965 C71.2325693,23.1351198 72.1812281,26.6578102 71.0397248,29.802328 C69.8982215,32.9468457 66.9106984,35.0407 63.5654,35.0407 L63.5654,35.0405 Z" id="Path" fill="#C6C6C6" fill-rule="nonzero"></path>
            <circle id="Oval" fill="#B1C696" fill-rule="nonzero" cx="76.1255" cy="53.1965" r="2.6"></circle>
            <circle id="Oval" fill="#B1C696" fill-rule="nonzero" cx="26.6137" cy="32.4405" r="2.6"></circle>
            <g id="Group" opacity="0.6" transform="translate(8.000000, 40.000000)" fill="#A9C3D9" fill-rule="nonzero">
                <path d="M13.4443,5.4184 L3.0664,5.4184 C1.63045965,5.4184 0.4664,4.25434035 0.4664,2.8184 C0.4664,1.38245965 1.63045965,0.2184 3.0664,0.2184 L13.4443,0.2184 C14.8802403,0.2184 16.0443,1.38245965 16.0443,2.8184 C16.0443,4.25434035 14.8802403,5.4184 13.4443,5.4184 Z" id="Path"></path>
            </g>
            <rect id="Rectangle" x="0" y="0.0092" width="95.9968" height="95.9968"></rect>
        </g>
    </g>
</svg>