<?xml version="1.0" encoding="UTF-8"?>
<svg width="96px" height="96px" viewBox="0 0 96 96" version="1.1" xmlns="http://www.w3.org/2000/svg" xmlns:xlink="http://www.w3.org/1999/xlink">
    <!-- Generator: Sketch 60 (88103) - https://sketch.com -->
    <title>icon / Forecast/Day/Cloudy</title>
    <desc>Created with Sketch.</desc>
    <g id="icon-/-Forecast/Day/Cloudy" stroke="none" stroke-width="1" fill="none" fill-rule="evenodd">
        <g id="04-cloudy">
            <rect id="Rectangle" x="0" y="0" width="96" height="96"></rect>
            <circle id="Oval" fill="#C8C8C8" fill-rule="nonzero" cx="80.75" cy="40.28" r="13.95"></circle>
            <circle id="Oval" fill="#C8C8C8" fill-rule="nonzero" cx="64.33" cy="29.05" r="20.64"></circle>
            <g id="Group" opacity="0.15" transform="translate(43.000000, 10.000000)" fill="#9D9D9D" fill-rule="nonzero">
                <path d="M48.1,39.57 C46.24,31.1 40.72,22.57 29.2,16.37 C22.06,12.56 16.97,6.6 12.5,0.37 C2.63394974,4.84754565 -2.08408582,16.1968922 1.70025593,26.3490408 C5.48459769,36.5011893 16.4803905,41.9930077 26.87,38.92 C29.3917883,42.1615351 33.2271709,44.1103732 37.3321886,44.2360568 C41.4372062,44.3617403 45.3846285,42.6511888 48.1,39.57 Z" id="Path"></path>
            </g>
            <path d="M88.370004,62.3 C88.3635013,55.5535285 83.8276838,49.6520443 77.31,47.91 C79.0238267,44.0597643 78.2842271,39.5591507 75.4283645,36.4598661 C72.5725019,33.3605814 68.1472656,32.2561296 64.17,33.65 C61.0095246,22.4137252 50.1355606,15.1539393 38.5461849,16.5427694 C26.9568093,17.9315995 18.1060818,27.5551231 17.69,39.22 C7.94382378,41.0237915 1.18219876,49.963082 2.09899545,59.8322815 C3.01579214,69.701481 11.3083343,77.2423185 21.22,77.2200494 C21.4,77.2200494 21.58,77.2200494 21.76,77.2200494 L21.76,77.2200494 L73.62,77.2200494 C81.795912,77.132261 88.3759546,70.4763806 88.370004,62.3 Z" id="Path" fill="#DCDCDC" fill-rule="nonzero"></path>
        </g>
    </g>
</svg>