<?xml version="1.0" encoding="UTF-8"?>
<svg width="96px" height="96px" viewBox="0 0 96 96" version="1.1" xmlns="http://www.w3.org/2000/svg" xmlns:xlink="http://www.w3.org/1999/xlink">
    <!-- Generator: Sketch 60 (88103) - https://sketch.com -->
    <title>icon / Forecast/Night/Fog night</title>
    <desc>Created with Sketch.</desc>
    <g id="icon-/-Forecast/Night/Fog-night" stroke="none" stroke-width="1" fill="none" fill-rule="evenodd">
        <g id="10-fog-night" transform="translate(0.000000, -1.000000)">
            <path d="M14.0844,14.4531 C25.9571477,2.58034689 43.8128026,-0.971366852 59.3252994,5.45411762 C74.8377961,11.8796021 84.9522133,27.0168953 84.9522133,43.8075 C84.9522133,60.5981047 74.8377961,75.7353979 59.3252994,82.1608824 C43.8128026,88.5863669 25.9571477,85.0346531 14.0844,73.1619 C6.29910687,65.3766409 1.92537188,54.8175431 1.92537188,43.8075 C1.92537188,32.7974569 6.29910687,22.2383591 14.0844,14.4531" id="Path" fill="#000000" fill-rule="nonzero" opacity="0.02"></path>
            <g id="Group" opacity="0.6" transform="translate(15.000000, 16.000000)">
                <path d="M8.823,8.1917 C19.6565124,-2.64160008 37.2209166,-2.64148534 48.0542875,8.19195627 C58.8876583,19.0253979 58.8876583,36.5898021 48.0542875,47.4232437 C37.2209166,58.2566853 19.6565124,58.2568001 8.823,47.4235 C-2.01049163,36.5899083 -2.01049163,19.0252917 8.823,8.1917" id="Path" fill="#FFFFFF"></path>
                <g opacity="0.85" transform="translate(20.000000, 0.000000)" fill="#D6D6D6" id="Path">
                    <path d="M10.7312,0.176 C-3.21841573,16.1332897 -2.48919626,40.151378 12.4028,55.233 C26.3663147,53.2295869 36.5972868,41.0575514 36.1691929,26.9575464 C35.7410989,12.8575413 24.7905354,1.32860398 10.7312,0.176 Z"></path>
                </g>
            </g>
            <rect id="Rectangle" x="0" y="0.9968" width="96" height="96"></rect>
            <g id="Group" opacity="0.6" transform="translate(18.000000, 20.000000)" fill="#C2C7D1" fill-rule="nonzero">
                <path d="M11.025,5.6074 L2.9176,5.6074 C1.48165968,5.6074 0.317600077,4.44334032 0.317600077,3.0074 C0.317600077,1.57145968 1.48165968,0.4074 2.9176,0.4074 L11.025,0.4074 C12.4609403,0.4074 13.625,1.57145965 13.625,3.0074 C13.625,4.44334035 12.4609403,5.6074 11.025,5.6074 L11.025,5.6074 Z" id="Path"></path>
            </g>
            <g id="Group" opacity="0.6" transform="translate(40.000000, 62.000000)" fill="#C2C7D1" fill-rule="nonzero">
                <path d="M25.5113,5.2075 L2.8092,5.2075 C1.37325965,5.2075 0.2092,4.04344035 0.2092,2.6075 C0.2092,1.17155965 1.37325965,0.0075 2.8092,0.0075 L25.5113,0.0075 C26.9472403,0.0075 28.1113,1.17155965 28.1113,2.6075 C28.1113,4.04344035 26.9472403,5.2075 25.5113,5.2075 Z" id="Path"></path>
            </g>
            <g id="Group" opacity="0.6" transform="translate(21.000000, 72.000000)" fill="#C2C7D1" fill-rule="nonzero">
                <path d="M14.8365,5.6074 L2.6744,5.6074 C1.23845965,5.6074 0.0744,4.44334035 0.0744,3.0074 C0.0744,1.57145965 1.23845965,0.4074 2.6744,0.4074 L14.8365,0.4074 C16.2724403,0.4074 17.4365,1.57145965 17.4365,3.0074 C17.4365,4.44334035 16.2724403,5.6074 14.8365,5.6074 Z" id="Path"></path>
            </g>
            <g id="Group" opacity="0.9" transform="translate(0.000000, 20.000000)" fill="#C2C7D1" fill-rule="nonzero">
                <path d="M68.9176,16.0078 L73.1334,16.0078 C74.5693403,16.0078 75.7334,14.8437403 75.7334,13.4078 C75.7334,11.9718597 74.5693403,10.8078 73.1334,10.8078 L68.9176,10.8078 C67.4816597,10.8078 66.3176,11.9718597 66.3176,13.4078 C66.3176,14.8437403 67.4816597,16.0078 68.9176,16.0078 Z" id="Path"></path>
                <path d="M12.7183,16.0078 L36.6471,16.0078 C38.0830403,16.0078 39.2471,14.8437403 39.2471,13.4078 C39.2471,11.9718597 38.0830403,10.8078 36.6471,10.8078 L12.7183,10.8078 C11.2823597,10.8078 10.1183,11.9718597 10.1183,13.4078 C10.1183,14.8437403 11.2823597,16.0078 12.7183,16.0078 Z" id="Path"></path>
                <path d="M36.8092,5.6074 L46.5424,5.6074 C47.9717775,5.6172 49.1250671,6.77922815 49.1240773,8.20863894 C49.1230875,9.63804973 47.9681897,10.7984796 46.5388,10.8063 L46.5388,10.8563 C45.2212759,11.106436 44.3105376,12.3181427 44.4365544,13.6532673 C44.5625711,14.9883918 45.6839418,16.0082964 47.025,16.0075005 L58.5387,16.0075005 C59.9746403,16.0075005 61.1387,14.8434403 61.1387,13.4075 C61.1387,11.9715597 59.9746403,10.8075 58.5387,10.8075 L57.89,10.8075 L57.89,10.8062 C56.4606079,10.7984102 55.3056843,9.63800163 55.3046671,8.20858864 C55.3036498,6.77917564 56.4569204,5.61712437 57.8863,5.6073 L62.5923,5.6073 C64.0282403,5.60729996 65.1922999,4.44324032 65.1922999,3.0073 C65.1922999,1.57135968 64.0282403,0.4073 62.5923,0.4073 L36.8092,0.4073 C35.3732597,0.4073 34.2092,1.57135965 34.2092,3.0073 C34.2092,4.44324035 35.3732597,5.6073 36.8092,5.6073 L36.8092,5.6074 Z" id="Path"></path>
                <path d="M62.7555,31.6074 L59.19,31.6074 L59.19,31.6063 C57.7544462,31.6079569 56.5893569,30.4455538 56.5877,29.01 C56.5860431,27.5744462 57.7484462,26.4093569 59.184,26.4077 L72.9713,26.4077 C74.4072403,26.4077 75.5713,25.2436403 75.5713,23.8077 C75.5713,22.3717597 74.4072403,21.2077 72.9713,21.2077 L38.2913,21.2077 C36.8553597,21.2077 35.6913,22.3717597 35.6913,23.8077 C35.6913,25.2436403 36.8553597,26.4077 38.2913,26.4077 L41.1084,26.4077 C42.5439538,26.4093569 43.7063569,27.5744462 43.7047,29.01 C43.7030431,30.4455538 42.5379538,31.6079569 41.1024,31.6063 L41.1024,31.6074 L26.4307,31.6074 L26.4307,31.6063 C24.9951463,31.6079844 23.8300346,30.4456037 23.8283501,29.01005 C23.8266657,27.5744963 24.9890463,26.4093845 26.4246,26.4077 L28.2146,26.4077 C29.6505403,26.4077 30.8146,25.2436403 30.8146,23.8077 C30.8146,22.3717597 29.6505403,21.2077 28.2146,21.2077 L7.481,21.2077 C6.04505965,21.2077 4.881,22.3717597 4.881,23.8077 C4.881,25.2436403 6.04505965,26.4077 7.481,26.4077 L9.325,26.4077 C10.2536404,26.4087897 11.1111583,26.9052203 11.5745348,27.7099914 C12.0379114,28.5147624 12.0367487,29.50561 11.5714848,30.3092914 C11.1062209,31.1129728 10.2475404,31.6073897 9.3189,31.6063 L9.3189,31.6074 L2.7555,31.6074 C1.31955965,31.6074 0.1555,32.7714597 0.1555,34.2074 C0.1555,35.6433403 1.31955965,36.8074 2.7555,36.8074 L16.382,36.8074 C17.8113721,36.8176481 18.9642745,37.9800752 18.9627622,39.4094832 C18.96125,40.8388913 17.8058906,41.9988764 16.3765,42.0061 L16.3765,42.0071 L15.7281,42.0071 C14.2921597,42.0071 13.1281,43.1711597 13.1281,44.6071 C13.1281,46.0430403 14.2921597,47.2071 15.7281,47.2071 L32.9181,47.2071 C34.3540403,47.2071 35.5181,46.0430403 35.5181,44.6071 C35.5181,43.1711597 34.3540403,42.0071 32.9181,42.0071 L29.755,42.0071 L29.755,42.0061 C28.3256129,41.9988442 27.170281,40.8388383 27.1687963,39.4094335 C27.1673115,37.9800288 28.3202311,36.8176253 29.7496,36.8074 L62.7555,36.8074 C64.1914403,36.8074 65.3555,35.6433403 65.3555,34.2074 C65.3555,32.7714597 64.1914403,31.6074 62.7555,31.6074 L62.7555,31.6074 Z" id="Path"></path>
                <path d="M84.1607,31.6074 L73.1334,31.6074 C71.6974597,31.6074 70.5334,32.7714597 70.5334,34.2074 C70.5334,35.6433403 71.6974597,36.8074 73.1334,36.8074 L84.1607,36.8074 C85.5966403,36.8074 86.7607,35.6433403 86.7607,34.2074 C86.7607,32.7714597 85.5966403,31.6074 84.1607,31.6074 L84.1607,31.6074 Z" id="Path"></path>
            </g>
        </g>
    </g>
</svg>