<?xml version="1.0" encoding="UTF-8"?>
<svg width="96px" height="96px" viewBox="0 0 96 96" version="1.1" xmlns="http://www.w3.org/2000/svg" xmlns:xlink="http://www.w3.org/1999/xlink">
    <!-- Generator: Sketch 60 (88103) - https://sketch.com -->
    <title>icon / Forecast/Day/Fog</title>
    <desc>Created with Sketch.</desc>
    <g id="icon-/-Forecast/Day/Fog" stroke="none" stroke-width="1" fill="none" fill-rule="evenodd">
        <g id="10-fog">
            <rect id="Rectangle" x="0" y="0" width="96" height="96"></rect>
            <g id="Group" opacity="0.15" transform="translate(1.000000, 1.000000)" fill="#C4CDCA" fill-rule="nonzero">
                <circle id="Oval" cx="42.44" cy="41.81" r="41.51"></circle>
            </g>
            <g id="Group" opacity="0.2" transform="translate(15.000000, 15.000000)" fill="#FFE58D" fill-rule="nonzero">
                <circle id="Oval" cx="28.44" cy="27.81" r="27.74"></circle>
            </g>
            <g id="Group" opacity="0.4" transform="translate(15.000000, 15.000000)" fill="#FFE58D" fill-rule="nonzero">
                <path d="M0.7,27.81 C0.7,12.489621 13.119621,0.07 28.44,0.07 C43.760379,0.07 56.18,12.489621 56.18,27.81 L0.7,27.81 Z" id="Path"></path>
            </g>
            <g id="Group" opacity="0.6" transform="translate(18.000000, 19.000000)" fill="#BAC5D7" fill-rule="nonzero">
                <path d="M11,5.61 L2.9,5.61 C1.46405965,5.61 0.3,4.44594035 0.3,3.01 C0.3,1.57405965 1.46405965,0.41 2.9,0.41 L11,0.41 C12.4359403,0.41 13.6,1.57405965 13.6,3.01 C13.6,4.44594035 12.4359403,5.61 11,5.61 Z" id="Path"></path>
            </g>
            <g id="Group" opacity="0.6" transform="translate(40.000000, 61.000000)" fill="#BAC5D7" fill-rule="nonzero">
                <path d="M25.51,5.21 L2.81,5.21 C1.37405965,5.21 0.21,4.04594035 0.21,2.61 C0.21,1.17405965 1.37405965,0.01 2.81,0.01 L25.51,0.01 C26.9459403,0.01 28.11,1.17405965 28.11,2.61 C28.11,4.04594035 26.9459403,5.21 25.51,5.21 Z" id="Path"></path>
            </g>
            <g id="Group" opacity="0.6" transform="translate(21.000000, 71.000000)" fill="#BAC5D7" fill-rule="nonzero">
                <path d="M14.84,5.61 L2.67,5.61 C1.23405965,5.61 0.07,4.44594035 0.07,3.01 C0.07,1.57405965 1.23405965,0.41 2.67,0.41 L14.84,0.41 C16.2759403,0.41 17.44,1.57405965 17.44,3.01 C17.44,4.44594035 16.2759403,5.61 14.84,5.61 Z" id="Path"></path>
            </g>
            <path d="M68.92,35 L73.13,35 C74.0588906,35 74.9172208,34.5044428 75.3816661,33.7 C75.8461114,32.8955572 75.8461114,31.9044428 75.3816661,31.1 C74.9172208,30.2955572 74.0588906,29.8 73.13,29.8 L68.92,29.8 C67.4840597,29.8 66.32,30.9640597 66.32,32.4 C66.32,33.8359403 67.4840597,35 68.92,35 Z" id="Path" fill="#BAC5D7" fill-rule="nonzero"></path>
            <path d="M12.72,35 L36.65,35 C37.5788906,35 38.4372208,34.5044428 38.9016661,33.7 C39.3661114,32.8955572 39.3661114,31.9044428 38.9016661,31.1 C38.4372208,30.2955572 37.5788906,29.8 36.65,29.8 L12.72,29.8 C11.2840597,29.8 10.12,30.9640597 10.12,32.4 C10.12,33.8359403 11.2840597,35 12.72,35 Z" id="Path" fill="#BAC5D7" fill-rule="nonzero"></path>
            <path d="M36.81,24.61 L46.54,24.61 C47.9759403,24.61 49.14,25.7740597 49.14,27.21 C49.14,28.6459403 47.9759403,29.81 46.54,29.81 L46.54,29.86 C45.2572084,30.1368054 44.3817874,31.3261694 44.4987646,32.6332623 C44.6157418,33.9403552 45.6884422,34.9553738 47,35 L58.54,35 C59.9759403,35 61.14,33.8359403 61.14,32.4 C61.14,30.9640597 59.9759403,29.8 58.54,29.8 L57.89,29.8 C56.4540597,29.8 55.29,28.6359403 55.29,27.2 C55.29,25.7640597 56.4540597,24.6 57.89,24.6 L62.59,24.6 C64.0259403,24.6 65.1899999,23.4359403 65.1899999,22 C65.1899999,20.5640597 64.0259403,19.4 62.59,19.4 L36.81,19.4 C35.3740597,19.4 34.21,20.5640597 34.21,22 C34.21,23.4359403 35.3740597,24.6 36.81,24.6 L36.81,24.61 Z" id="Path" fill="#BAC5D7" fill-rule="nonzero"></path>
            <path d="M62.76,50.61 L59.19,50.61 C57.7540597,50.61 56.59,49.4459403 56.59,48.01 C56.59,46.5740597 57.7540597,45.41 59.19,45.41 L73,45.41 C74.4359403,45.4099999 75.5999999,44.2459403 75.5999999,42.81 C75.5999999,41.3740597 74.4359403,40.21 73,40.21 L38.29,40.21 C36.8540597,40.21 35.6900001,41.3740597 35.6900001,42.81 C35.6900001,44.2459403 36.8540597,45.4099999 38.29,45.41 L41.11,45.41 C42.5459403,45.41 43.71,46.5740597 43.71,48.01 C43.71,49.4459403 42.5459403,50.61 41.11,50.61 L26.43,50.61 C24.9940597,50.61 23.83,49.4459403 23.83,48.01 C23.83,46.5740597 24.9940597,45.41 26.43,45.41 L28.22,45.41 C29.6559403,45.4099999 30.8199999,44.2459403 30.8199999,42.81 C30.8199999,41.3740597 29.6559403,40.21 28.22,40.21 L7.48,40.21 C6.04405969,40.21 4.88000011,41.3740597 4.88000011,42.81 C4.88000011,44.2459403 6.04405969,45.4099999 7.48,45.41 L9.33,45.41 C10.7659403,45.41 11.93,46.5740597 11.93,48.01 C11.93,49.4459403 10.7659403,50.61 9.33,50.61 L2.76,50.61 C1.32405965,50.61 0.16,51.7740597 0.16,53.21 C0.16,54.6459403 1.32405965,55.81 2.76,55.81 L16.38,55.81 C17.8159403,55.81 18.98,56.9740597 18.98,58.41 C18.98,59.8459403 17.8159403,61.01 16.38,61.01 L15.73,61.01 C14.2940597,61.01 13.13,62.1740597 13.13,63.61 C13.13,65.0459403 14.2940597,66.21 15.73,66.21 L32.92,66.21 C34.3559403,66.21 35.52,65.0459403 35.52,63.61 C35.52,62.1740597 34.3559403,61.01 32.92,61.01 L29.75,61.01 C28.3140597,61.01 27.15,59.8459403 27.15,58.41 C27.15,56.9740597 28.3140597,55.81 29.75,55.81 L62.75,55.81 C64.1859403,55.81 65.35,54.6459403 65.35,53.21 C65.35,51.7740597 64.1859403,50.61 62.75,50.61 L62.76,50.61 Z" id="Path" fill="#BAC5D7" fill-rule="nonzero"></path>
            <path d="M84.16,50.61 L73.16,50.61 C71.7240597,50.61 70.56,51.7740597 70.56,53.21 C70.56,54.6459403 71.7240597,55.81 73.16,55.81 L84.16,55.81 C85.5959403,55.81 86.76,54.6459403 86.76,53.21 C86.76,51.7740597 85.5959403,50.61 84.16,50.61 L84.16,50.61 Z" id="Path" fill="#BAC5D7" fill-rule="nonzero"></path>
        </g>
    </g>
</svg>