<?xml version="1.0" encoding="UTF-8"?>
<svg width="96px" height="96px" viewBox="0 0 96 96" version="1.1" xmlns="http://www.w3.org/2000/svg" xmlns:xlink="http://www.w3.org/1999/xlink">
    <!-- Generator: Sketch 60 (88103) - https://sketch.com -->
    <title>icon / Forecast/Night/Frost night</title>
    <desc>Created with Sketch.</desc>
    <g id="icon-/-Forecast/Night/Frost-night" stroke="none" stroke-width="1" fill="none" fill-rule="evenodd">
        <g id="14-frost-night">
            <path d="M62.2062,28.8013 C61.744293,27.4418514 60.2680479,26.71398 58.9084,27.1753 L53.8725,28.8853 L55.2853,26.0187 C55.9030837,24.7335234 55.3704658,23.1905647 54.0914356,22.5601542 C52.8124054,21.9297436 51.2642762,22.4471403 50.6213,23.7199 L46.91,31.25 L40.8087,33.3222 L40.8087,23.2173 L47.1632,16.8633 C47.8199971,16.2063243 48.0764102,15.2488567 47.8358511,14.3515659 C47.595292,13.4542751 46.8943073,12.753481 45.9969511,12.5131659 C45.0995949,12.2728508 44.1421971,12.5295243 43.4854,13.1865 L40.8087,15.8631 L40.8087,10.4839 C40.8251839,9.54428281 40.3333397,8.66889995 39.5222435,8.1942684 C38.7111473,7.71963685 37.7070527,7.71963685 36.8959565,8.1942684 C36.0848603,8.66889995 35.5930161,9.54428281 35.6095,10.4839 L35.6095,15.8625 L32.9337,13.1865 C31.9183797,12.1709036 30.2719964,12.1706797 29.2564,13.186 C28.2408036,14.2013203 28.2405797,15.8477036 29.2559,16.8633 L35.61,23.2172 L35.61,33.3224 L29.51,31.2505 L25.798,23.72 C25.3929209,22.8773133 24.5665651,22.3170215 23.6337945,22.2526097 C22.7010239,22.1881979 21.8054977,22.6295863 21.2884336,23.408595 C20.7713695,24.1876038 20.7124023,25.184255 21.134,26.0188 L22.5468,28.8855 L17.5109,27.1755 C16.1541908,26.7237453 14.687316,27.4523583 14.2275532,28.8063746 C13.7677904,30.160391 14.4877237,31.6315452 15.839,32.0993 L20.8747,33.8093 L18.008,35.2226 C17.167183,35.6287848 16.6087607,36.4546698 16.5450273,37.3862799 C16.481294,38.31789 16.922039,39.21213 17.6997053,39.7290386 C18.4773716,40.2459472 19.4725097,40.3061271 20.3068,39.8867 L27.8373,36.1742 L35.6096,38.8142 L35.6096,56.018 C35.5931161,56.9576172 36.0849603,57.833 36.8960565,58.3076316 C37.7071527,58.7822632 38.7112473,58.7822632 39.5223435,58.3076316 C40.3334397,57.833 40.8252839,56.9576172 40.8088,56.018 L40.8088,38.8141 L48.5817,36.1741 L56.1125,39.8867 C57.3982524,40.5078257 58.9443169,39.9758016 59.5755872,38.6949995 C60.2068575,37.4141974 59.6870718,35.8639755 58.4113,35.2226 L55.5446,33.8094 L60.5803,32.0994 C61.2332788,31.8776744 61.7714262,31.4056236 62.0763451,30.7871028 C62.381264,30.1685819 62.4279746,29.4542622 62.2062,28.8013 L62.2062,28.8013 Z" id="Path" fill="#E0E0E0" fill-rule="nonzero"></path>
            <path d="M72.3244,59.2763 L4.0949,59.2763 C2.65895965,59.2763 1.4949,58.1122403 1.4949,56.6763 C1.4949,55.2403597 2.65895965,54.0763 4.0949,54.0763 L72.3249,54.0763 C73.7608403,54.0763 74.9249,55.2403597 74.9249,56.6763 C74.9249,58.1122403 73.7608403,59.2763 72.3249,59.2763 L72.3244,59.2763 Z" id="Path" fill="#A6A6A6" fill-rule="nonzero"></path>
            <path d="M63.4035,69.6767 L13.0135,69.6767 C11.5775597,69.6767 10.4135,68.5126403 10.4135,67.0767 C10.4135,65.6407597 11.5775597,64.4767 13.0135,64.4767 L63.4035,64.4767 C64.8394403,64.4767 66.0035,65.6407597 66.0035,67.0767 C66.0035,68.5126403 64.8394403,69.6767 63.4035,69.6767 Z" id="Path" fill="#A6A6A6" fill-rule="nonzero"></path>
            <path d="M49.5,80.0766 L26.9191,80.0766 C25.4831597,80.0766 24.3191,78.9125403 24.3191,77.4766 C24.3191,76.0406597 25.4831597,74.8766 26.9191,74.8766 L49.5,74.8766 C50.9359403,74.8766 52.1,76.0406597 52.1,77.4766 C52.1,78.9125403 50.9359403,80.0766 49.5,80.0766 L49.5,80.0766 Z" id="Path" fill="#A6A6A6" fill-rule="nonzero"></path>
            <rect id="Rectangle" x="0" y="0" width="96" height="96"></rect>
        </g>
    </g>
</svg>