<?xml version="1.0" encoding="UTF-8"?>
<svg width="96px" height="96px" viewBox="0 0 96 96" version="1.1" xmlns="http://www.w3.org/2000/svg" xmlns:xlink="http://www.w3.org/1999/xlink">
    <!-- Generator: Sketch 60 (88103) - https://sketch.com -->
    <title>icon / Forecast/Night/Heavy showers night</title>
    <desc>Created with Sketch.</desc>
    <g id="icon-/-Forecast/Night/Heavy-showers-night" stroke="none" stroke-width="1" fill="none" fill-rule="evenodd">
        <g id="18-heavy-showers-night">
            <rect id="Rectangle" x="0" y="0.9847" width="96" height="96"></rect>
            <path d="M21.7141,88.4228 C20.2781597,88.4228 19.1141,87.2587403 19.1141,85.8228 L19.1141,54.5254 C19.0986922,53.5864673 19.5907853,52.7121885 20.4014541,52.2382179 C21.2121229,51.7642473 22.2153771,51.7642473 23.0260459,52.2382179 C23.8367147,52.7121885 24.3288078,53.5864673 24.3134,54.5254 L24.3134,85.8227 C24.3134553,87.2584061 23.149806,88.4224135 21.7141,88.4228 L21.7141,88.4228 Z" id="Path" fill="#5EB4E9" fill-rule="nonzero"></path>
            <path d="M32.092,82.46 C30.6560597,82.46 29.492,81.2959403 29.492,79.86 L29.492,66.9243 C29.4755161,65.9846828 29.9673603,65.1093 30.7784565,64.6346684 C31.5895527,64.1600368 32.5936473,64.1600368 33.4047435,64.6346684 C34.2158397,65.1093 34.7076839,65.9846828 34.6912,66.9243 L34.6912,79.86 C34.6912001,81.295628 33.5276279,82.4595583 32.092,82.46 L32.092,82.46 Z" id="Path" fill="#5EB4E9" fill-rule="nonzero"></path>
            <g id="Group" opacity="0.6" transform="translate(29.000000, 87.000000)" fill="#5EB4E9" fill-rule="nonzero">
                <path d="M3.092,8.7573 C1.65605965,8.7573 0.492,7.59324035 0.492,6.1573 L0.492,3.2383 C0.475516122,2.29868281 0.967360305,1.42329995 1.77845652,0.948668402 C2.58955273,0.474036849 3.59364727,0.474036849 4.40474348,0.948668402 C5.21583969,1.42329995 5.70768388,2.29868281 5.6912,3.2383 L5.6912,6.1572 C5.69125529,7.59286704 4.52766697,8.75685826 3.092,8.7573 Z" id="Path"></path>
            </g>
            <g id="Group" opacity="0.6" transform="translate(39.000000, 51.000000)" fill="#5EB4E9" fill-rule="nonzero">
                <path d="M3.4709,19.4228 C2.03495965,19.4228 0.8709,18.2587403 0.8709,16.8228 L0.8709,3.5254 C0.854416122,2.58578281 1.34626031,1.71039995 2.15735652,1.2357684 C2.96845273,0.761136849 3.97254727,0.761136849 4.78364348,1.2357684 C5.59473969,1.71039995 6.08658388,2.58578281 6.0701,3.5254 L6.0701,16.8227 C6.07015529,18.258367 4.90656697,19.4223583 3.4709,19.4228 Z" id="Path"></path>
            </g>
            <path d="M52.8488,78.6929 C51.4128597,78.6929 50.2488,77.5288403 50.2488,76.0929 L50.2488,54.5254 C50.2323161,53.5857828 50.7241603,52.7104 51.5352565,52.2357684 C52.3463527,51.7611368 53.3504473,51.7611368 54.1615435,52.2357684 C54.9726397,52.7104 55.4644839,53.5857828 55.448,54.5254 L55.448,76.0928 C55.4480553,77.528467 54.284467,78.6924583 52.8488,78.6929 Z" id="Path" fill="#5EB4E9" fill-rule="nonzero"></path>
            <g id="Group" opacity="0.6" transform="translate(50.000000, 83.000000)" fill="#5EB4E9" fill-rule="nonzero">
                <path d="M2.8488,11.7471 C1.41285965,11.7471 0.2488,10.5830403 0.2488,9.1471 L0.2488,3.4712 C0.232316122,2.53158281 0.724160305,1.65619995 1.53525652,1.1815684 C2.34635273,0.706936849 3.35044727,0.706936849 4.16154348,1.1815684 C4.97263969,1.65619995 5.46448388,2.53158281 5.448,3.4712 L5.448,9.147 C5.44805529,10.582667 4.28446697,11.7466583 2.8488,11.7471 L2.8488,11.7471 Z" id="Path"></path>
            </g>
            <g id="Group" opacity="0.6" transform="translate(60.000000, 73.000000)" fill="#5EB4E9" fill-rule="nonzero">
                <path d="M3.2277,19.4765 C1.79175965,19.4765 0.6277,18.3124403 0.6277,16.8765 L0.6277,3.4712 C0.611216122,2.53158281 1.10306031,1.65619995 1.91415652,1.1815684 C2.72525273,0.706936849 3.72934727,0.706936849 4.54044348,1.1815684 C5.35153969,1.65619995 5.84338388,2.53158281 5.8269,3.4712 L5.8269,16.8764 C5.82695529,18.312067 4.66336697,19.4760583 3.2277,19.4765 L3.2277,19.4765 Z" id="Path"></path>
            </g>
            <path d="M63.2277,68.6929 C61.7917597,68.6929 60.6277,67.5288403 60.6277,66.0929 L60.6277,60.4712 C60.6112161,59.5315828 61.1030603,58.6562 61.9141565,58.1815684 C62.7252527,57.7069368 63.7293473,57.7069368 64.5404435,58.1815684 C65.3515397,58.6562 65.8433839,59.5315828 65.8269,60.4712 L65.8269,66.0928 C65.8269553,67.528467 64.663367,68.6924583 63.2277,68.6929 L63.2277,68.6929 Z" id="Path" fill="#5EB4E9" fill-rule="nonzero"></path>
            <g id="Group" opacity="0.6" transform="translate(8.000000, 64.000000)" fill="#5EB4E9" fill-rule="nonzero">
                <path d="M3.3351,9.666 C1.89915965,9.666 0.7351,8.50194035 0.7351,7.066 L0.7351,2.8867 C0.719692199,1.94776731 1.21178526,1.07348845 2.02245407,0.599517895 C2.83312287,0.125547339 3.83637713,0.125547339 4.64704593,0.599517895 C5.45771474,1.07348845 5.9498078,1.94776731 5.9344,2.8867 L5.9344,7.0659 C5.93445527,8.50160608 4.77080603,9.66561346 3.3351,9.666 L3.3351,9.666 Z" id="Path"></path>
            </g>
            <path d="M11.3351,93.72 C9.89915965,93.72 8.7351,92.5559403 8.7351,91.12 L8.7351,81.4443 C8.7196922,80.5053673 9.21178526,79.6310885 10.0224541,79.1571179 C10.8331229,78.6831473 11.8363771,78.6831473 12.6470459,79.1571179 C13.4577147,79.6310885 13.9498078,80.5053673 13.9344,81.4443 L13.9344,91.12 C13.9344001,92.555667 12.770767,93.7196135 11.3351,93.72 L11.3351,93.72 Z" id="Path" fill="#5EB4E9" fill-rule="nonzero"></path>
            <g id="Group" opacity="0.6" transform="translate(39.000000, 75.000000)" fill="#5EB4E9" fill-rule="nonzero">
                <path d="M3.4709,5.9634 C2.03495965,5.9634 0.8709,4.79934035 0.8709,3.3634 L0.8709,3.2008 C0.854416122,2.26118281 1.34626031,1.38579995 2.15735652,0.911168402 C2.96845273,0.436536849 3.97254727,0.436536849 4.78364348,0.911168402 C5.59473969,1.38579995 6.08658388,2.26118281 6.0701,3.2008 L6.0701,3.3634 C6.07010007,4.79902799 4.90652792,5.96295827 3.4709,5.9634 Z" id="Path"></path>
            </g>
            <path d="M42.4709,91.8281 C41.0349597,91.8281 39.8709,90.6640403 39.8709,89.2281 L39.8709,88.7418 C39.8544161,87.8021828 40.3462603,86.9268 41.1573565,86.4521684 C41.9684527,85.9775368 42.9725473,85.9775368 43.7836435,86.4521684 C44.5947397,86.9268 45.0865839,87.8021828 45.0701,88.7418 L45.0701,89.2281 C45.0701001,90.663728 43.9065279,91.8276583 42.4709,91.8281 L42.4709,91.8281 Z" id="Path" fill="#5EB4E9" fill-rule="nonzero"></path>
            <path d="M51.9943,7.2947 C58.6575075,0.631950681 69.4602918,0.632198303 76.1231938,7.29525308 C82.7860959,13.9583079 82.7860959,24.7610921 76.1231938,31.4241469 C69.4602918,38.0872017 58.6575075,38.0874493 51.9943,31.4247 C48.7945212,28.2249337 46.9969032,23.8851117 46.9969032,19.35995 C46.9969032,14.8347883 48.7945212,10.4949663 51.9943,7.2952" id="Path" fill="#FFFFFF"></path>
            <g id="Group" opacity="0.85" transform="translate(59.000000, 2.000000)" fill="#D6D6D6">
                <path d="M6.4689,0.3646 C-2.11077312,10.1791389 -1.66227532,24.9514289 7.497,34.2274 C16.0852269,32.9951691 22.3777481,25.5087765 22.1144542,16.8365962 C21.8511603,8.16441588 15.1160627,1.07355154 6.4689,0.3646 Z" id="Path"></path>
            </g>
            <path d="M71.4348,36.6945 C72.8698058,32.8384035 72.3229422,28.5237695 69.9712765,25.1476193 C67.6196108,21.7714691 63.7620421,19.7629149 59.6476,19.7723 C59.3691,19.7723 59.0966,19.7962 58.8227,19.814 C57.0740183,14.1300072 52.4090003,9.82200908 46.6040419,8.53045174 C40.7990836,7.23889439 34.747572,9.16254938 30.7538672,13.5689066 C26.7601623,17.9752637 25.4388982,24.1861817 27.2932,29.8366 L27.2932,55.4982011 L67.3886,55.4982011 C72.025297,55.5003553 76.0338619,52.2641429 77.0092649,47.731202 C77.9846679,43.1982612 75.6620005,38.5996875 71.4348,36.6945 Z" id="Path" fill="#A6A6A6" fill-rule="nonzero"></path>
            <g id="Group" opacity="0.15" transform="translate(26.000000, 22.000000)" fill="#787878" fill-rule="nonzero">
                <path d="M0.5061,1.91 C0.4941,2.1707 0.4668,2.4274 0.4668,2.691 C0.468178711,4.43899827 0.747118628,6.17568954 1.2932,7.8362 L1.2932,33.4983 L37.6108,33.4983 C39.285,29.1462 39.0617,23.8083 35.2975,17.3134 C24.9464,-0.5479 9.7766,-2.2575 0.5061,1.91 Z" id="Path"></path>
            </g>
            <path d="M60.191,51.1113 C60.1884028,46.5071661 57.0929808,42.4790936 52.6447,41.2913 C53.8090402,38.6649969 53.303144,35.598088 51.3570048,33.4848682 C49.4108655,31.3716484 46.3959046,30.6154264 43.6828,31.56 C41.5269442,23.8932928 34.1077295,18.9395694 26.200246,19.887102 C18.2927624,20.8346346 12.2539685,27.400995 11.9705,35.36 C5.33111484,36.6005048 0.729509041,42.6941309 1.35343605,49.4195307 C1.97736306,56.1449305 7.62142111,61.2880486 14.3757,61.2860006 C14.4995,61.2860006 14.6191,61.2709 14.7421,61.2675 L14.7421,61.2860006 L50.13,61.2860006 L50.13,61.28 C55.7033644,61.2196661 60.1900114,56.6849909 60.191,51.1113 Z" id="Path" fill="#6D6D6D" fill-rule="nonzero"></path>
        </g>
    </g>
</svg>