<?xml version="1.0" encoding="UTF-8"?>
<svg width="96px" height="96px" viewBox="0 0 96 96" version="1.1" xmlns="http://www.w3.org/2000/svg" xmlns:xlink="http://www.w3.org/1999/xlink">
    <!-- Generator: Sketch 60 (88103) - https://sketch.com -->
    <title>icon / Forecast/Day/Light showers</title>
    <desc>Created with Sketch.</desc>
    <g id="icon-/-Forecast/Day/Light-showers" stroke="none" stroke-width="1" fill="none" fill-rule="evenodd">
        <g id="17-light-showers">
            <rect id="Rectangle" x="0" y="0.969896907" width="96" height="95.0103093"></rect>
            <g id="Group" opacity="0.6" transform="translate(25.000000, 56.412371)" fill="#5EB4E9" fill-rule="nonzero">
                <path d="M3.49,32.6598136 C2.05405965,32.6598136 0.89,31.5077348 0.89,30.0865979 L0.89,3.47381443 C0.89,2.05267763 2.05405969,0.900618665 3.49,0.900618665 C4.92594031,0.900618665 6.08999994,2.05267763 6.09,3.47381443 L6.09,30.0668041 C6.09804255,30.7534822 5.82734602,31.4146387 5.33858394,31.9020829 C4.84982185,32.3895272 4.18387222,32.6624914 3.49,32.6598136 L3.49,32.6598136 Z" id="Path"></path>
            </g>
            <path d="M38.87,70.6441429 C37.4340597,70.6441429 36.27,69.4920647 36.27,68.0709278 L36.27,67.9521649 C36.27,66.5310281 37.4340597,65.3789691 38.87,65.3789691 C40.3059403,65.3789691 41.4700194,66.5310281 41.4700194,67.9521649 L41.4700194,68.0709278 C41.4726707,68.7541887 41.1996007,69.410228 40.7114259,69.89337 C40.2232512,70.376512 39.5603782,70.6467669 38.87,70.6441429 Z" id="Path" fill="#5EB4E9" fill-rule="nonzero"></path>
            <path d="M38.87,81.2041429 C37.4340597,81.2041429 36.27,80.0520647 36.27,78.6309278 L36.27,78.3439175 C36.27,76.9227807 37.4340597,75.7707216 38.87,75.7707216 C40.3059403,75.7707216 41.4700194,76.9227807 41.4700194,78.3439175 L41.4700194,78.6309278 C41.4726707,79.3141887 41.1996007,79.970228 40.7114259,80.45337 C40.2232512,80.936512 39.5603782,81.2067669 38.87,81.2041429 Z" id="Path" fill="#5EB4E9" fill-rule="nonzero"></path>
            <g id="Group" opacity="0.6" transform="translate(15.000000, 56.412371)" fill="#5EB4E9" fill-rule="nonzero">
                <path d="M3.12,20.1699161 C2.42962184,20.1725401 1.76674879,19.9022852 1.27857406,19.4191432 C0.790399328,18.9360012 0.517329261,18.2799619 0.519980592,17.596701 L0.519980592,3.47381443 C0.519980592,2.55450007 1.01555717,1.70501856 1.81999998,1.24536137 C2.62444279,0.785704183 3.61555721,0.785704183 4.42000002,1.24536137 C5.22444283,1.70501856 5.72,2.55450007 5.72,3.47381443 L5.72,17.596701 C5.72,19.0178379 4.55594035,20.1699161 3.12,20.1699161 Z" id="Path"></path>
            </g>
            <g id="Group" opacity="0.6" transform="translate(15.000000, 81.154639)" fill="#5EB4E9" fill-rule="nonzero">
                <path d="M3.12,5.70061856 C2.43056117,5.69926034 1.76944854,5.42900722 1.28,4.94845361 C1.03514659,4.70852453 0.841334104,4.42248549 0.71,4.10721649 C0.64825279,3.95360607 0.601375938,3.79454234 0.57,3.63216495 C0.493238038,3.30664178 0.493238038,2.96799739 0.57,2.64247423 C0.601399649,2.47688459 0.6482675,2.31453822 0.71,2.15752577 C0.782166584,2.00506564 0.862274179,1.85641237 0.95,1.71216495 C1.0490463,1.57471067 1.15942345,1.44560975 1.28,1.32618557 C1.89494633,0.723981367 2.77061733,0.461025444 3.62,0.623505155 C3.78877468,0.653293328 3.95329838,0.703138504 4.11,0.771958763 C4.26962718,0.831804215 4.42085641,0.911628303 4.56,1.00948454 C4.70101466,1.10101858 4.83175515,1.20718691 4.95,1.32618557 C5.07057655,1.44560975 5.1809537,1.57471067 5.28,1.71216495 C5.36772582,1.85641237 5.44783342,2.00506564 5.52,2.15752577 C5.5817325,2.31453822 5.62860035,2.47688459 5.66,2.64247423 C5.73676196,2.96799739 5.73676196,3.30664178 5.66,3.63216495 C5.62862406,3.79454234 5.58174721,3.95360607 5.52,4.10721649 C5.40354758,4.41840666 5.22692064,4.7041473 5,4.94845361 C4.50138237,5.43970576 3.82348679,5.71092347 3.12,5.70061856 Z" id="Path"></path>
            </g>
            <ellipse id="Oval" fill="#FFE58D" fill-rule="nonzero" cx="62.04" cy="22.8024742" rx="20.76" ry="20.5459794"></ellipse>
            <path d="M41.2899707,22.7628866 C41.2730183,32.8273014 48.63171,41.4193503 58.6663467,43.0516048 C68.7009834,44.6838593 78.4512473,38.8747879 81.69,29.334433 C72.8,28.0082474 63.38,24.5641237 55.55,17.0028866 C53,14.5484536 50.06,11.5694845 47.07,8.60041237 C43.3662707,12.4044851 41.2947814,17.4801621 41.2899707,22.7628866 Z" id="Path" fill="#FFDF64" fill-rule="nonzero"></path>
            <path d="M74.9100047,48.8610309 C74.9100047,43.1638752 71.0415151,38.1778626 65.48,36.7076289 C66.9450044,33.4591372 66.3165047,29.6594449 63.8813654,27.0428357 C61.446226,24.4262265 57.6714702,23.4945267 54.28,24.6729897 C51.5941936,15.1788818 42.3157941,9.04015635 32.4246614,10.2131765 C22.5335287,11.3861968 14.9832822,19.5206837 14.64,29.3740206 C6.32273747,30.8891183 0.547938213,38.4347726 1.32741777,46.7689358 C2.10689732,55.103099 9.18305175,61.4714806 17.64,61.4499516 L18.09,61.4499516 L18.09,61.4499516 L62.34,61.4499516 C69.308703,61.3739262 74.9159059,55.7583076 74.9100047,48.8610309 Z" id="Path" fill="#C8C8C8" fill-rule="nonzero"></path>
            <path d="M81.41,46.5154639 C80.2955356,46.5183102 79.1897094,46.7090817 78.14,47.0795876 C76.6984187,40.4577735 70.4367257,35.9827107 63.6320897,36.7111762 C56.8274537,37.4396416 51.6774989,43.1363703 51.7,49.9101031 C51.7,50.0981443 51.7,50.2762887 51.7,50.4643299 C51.369009,50.4143023 51.0348176,50.3878427 50.7,50.3851546 C46.3148591,50.3851546 42.76,53.9033657 42.76,58.243299 C42.76,62.5832322 46.3148591,66.1014433 50.7,66.1014433 C51.08823,66.0971397 51.4757453,66.0673838 51.86,66.0123711 L51.86,66.1014433 L81.41,66.1014433 C86.8665733,66.1014433 91.29,61.723619 91.29,56.323299 C91.29,50.922979 86.8665733,46.5451546 81.41,46.5451546 L81.41,46.5154639 Z" id="Path" fill="#DCDCDC"></path>
        </g>
    </g>
</svg>