<?xml version="1.0" encoding="UTF-8"?>
<svg width="96px" height="96px" viewBox="0 0 96 96" version="1.1" xmlns="http://www.w3.org/2000/svg" xmlns:xlink="http://www.w3.org/1999/xlink">
    <!-- Generator: Sketch 60 (88103) - https://sketch.com -->
    <title>icon / Forecast/Night/Light rain night</title>
    <desc>Created with Sketch.</desc>
    <g id="icon-/-Forecast/Night/Light-rain-night" stroke="none" stroke-width="1" fill="none" fill-rule="evenodd">
        <g id="08-light-rain-night">
            <rect id="Rectangle" x="0" y="0" width="96" height="96"></rect>
            <path d="M29.2418,85.2217 C27.8058597,85.2217 26.6418,84.0576403 26.6418,82.6217 L26.6418,58.9458 C26.6253161,58.0061828 27.1171603,57.1308 27.9282565,56.6561684 C28.7393527,56.1815368 29.7434473,56.1815368 30.5545435,56.6561684 C31.3656397,57.1308 31.8574839,58.0061828 31.841,58.9458 L31.841,82.6216 C31.8410553,84.057267 30.677467,85.2212583 29.2418,85.2217 L29.2418,85.2217 Z" id="Path" fill="#5EB4E9" fill-rule="nonzero"></path>
            <g id="Group" opacity="0.6" transform="translate(37.000000, 63.000000)" fill="#5EB4E9" fill-rule="nonzero">
                <path d="M2.6207,15.8808 C1.93113713,15.8808 1.26981695,15.6068722 0.782222369,15.1192776 C0.294627785,14.631683 0.0207,13.9703629 0.0207,13.2808 L0.0207,3.1181 C0.00421612218,2.17848281 0.496060305,1.30309995 1.30715652,0.828468402 C2.11825273,0.353836849 3.12234727,0.353836849 3.93344348,0.828468402 C4.74453969,1.30309995 5.23638388,2.17848281 5.2199,3.1181 L5.2199,13.2807 C5.21995529,14.716367 4.05636697,15.8803583 2.6207,15.8808 L2.6207,15.8808 Z" id="Path"></path>
            </g>
            <g id="Group" opacity="0.6" transform="translate(16.000000, 55.000000)" fill="#5EB4E9" fill-rule="nonzero">
                <path d="M2.8639,19.7724 C2.17433713,19.7724 1.51301695,19.4984722 1.02542237,19.0108776 C0.537827785,18.523283 0.2639,17.8619629 0.2639,17.1724 L0.2639,3.3345 C0.248492199,2.39556731 0.740585259,1.52128845 1.55125407,1.04731789 C2.36192287,0.573347339 3.36517713,0.573347339 4.17584593,1.04731789 C4.98651474,1.52128845 5.4786078,2.39556731 5.4632,3.3345 L5.4632,17.1723 C5.46325527,18.6080061 4.29960603,19.7720135 2.8639,19.7724 L2.8639,19.7724 Z" id="Path"></path>
            </g>
            <g id="Group" opacity="0.6" transform="translate(16.000000, 79.000000)" fill="#5EB4E9" fill-rule="nonzero">
                <path d="M2.8639,6.17770859 C1.42603234,6.18135255 0.256752936,5.02001817 0.250577821,3.58215903 C0.244451431,2.14429989 1.40375251,0.973004501 2.8415988,0.964307403 C4.27944508,0.955706635 5.45275291,2.11297091 5.4639,3.5508 L5.4639,3.5776 C5.4639,4.2671802 5.19001045,4.92852606 4.70241299,5.41614228 C4.21481553,5.90375849 3.5534802,6.17770859 2.8639,6.17770859 Z" id="Path"></path>
            </g>
            <path d="M74.9144,47.5829 C74.9109484,41.8279249 71.0416863,36.7931138 65.4815,35.3085 C66.9373151,32.0256111 66.3051167,28.1917196 63.8723571,25.5500463 C61.4395976,22.9083729 57.6706476,21.9631665 54.2792,23.1442 C51.5840941,13.5613468 42.3104563,7.36965302 32.4265189,8.5539053 C22.5425815,9.73815759 14.9941643,17.9454 14.6392,27.8937 C6.33973881,29.4440897 0.587453498,37.0612285 1.36737903,45.468159 C2.14730455,53.8750895 9.20266997,60.3040403 17.6457,60.3012009 C17.8004,60.3012009 17.9499,60.2823 18.1037,60.2781 L18.1037,60.3012009 L62.3385,60.3012009 L62.3385,60.294 C69.3051505,60.2183778 74.9132761,54.5499608 74.9144,47.5829 L74.9144,47.5829 Z" id="Path" fill="#A6A6A6" fill-rule="nonzero"></path>
        </g>
    </g>
</svg>