<?xml version="1.0" encoding="UTF-8"?>
<svg width="96px" height="96px" viewBox="0 0 96 96" version="1.1" xmlns="http://www.w3.org/2000/svg" xmlns:xlink="http://www.w3.org/1999/xlink">
    <!-- Generator: Sketch 60 (88103) - https://sketch.com -->
    <title>icon / Forecast/Day/Light rain</title>
    <desc>Created with Sketch.</desc>
    <g id="icon-/-Forecast/Day/Light-rain" stroke="none" stroke-width="1" fill="none" fill-rule="evenodd">
        <g id="08-light-rain">
            <rect id="Rectangle" x="0" y="0" width="96" height="96"></rect>
            <path d="M29.24,85.2200194 C27.8040597,85.2200194 26.64,84.0559403 26.64,82.62 L26.64,59 C26.64,57.5640597 27.8040597,56.4 29.24,56.4 C30.6759403,56.4 31.8400194,57.5640597 31.8400194,59 L31.8400194,82.62 C31.8426707,83.3103782 31.5696007,83.9732512 31.0814259,84.4614259 C30.5932512,84.9496007 29.9303782,85.2226707 29.24,85.2200194 L29.24,85.2200194 Z" id="Path" fill="#5EB4E9" fill-rule="nonzero"></path>
            <g id="Group" opacity="0.6" transform="translate(37.000000, 63.000000)" fill="#5EB4E9" fill-rule="nonzero">
                <path d="M2.62,15.8800194 C1.18405965,15.8800194 0.02,14.7159403 0.02,13.28 L0.02,3.12 C0.02,1.68405965 1.18405965,0.52 2.62,0.52 C4.05594035,0.52 5.22001941,1.68405965 5.22001941,3.12 L5.22001941,13.28 C5.22267074,13.9703782 4.94960067,14.6332512 4.46142594,15.1214259 C3.97325121,15.6096007 3.31037816,15.8826707 2.62,15.8800194 L2.62,15.8800194 Z" id="Path"></path>
            </g>
            <g id="Group" opacity="0.6" transform="translate(16.000000, 55.000000)" fill="#5EB4E9" fill-rule="nonzero">
                <path d="M2.86,19.7700194 C1.42405965,19.7700194 0.26,18.6059403 0.26,17.17 L0.26,3.33 C0.26,1.89405965 1.42405965,0.73 2.86,0.73 C4.29594035,0.73 5.46001941,1.89405965 5.46001941,3.33 L5.46001941,17.17 C5.46267074,17.8603782 5.18960067,18.5232512 4.70142594,19.0114259 C4.21325121,19.4996007 3.55037816,19.7726707 2.86,19.7700194 L2.86,19.7700194 Z" id="Path"></path>
            </g>
            <g id="Group" opacity="0.6" transform="translate(16.000000, 79.000000)" fill="#5EB4E9" fill-rule="nonzero">
                <path d="M2.86,6.18001927 C1.41986126,6.18547545 0.247442927,5.02343781 0.240076048,3.58330733 C0.232778278,2.14317684 1.39330326,0.969261183 2.8334231,0.960071996 C4.27354293,0.950882808 5.44895397,2.10989321 5.46,3.55 L5.46,3.55 C5.46801684,4.24474607 5.19763226,4.91379945 4.70916606,5.4079018 C4.22069985,5.90200416 3.55479232,6.18001927 2.86,6.18001927 Z" id="Path"></path>
            </g>
            <path d="M74.9100172,47.58 C74.9057074,41.8272172 71.0379247,36.7945879 65.48,35.31 C66.6884534,32.5025685 66.4033709,29.2755247 64.7214484,26.7234338 C63.0395258,24.1713429 60.1864719,22.6366876 57.13,22.64 C56.1592506,22.6518623 55.1968149,22.8207107 54.28,23.14 C51.5941936,13.5469951 42.3157941,7.34432464 32.4246614,8.5295638 C22.5335287,9.71480297 14.9832822,17.9340241 14.64,27.89 C6.32273747,29.4208799 0.547938213,37.0451348 1.32741777,45.4661122 C2.10689732,53.8870896 9.18305175,60.3218085 17.64,60.3000553 L18.09,60.3000553 L18.09,60.3000553 L62.34,60.3000553 C69.3109969,60.2286488 74.9213437,54.5513528 74.9100172,47.58 Z" id="Path" fill="#C8C8C8" fill-rule="nonzero"></path>
        </g>
    </g>
</svg>