<?xml version="1.0" encoding="UTF-8"?>
<svg width="96px" height="96px" viewBox="0 0 96 96" version="1.1" xmlns="http://www.w3.org/2000/svg" xmlns:xlink="http://www.w3.org/1999/xlink">
    <!-- Generator: Sketch 60 (88103) - https://sketch.com -->
    <title>icon / Forecast/Night/Light showers night</title>
    <desc>Created with Sketch.</desc>
    <g id="icon-/-Forecast/Night/Light-showers-night" stroke="none" stroke-width="1" fill="none" fill-rule="evenodd">
        <g id="17-light-showers-night">
            <path d="M47.3654,8.3768 C55.4714054,0.27097951 68.6136715,0.271079431 76.7195536,8.37702318 C84.8254358,16.4829669 84.8254358,29.6252331 76.7195536,37.7311768 C68.6136715,45.8371206 55.4714054,45.8372205 47.3654,37.7314 C39.259386,29.6253366 39.259386,16.4828634 47.3654,8.3768" id="Path" fill="#FFFFFF"></path>
            <g id="Group" opacity="0.85" transform="translate(56.000000, 2.000000)" fill="#D6D6D6">
                <path d="M7.7579,0.3792 C-2.67971428,12.3189959 -2.13410833,30.2901835 9.0086,41.5748 C19.4564922,40.0756646 27.1115418,30.968169 26.7912423,20.4181326 C26.4709427,9.86809634 18.2774934,1.2417617 7.7579,0.3792 Z" id="Path"></path>
            </g>
            <rect id="Rectangle" x="0" y="0.9847" width="96" height="96"></rect>
            <g id="Group" opacity="0.6" transform="translate(25.000000, 57.000000)" fill="#5EB4E9" fill-rule="nonzero">
                <path d="M3.4945,32.9805 C2.05855965,32.9805 0.8945,31.8164403 0.8945,30.3805 L0.8945,3.5137 C0.878016122,2.57408281 1.36986031,1.69869995 2.18095652,1.2240684 C2.99205273,0.749436849 3.99614727,0.749436849 4.80724348,1.2240684 C5.61833969,1.69869995 6.11018388,2.57408281 6.0937,3.5137 L6.0937,30.38 C6.09397619,31.8158232 4.93032319,32.9800582 3.4945,32.9805 L3.4945,32.9805 Z" id="Path"></path>
            </g>
            <path d="M38.8725,71.3843 C37.4365597,71.3843 36.2725,70.2202403 36.2725,68.7843 L36.2725,68.6593 C36.2570922,67.7203673 36.7491853,66.8460885 37.5598541,66.3721179 C38.3705229,65.8981473 39.3737771,65.8981473 40.1844459,66.3721179 C40.9951147,66.8460885 41.4872078,67.7203673 41.4718,68.6593 L41.4718,68.7843 C41.4718001,70.219967 40.308167,71.3839135 38.8725,71.3843 Z" id="Path" fill="#5EB4E9" fill-rule="nonzero"></path>
            <path d="M38.8725,82.0493 C37.4365597,82.0493 36.2725,80.8852403 36.2725,79.4493 L36.2725,79.1627 C36.2570922,78.2237673 36.7491853,77.3494885 37.5598541,76.8755179 C38.3705229,76.4015473 39.3737771,76.4015473 40.1844459,76.8755179 C40.9951147,77.3494885 41.4872078,78.2237673 41.4718,79.1627 L41.4718,79.4493 C41.4718001,80.884967 40.308167,82.0489135 38.8725,82.0493 Z" id="Path" fill="#5EB4E9" fill-rule="nonzero"></path>
            <g id="Group" opacity="0.6" transform="translate(15.000000, 57.000000)" fill="#5EB4E9" fill-rule="nonzero">
                <path d="M3.1156,20.3843 C1.67965965,20.3843 0.5156,19.2202403 0.5156,17.7843 L0.5156,3.5143 C0.499116122,2.57468281 0.990960305,1.69929995 1.80205652,1.2246684 C2.61315273,0.750036849 3.61724727,0.750036849 4.42834348,1.2246684 C5.23943969,1.69929995 5.73128388,2.57468281 5.7148,3.5143 L5.7148,17.7843 C5.71480007,19.219928 4.55122792,20.3838583 3.1156,20.3843 Z" id="Path"></path>
            </g>
            <g id="Group" opacity="0.6" transform="translate(15.000000, 82.000000)" fill="#5EB4E9" fill-rule="nonzero">
                <path d="M3.12,5.7578 C2.42958769,5.76135485 1.76666117,5.48753738 1.28,4.9978 C1.1592788,4.87726493 1.04889108,4.74680671 0.95,4.6078 C0.858369136,4.46429887 0.778123538,4.31383837 0.71,4.1578 C0.648582664,3.99904609 0.601723197,3.83503795 0.57,3.6678 C0.530403208,3.50068199 0.510269415,3.32954476 0.51,3.1578 C0.510220104,2.98935086 0.530359958,2.82151875 0.57,2.6578 C0.601643198,2.49054308 0.648504721,2.32652775 0.71,2.1678 C0.778123538,2.01176163 0.858369136,1.86130113 0.95,1.7178 C1.04888624,1.57878953 1.1592743,1.44833092 1.28,1.3278 C2.31115104,0.358051568 3.91884896,0.358051568 4.95,1.3278 C5.07044332,1.44859067 5.18081086,1.57902503 5.28,1.7178 C5.37163086,1.86130113 5.45187646,2.01176163 5.52,2.1678 C5.58149528,2.32652775 5.6283568,2.49054308 5.66,2.6578 C5.69948548,2.82153639 5.7195,2.98936988 5.7195,3.1578 C5.71940876,3.32952618 5.69944259,3.50066481 5.66,3.6678 C5.6282768,3.83503795 5.58141734,3.99904609 5.52,4.1578 C5.45187646,4.31383837 5.37163086,4.46429887 5.28,4.6078 C5.18080733,4.74657223 5.07044003,4.87700631 4.95,4.9978 C4.82938141,5.11843046 4.69893105,5.22881153 4.56,5.3278 C4.41652611,5.41947745 4.26606188,5.49972504 4.11,5.5678 C3.95129404,5.62936015 3.78727269,5.6762234 3.62,5.7078 C3.45594004,5.74444832 3.28806834,5.76123549 3.12,5.7578 L3.12,5.7578 Z" id="Path"></path>
            </g>
            <path d="M74.9144,49.3669 C74.9110179,43.6119013 71.0417271,38.5770527 65.4815,37.0925 C66.9375188,33.8096054 66.3053989,29.9755791 63.8725798,27.3338412 C61.4397608,24.6921032 57.6706701,23.746964 54.2792,24.9282 C51.5840466,15.3452843 42.3102804,9.15360759 32.4262853,10.3379915 C22.5422901,11.5223753 14.9939483,19.7298193 14.6392,29.6782 C6.33973881,31.2285897 0.587453498,38.8457285 1.36737903,47.252659 C2.14730455,55.6595895 9.20266997,62.0885403 17.6457,62.0857009 C17.8004,62.0857009 17.9499,62.0668 18.1037,62.0626 L18.1037,62.0857009 L62.3385,62.0857009 L62.3385,62.078 C69.3051277,62.0023238 74.9132219,56.3339386 74.9144,49.3669 Z" id="Path" fill="#A6A6A6" fill-rule="nonzero"></path>
            <path d="M74.9144,49.3669 C74.9110179,43.6119013 71.0417271,38.5770527 65.4815,37.0925 C66.9375188,33.8096054 66.3053989,29.9755791 63.8725798,27.3338412 C61.4397608,24.6921032 57.6706701,23.746964 54.2792,24.9282 C51.5840466,15.3452843 42.3102804,9.15360759 32.4262853,10.3379915 C22.5422901,11.5223753 14.9939483,19.7298193 14.6392,29.6782 C6.33973881,31.2285897 0.587453498,38.8457285 1.36737903,47.252659 C2.14730455,55.6595895 9.20266997,62.0885403 17.6457,62.0857009 C17.8004,62.0857009 17.9499,62.0668 18.1037,62.0626 L18.1037,62.0857009 L62.3385,62.0857009 L62.3385,62.078 C69.3051277,62.0023238 74.9132219,56.3339386 74.9144,49.3669 Z" id="Path" fill="#A6A6A6" fill-rule="nonzero"></path>
            <path d="M81.41,47.0332 C80.2958168,47.0352766 79.1900841,47.2266326 78.14,47.5991 C76.6917631,40.9218827 70.44212,36.410909 63.6485821,37.1392378 C56.8550442,37.8675666 51.7036763,43.6008319 51.7038,50.4333 C51.7038,50.6199 51.7238,50.8013 51.7316,50.9861 C48.6467744,50.5587581 45.5969801,51.9744754 43.9323287,54.6065289 C42.2676773,57.2385823 42.29563,60.6008316 44.0038125,63.2048443 C45.7119951,65.808857 48.7849059,67.173672 51.8622,66.6951 L51.8622,66.7892 L81.41,66.7892 C86.8654688,66.7892 91.288,62.3666688 91.288,56.9112 C91.288,51.4557312 86.8654688,47.0332 81.41,47.0332 L81.41,47.0332 Z" id="Path" fill="#C9C9C9" fill-rule="nonzero"></path>
        </g>
    </g>
</svg>