<?xml version="1.0" encoding="UTF-8"?>
<svg width="96px" height="96px" viewBox="0 0 96 96" version="1.1" xmlns="http://www.w3.org/2000/svg" xmlns:xlink="http://www.w3.org/1999/xlink">
    <!-- Generator: Sketch 62 (91390) - https://sketch.com -->
    <title>icon / Forecast/Day/Missing</title>
    <desc>Created with Sketch.</desc>
    <g id="icon-/-Forecast/Day/Missing" stroke="none" stroke-width="1" fill="none" fill-rule="evenodd">
        <g id="00_missing_data">
            <path d="M76.9700346,47.6162739 C77.5430128,46.2910773 77.8379628,44.8610341 77.8364048,43.4157415 C77.8827796,39.9718911 76.2558564,36.7222099 73.4784969,34.7110826 C70.7011373,32.6999552 67.1232933,32.1807869 63.8948147,33.3204285 C60.7475253,22.055909 49.9189289,14.7778743 38.3779057,16.1701954 C26.8368825,17.5625166 18.0230814,27.2102309 17.6087356,38.9044298 C7.90322173,40.7127555 1.16980713,49.6745167 2.08277882,59.5685244 C2.99575051,69.4625321 11.2536951,77.0223251 21.124008,77 C21.303257,77 21.4725477,77 21.6517967,77 L21.6517967,77 L73.3053881,77 C80.7298614,76.9272702 86.9580143,71.3410879 87.8832826,63.9246813 C88.8085509,56.5082746 84.1460548,49.5450732 76.9700346,47.626299 L76.9700346,47.6162739 Z" id="Path" fill="#FFFFFF" fill-rule="nonzero" opacity="0.1"></path>
            <path d="M81.4346728,49.0335558 C81.2215436,49.4852476 80.7645835,49.7750992 80.2608107,49.7781412 C80.0705213,49.7766556 79.8826165,49.7360881 79.7089952,49.6590076 C78.9937662,49.3222318 78.2480183,49.0529877 77.4816672,48.8548553 C77.1172685,48.7555305 76.8137218,48.5057793 76.6485404,48.1693777 C76.483359,47.8329761 76.4725336,47.4424901 76.6188284,47.0976336 C76.9187781,46.4047188 77.1310788,45.677794 77.250908,44.9333719 C77.3737834,44.2300772 78.0428371,43.7534096 78.7558594,43.8611688 C79.0981443,43.9170706 79.4038204,44.105601 79.605283,44.3850638 C79.8067456,44.6645265 79.8873939,45.0118936 79.8293913,45.3503397 C79.7477234,45.8329393 79.6371657,46.3103142 79.498302,46.7799438 C79.9497875,46.9387887 80.3812069,47.1174892 80.8126262,47.3160453 C81.4634724,47.6205574 81.7418918,48.3892912 81.4346728,49.0335558 L81.4346728,49.0335558 Z M76.137244,38.8476267 C76.3699434,39.2505502 76.8019875,39.5002485 77.270974,39.5028619 C77.4989777,39.4998175 77.7228046,39.441892 77.9231196,39.3340892 C78.5449705,38.9792772 78.7601992,38.1939435 78.404704,37.5768676 C77.5143472,35.9975444 76.2723132,34.6395219 74.7727547,33.6057451 C74.17615,33.2072022 73.3665582,33.3576856 72.9567801,33.9432905 C72.5550236,34.5305334 72.7073523,35.328523 73.2979024,35.7302956 C74.4712535,36.5426249 75.4422496,37.6086876 76.137244,38.8476267 L76.137244,38.8476267 Z M67.1075357,31.6102561 C66.581096,31.6605861 66.058357,31.74348 65.5423863,31.8584512 C65.3918911,31.4117 65.22133,30.9649487 65.0407358,30.5281252 C64.7636819,29.8674267 63.9978076,29.5540662 63.3301078,29.8282149 C62.6624079,30.1023637 62.3457267,30.8602073 62.6227806,31.5209058 C62.9335642,32.2732299 63.2015306,33.0421839 63.4254213,33.8241569 C63.5256818,34.1620999 63.756348,34.4474093 64.0675339,34.6183813 C64.2563136,34.7164013 64.4663566,34.7675097 64.6795475,34.7672984 C64.8198119,34.7692906 64.95925,34.7457337 65.0909008,34.6978038 C65.8199462,34.4553364 66.5735273,34.2922191 67.3382949,34.2113413 C68.0399895,34.1233425 68.5429279,33.4979585 68.4720249,32.8015928 C68.4030776,32.0915681 67.7767122,31.5640809 67.0573706,31.6102561 L67.1075357,31.6102561 Z M36.2159004,16.9171031 C36.0124419,16.2354369 35.2902827,15.8448553 34.6005859,16.0434561 C32.7781474,16.5806139 31.0242159,17.3234652 29.3733881,18.2573569 C28.9341071,18.4674531 28.6500598,18.9025843 28.6371477,19.3852016 C28.6242356,19.8678188 28.884618,20.3172121 29.3120496,20.5500128 C29.7394812,20.7828136 30.262481,20.7600897 30.6676463,20.4911133 C32.1455503,19.6571134 33.713961,18.9910341 35.3430286,18.505552 C36.0228178,18.2999026 36.4110021,17.5934862 36.2159004,16.9171031 L36.2159004,16.9171031 Z M58.5594119,25.1075431 C58.7890859,25.3650648 59.1130226,25.5213765 59.4595071,25.541873 C59.8059916,25.5623696 60.1464412,25.4453602 60.4054856,25.216749 C60.6651125,24.9912291 60.8228477,24.6723605 60.8435762,24.3311298 C60.8643047,23.989899 60.7463059,23.65463 60.5158487,23.3999605 C59.2587791,21.9899203 57.8452532,20.7244261 56.3019848,19.6273941 C55.7146305,19.210688 54.8970991,19.344033 54.4759772,19.9252284 C54.0548553,20.5064238 54.1896132,21.3153828 54.7769674,21.732089 C56.1633715,22.7037437 57.432491,23.829644 58.5594119,25.0876875 L58.5594119,25.1075431 Z M42.9079175,17.6120495 C44.6059105,17.700722 46.288546,17.9771106 47.9244221,18.4360574 C48.0443757,18.4505023 48.1656568,18.4505023 48.2856104,18.4360574 C48.9126654,18.4087575 49.4311431,17.9433899 49.519564,17.3285034 C49.6079849,16.7136169 49.2412699,16.1236138 48.6467988,15.9243225 C46.8187213,15.4072182 44.9371526,15.0974668 43.0383466,15.0010365 C42.319749,14.9728884 41.711723,15.5214519 41.6738574,16.2320845 C41.6463062,16.5784682 41.7621687,16.9210626 41.9948636,17.1812694 C42.2275585,17.4414762 42.557112,17.59696 42.9079175,17.6120495 Z M20.1329866,29.9523125 C20.770666,30.2819648 21.5576877,30.0430243 21.8987963,29.4162109 C22.6971848,27.9267142 23.6631394,26.531275 24.7782699,25.2564602 C25.2492615,24.7081626 25.1818825,23.885869 24.6277747,23.4198161 C24.073667,22.9537632 23.2426597,23.0204356 22.7716681,23.5687332 C21.5292282,24.9901875 20.4522735,26.5453882 19.5611051,28.2050186 C19.2325157,28.843872 19.4882947,29.6253643 20.1329866,29.9523125 L20.1329866,29.9523125 Z M19.3002469,39.0163994 C19.3289892,38.2055507 19.4026754,37.3968735 19.5209731,36.5940148 C19.5840958,35.9100996 19.0949047,35.297053 18.4079486,35.1991898 C17.7209924,35.1013265 17.0769012,35.5529265 16.9424897,36.2266859 C16.8622257,36.7826431 16.7919946,37.348528 16.7518626,37.914413 C16.1766367,38.0534022 15.6147882,38.2122471 15.066317,38.3909477 C14.4483773,38.5831834 14.0666464,39.1950395 14.1698698,39.8278155 C14.2730932,40.4605914 14.8299891,40.9225257 15.4776704,40.9126104 C15.6173458,40.9080819 15.7557421,40.884701 15.8890238,40.8431158 C16.6564097,40.5899787 17.4409461,40.3909248 18.2367479,40.2474474 C18.8397066,40.1356378 19.2824298,39.6231658 19.3002469,39.0163994 L19.3002469,39.0163994 Z M3.60862051,57.6707471 C3.60862051,57.4026963 3.60862051,57.1445734 3.60862051,56.8864504 C3.62772218,56.5450265 3.50804539,56.2102223 3.27624703,55.9566123 C3.04444867,55.7030024 2.71978086,55.5516505 2.37456038,55.5362688 C1.65212984,55.5025106 1.0378792,56.052645 1.00003812,56.7673167 C1.00003812,57.0651509 1.00003812,57.3629851 1.00003812,57.6707471 C0.996623759,59.4131489 1.22259536,61.1485685 1.67224973,62.8332063 C1.80714559,63.4118098 2.32629155,63.8227717 2.92637588,63.8259869 C3.03624608,63.8405832 3.14759499,63.8405832 3.25746519,63.8259869 C3.59310737,63.7396845 3.88019791,63.5246703 4.05528578,63.2284653 C4.23037365,62.9322604 4.27904222,62.5792541 4.19053504,62.2474657 C3.79439928,60.7537783 3.59874626,59.2149804 3.60862051,57.6707471 L3.60862051,57.6707471 Z M12.0363482,72.7014455 C10.4975907,71.7488856 9.11113775,70.5743924 7.92281446,69.2167856 C7.45182283,68.668488 6.62081556,68.6018155 6.06670776,69.0678685 C5.51259996,69.5339214 5.445221,70.356215 5.91621262,70.9045126 C7.26653066,72.4470262 8.83841004,73.7850023 10.5815619,74.8756351 C10.7934844,75.0028313 11.0360282,75.0714029 11.2838725,75.0741912 C11.7320337,75.0717176 12.1480314,74.8434469 12.3875036,74.468595 C12.7737822,73.882719 12.6180442,73.0989852 12.0363482,72.7014455 L12.0363482,72.7014455 Z M9.02644547,44.9830109 C9.54453626,44.4840601 9.55576609,43.6639889 9.051528,43.1513307 C8.5472899,42.6386724 7.71852859,42.6275604 7.2004378,43.1265112 C5.7180716,44.5523349 4.46302655,46.1925604 3.47819139,47.9911362 C3.31186023,48.2920844 3.27448558,48.6464785 3.37444045,48.9749237 C3.47439532,49.3033688 3.70332444,49.5784101 4.00994088,49.73843 C4.19983534,49.8439219 4.4142179,49.8986663 4.63198745,49.8973088 C5.11058637,49.9007227 5.55141399,49.6405301 5.77575049,49.2221841 C6.63647043,47.6546164 7.73250108,46.2253025 9.02644547,44.9830109 L9.02644547,44.9830109 Z M24.6779398,75.4117366 L22.3402487,75.4117366 C22.2371453,75.3965093 22.1323288,75.3965093 22.0292254,75.4117366 L21.7483011,75.4117366 C21.0344038,75.4381228 20.3195291,75.4049125 19.6112702,75.3124585 C18.8937006,75.2356969 18.2491084,75.7490747 18.1715334,76.4591201 C18.0939583,77.1691655 18.6127763,77.8069986 19.3303459,77.8837603 C20.1752194,77.9907626 21.0279704,78.0239835 21.8787302,77.9830384 L22.0693574,77.9830384 L24.6779398,77.9830384 C25.39828,77.9830384 25.982231,77.4052104 25.982231,76.6924236 C25.982231,75.9796367 25.39828,75.4018088 24.6779398,75.4018088 L24.6779398,75.4117366 Z M37.7208518,75.4117366 L32.483621,75.4117366 C31.7632809,75.4117366 31.1793299,75.9895646 31.1793299,76.7023514 C31.1793299,77.4151382 31.7632809,77.9929662 32.483621,77.9929662 L37.6807197,77.9929662 C38.4010598,77.9929662 38.9850108,77.4151382 38.9850108,76.7023514 C38.9850108,75.9895646 38.4010598,75.4117366 37.6807197,75.4117366 L37.7208518,75.4117366 Z M63.7364446,75.4117366 L58.4992138,75.4117366 C57.7788737,75.4117366 57.1949227,75.9895646 57.1949227,76.7023514 C57.1949227,77.4151382 57.7788737,77.9929662 58.4992138,77.9929662 L63.6963126,77.9929662 C64.162291,77.9929662 64.5928728,77.7469764 64.825862,77.3476588 C65.0588512,76.9483412 65.0588512,76.4563616 64.825862,76.0570439 C64.5928728,75.6577263 64.162291,75.4117366 63.6963126,75.4117366 L63.7364446,75.4117366 Z M50.6935327,75.4117366 L45.4864009,75.4117366 C44.7660608,75.4117366 44.1821098,75.9895646 44.1821098,76.7023514 C44.1821098,77.4151382 44.7660608,77.9929662 45.4864009,77.9929662 L50.6935327,77.9929662 C51.4138727,77.9929662 51.9978237,77.4151382 51.9978237,76.7023514 C51.9978237,75.9895646 51.4138727,75.4117366 50.6935327,75.4117366 L50.6935327,75.4117366 Z M76.4583003,75.1734692 C75.6767862,75.3143133 74.8848008,75.3906889 74.0905101,75.4018088 L71.5019937,75.4018088 C70.7816536,75.4018088 70.1977026,75.9796367 70.1977026,76.6924236 C70.1977026,77.4052104 70.7816536,77.9830384 71.5019937,77.9830384 L74.2410052,77.9830384 C75.1335899,77.9647223 76.0230094,77.8717313 76.8997527,77.7050598 C77.3818182,77.646235 77.7909175,77.3272206 77.9614139,76.8771794 C78.1319102,76.4271383 78.0355571,75.9206299 77.7113661,75.56273 C77.3871752,75.2048301 76.8888558,75.0548328 76.4181682,75.1734692 L76.4583003,75.1734692 Z M88.156789,66.6951228 C87.5001162,66.4095737 86.7336582,66.7022976 86.4411444,67.350358 C85.727391,68.953179 84.7050673,70.4031445 83.4312416,71.6193147 C82.92635,72.1257421 82.92635,72.9396036 83.4312416,73.446031 C83.681303,73.6937083 84.0205343,73.8329774 84.3743445,73.8332154 C84.7066888,73.8428309 85.0300257,73.7255172 85.2773153,73.5055978 C86.798032,72.0629964 88.0182998,70.3394813 88.8691326,68.4324889 C89.0177625,68.1097594 89.0256271,67.7407295 88.8908791,67.4120867 C88.7561312,67.083444 88.4906464,66.8241529 88.156789,66.6951228 L88.156789,66.6951228 Z M87.7855676,53.4415017 C87.4060038,52.8328914 86.5997021,52.6439861 85.9846425,53.0195699 C85.3695828,53.3951538 85.1786758,54.1930008 85.5582396,54.8016111 C86.4945344,56.2864387 87.1253015,57.939601 87.4143463,59.6662361 C87.5212,60.2870318 88.0621869,60.7428854 88.6985715,60.748367 L88.9192977,60.748367 C89.6235729,60.6269999 90.0978791,59.9672775 89.9827967,59.2691239 C89.6456562,57.2022846 88.8989331,55.2217809 87.7855676,53.4415017 L87.7855676,53.4415017 Z" id="Shape" fill="#AAAAAA" fill-rule="nonzero"></path>
            <rect id="Rectangle" x="0" y="0" width="96" height="96"></rect>
            <path d="M45,40 C38.372583,40 33,45.372583 33,52 C33,58.627417 38.372583,64 45,64 C51.627417,64 57,58.627417 57,52 C57,45.372583 51.627417,40 45,40 L45,40 Z M35.6,52 C35.6055187,46.812429 39.8124261,42.609999 45,42.609999 C47.0466535,42.609058 49.0363363,43.2840034 50.66,44.53 L37.54,57.65 C36.2922482,56.0298279 35.6107071,54.0449273 35.6,52 L35.6,52 Z M45,61.4 C42.9505368,61.3994137 40.9581602,60.7247465 39.33,59.48 L52.47,46.32 C53.7188327,47.9498109 54.393853,49.946746 54.3900164,52 C54.3735052,57.1774846 50.1774992,61.369022 45,61.38 L45,61.4 Z" id="Shape" fill="#AAAAAA" fill-rule="nonzero"></path>
        </g>
    </g>
</svg>