<?xml version="1.0" encoding="UTF-8"?>
<svg width="96px" height="96px" viewBox="0 0 96 96" version="1.1" xmlns="http://www.w3.org/2000/svg" xmlns:xlink="http://www.w3.org/1999/xlink">
    <!-- Generator: Sketch 60 (88103) - https://sketch.com -->
    <title>icon / Forecast/Night/Partly cloudy night</title>
    <desc>Created with Sketch.</desc>
    <g id="icon-/-Forecast/Night/Partly-cloudy-night" stroke="none" stroke-width="1" fill="none" fill-rule="evenodd">
        <g id="03-partly-cloudy-night">
            <rect id="Rectangle" x="0" y="0" width="96" height="96"></rect>
            <path d="M46.7444,9.4224 C57.5779124,-1.41090008 75.1423166,-1.41078534 85.9756875,9.42265627 C96.8090583,20.2560979 96.8090583,37.8205021 85.9756875,48.6539437 C75.1423166,59.4873853 57.5779124,59.4875001 46.7444,48.6542 C35.9109084,37.8206083 35.9109084,20.2559917 46.7444,9.4224" id="Path" fill="#FFFFFF"></path>
            <g id="Group" opacity="0.85" transform="translate(58.000000, 1.000000)" fill="#D6D6D6">
                <path d="M10.6526,0.4067 C-3.29701573,16.3639897 -2.56779626,40.382078 12.3242,55.4637 C26.2877147,53.4602869 36.5186868,41.2882514 36.0905929,27.1882464 C35.6624989,13.0882413 24.7119354,1.55930398 10.6526,0.4067 L10.6526,0.4067 Z" id="Path"></path>
            </g>
            <path d="M87.6138,62.304 C87.6097927,55.5562666 83.0731221,49.6528933 76.5538,47.9121 C78.260871,44.0628433 77.5196212,39.5674608 74.6671032,36.470041 C71.8145851,33.3726212 67.3953258,32.2644413 63.4188,33.6494 C60.2594831,22.4124925 49.3855867,15.1517094 37.7958867,16.540315 C26.2061866,17.9289206 17.3553293,27.5530007 16.94,39.2182 C7.20918632,41.0364311 0.465038936,49.9674221 1.37949607,59.8243216 C2.2939532,69.6812211 10.5659732,77.2191126 20.4652,77.2162008 C20.6466,77.2162008 20.8219,77.1941 21.0022,77.1892 L21.0022,77.2162008 L72.8685,77.2162008 L72.8685,77.2078 C81.0368991,77.1190818 87.6124186,70.4728807 87.6138,62.304 Z" id="Path" fill="#C9C9C9" fill-rule="nonzero"></path>
        </g>
    </g>
</svg>