<?xml version="1.0" encoding="UTF-8"?>
<svg width="96px" height="96px" viewBox="0 0 96 96" version="1.1" xmlns="http://www.w3.org/2000/svg" xmlns:xlink="http://www.w3.org/1999/xlink">
    <!-- Generator: Sketch 60 (88103) - https://sketch.com -->
    <title>icon / Forecast/Night/Rain night</title>
    <desc>Created with Sketch.</desc>
    <g id="icon-/-Forecast/Night/Rain-night" stroke="none" stroke-width="1" fill="none" fill-rule="evenodd">
        <g id="12-rain-night">
            <rect id="Rectangle" x="0" y="0" width="96" height="96"></rect>
            <g id="Group" opacity="0.6" transform="translate(21.000000, 57.000000)" fill="#5EB4E9" fill-rule="nonzero">
                <path d="M3.3916,5.3188 C2.70488136,5.32501074 2.04409559,5.05683157 1.55593625,4.5737979 C1.06777691,4.09076424 0.792638003,3.43284594 0.7916,2.7461 L0.7916,2.6919 C0.806420058,1.25955493 1.97696013,0.109006952 3.40934797,0.118861533 C4.8417358,0.128716114 5.99633468,1.29526065 5.99146117,2.72767404 C5.98655671,4.16008743 4.82402173,5.31872333 3.3916,5.3188 L3.3916,5.3188 Z" id="Path"></path>
            </g>
            <path d="M24.3916,87.6972 C22.9556597,87.6972 21.7916,86.5331403 21.7916,85.0972 L21.7916,70.07 C21.7751161,69.1303828 22.2669603,68.255 23.0780565,67.7803684 C23.8891527,67.3057368 24.8932473,67.3057368 25.7043435,67.7803684 C26.5154397,68.255 27.0072839,69.1303828 26.9908,70.07 L26.9908,85.0971 C26.9908553,86.532767 25.827267,87.6967583 24.3916,87.6972 Z" id="Path" fill="#5EB4E9" fill-rule="nonzero"></path>
            <g id="Group" opacity="0.6" transform="translate(32.000000, 42.000000)" fill="#5EB4E9" fill-rule="nonzero">
                <path d="M2.77,28.7241 C1.33405965,28.7241 0.17,27.5600403 0.17,26.1241 L0.17,3.3141 C0.153516122,2.37448281 0.645360305,1.49909995 1.45645652,1.0244684 C2.26755273,0.549836849 3.27164727,0.549836849 4.08274348,1.0244684 C4.89383969,1.49909995 5.38568388,2.37448281 5.3692,3.3141 L5.3692,26.1241 C5.36920007,27.559728 4.20562792,28.7236583 2.77,28.7241 Z" id="Path"></path>
            </g>
            <path d="M34.77,86.6162 C33.3340597,86.6162 32.17,85.4521403 32.17,84.0162 L32.17,78.5024 C32.1535161,77.5627828 32.6453603,76.6874 33.4564565,76.2127684 C34.2675527,75.7381368 35.2716473,75.7381368 36.0827435,76.2127684 C36.8938397,76.6874 37.3856839,77.5627828 37.3692,78.5024 L37.3692,84.0161 C37.3692553,85.451767 36.205667,86.6157583 34.77,86.6162 L34.77,86.6162 Z" id="Path" fill="#5EB4E9" fill-rule="nonzero"></path>
            <path d="M45.1484,66.4 C44.4588371,66.4 43.797517,66.1260722 43.3099224,65.6384776 C42.8223278,65.150883 42.5484,64.4895629 42.5484,63.8 L42.5484,45.3135 C42.5319161,44.3738828 43.0237603,43.4985 43.8348565,43.0238684 C44.6459527,42.5492368 45.6500473,42.5492368 46.4611435,43.0238684 C47.2722397,43.4985 47.7640839,44.3738828 47.7476,45.3135 L47.7476,63.8 C47.7476001,65.235628 46.5840279,66.3995583 45.1484,66.4 Z" id="Path" fill="#5EB4E9" fill-rule="nonzero"></path>
            <g id="Group" opacity="0.6" transform="translate(42.000000, 71.000000)" fill="#5EB4E9" fill-rule="nonzero">
                <path d="M3.1484,24.2646 C1.71245965,24.2646 0.5484,23.1005403 0.5484,21.6646 L0.5484,3.1782 C0.531916122,2.23858281 1.02376031,1.36319995 1.83485652,0.888568402 C2.64595273,0.413936849 3.65004727,0.413936849 4.46114348,0.888568402 C5.27223969,1.36319995 5.76408388,2.23858281 5.7476,3.1782 L5.7476,21.6645 C5.74765529,23.100167 4.58406697,24.2641583 3.1484,24.2646 Z" id="Path"></path>
            </g>
            <path d="M55.5264,75.8052 C54.0904597,75.8052 52.9264,74.6411403 52.9264,73.2052 L52.9264,45.3135 C52.9109922,44.3745673 53.4030853,43.5002885 54.2137541,43.0263179 C55.0244229,42.5523473 56.0276771,42.5523473 56.8383459,43.0263179 C57.6490147,43.5002885 58.1411078,44.3745673 58.1257,45.3135 L58.1257,73.2051 C58.1257553,74.6408061 56.962106,75.8048135 55.5264,75.8052 L55.5264,75.8052 Z" id="Path" fill="#5EB4E9" fill-rule="nonzero"></path>
            <g id="Group" opacity="0.6" transform="translate(52.000000, 80.000000)" fill="#5EB4E9" fill-rule="nonzero">
                <path d="M3.5264,12.0215 C2.09045965,12.0215 0.9264,10.8574403 0.9264,9.4215 L0.9264,3.5835 C0.910992199,2.64456731 1.40308526,1.77028845 2.21375407,1.29631789 C3.02442287,0.822347339 4.02767713,0.822347339 4.83834593,1.29631789 C5.64901474,1.77028845 6.1411078,2.64456731 6.1257,3.5835 L6.1257,9.4214 C6.12575527,10.8571061 4.96210603,12.0211135 3.5264,12.0215 Z" id="Path"></path>
            </g>
            <path d="M65.9053,88.8862 C64.4693597,88.8862 63.3053,87.7221403 63.3053,86.2862 L63.3053,45.3135 C63.2888161,44.3738828 63.7806603,43.4985 64.5917565,43.0238684 C65.4028527,42.5492368 66.4069473,42.5492368 67.2180435,43.0238684 C68.0291397,43.4985 68.5209839,44.3738828 68.5045,45.3135 L68.5045,86.2861 C68.5045553,87.721767 67.340967,88.8862 65.9053,88.8862 Z" id="Path" fill="#5EB4E9" fill-rule="nonzero"></path>
            <path d="M14.0127,81.5351 C12.5767597,81.5351 11.4127,80.3710403 11.4127,78.9351 L11.4127,45.3135 C11.3962161,44.3738828 11.8880603,43.4985 12.6991565,43.0238684 C13.5102527,42.5492368 14.5143473,42.5492368 15.3254435,43.0238684 C16.1365397,43.4985 16.6283839,44.3738828 16.6119,45.3135 L16.6119,78.935 C16.6119553,80.370667 15.448367,81.5346583 14.0127,81.5351 Z" id="Path" fill="#5EB4E9" fill-rule="nonzero"></path>
            <path d="M71.6675,29.6558 C73.1024232,25.7996549 72.5554828,21.4850179 70.2037672,18.1088821 C67.8520516,14.7327462 63.9944588,12.724211 59.88,12.7336 C59.6014,12.7336 59.3289,12.7575 59.055,12.7753 C57.3098869,7.08693042 52.6443792,2.77394411 46.8366953,1.480199 C41.0290115,0.186453881 34.9739419,2.1112774 30.9793247,6.5210395 C26.9847075,10.9308016 25.6659938,17.1460898 27.5258,22.798 L27.5258,48.4594011 L67.6211,48.4594011 C72.2577473,48.461545 76.2662761,45.2253915 77.2417197,40.6925103 C78.2171632,36.159629 75.8946081,31.5610717 71.6675,29.6558 Z" id="Path" fill="#A6A6A6" fill-rule="nonzero"></path>
            <g id="Group" opacity="0.15" transform="translate(26.000000, 14.000000)" fill="#787878" fill-rule="nonzero">
                <path d="M0.7389,2.8712 C0.7266,3.1319 0.6989,3.3887 0.6989,3.6524 C0.700344949,5.40040886 0.979352373,7.13710012 1.5255,8.7976 L1.5255,34.4594 L37.8434,34.4594 C39.5176,30.1073 39.2946,24.7694 35.53,18.2747 C25.1789,0.4134 10.0091,-1.2966 0.7389,2.8712 Z" id="Path"></path>
            </g>
            <path d="M60.4236,44.0725 C60.4207644,39.4685235 57.325341,35.4407076 52.8772,34.253 C54.0416009,31.6266871 53.5357334,28.5597316 51.5895822,26.4464771 C49.6434311,24.3332226 46.628429,23.5769945 43.9153,24.5216 C41.7594442,16.8548928 34.3402295,11.9011694 26.432746,12.848702 C18.5252624,13.7962346 12.4864685,20.362595 12.203,28.3216 C5.56361484,29.5621048 0.962009041,35.6557309 1.58593605,42.3811307 C2.20986306,49.1065305 7.85392111,54.2496486 14.6082,54.2476006 C14.732,54.2476006 14.8516,54.2326 14.9746,54.2292 L14.9746,54.2476006 L50.3628,54.2476006 L50.3628,54.2419 C55.936336,54.1814003 60.4229419,49.6463643 60.4236,44.0725 Z" id="Path" fill="#6D6D6D" fill-rule="nonzero"></path>
        </g>
    </g>
</svg>