<?xml version="1.0" encoding="UTF-8"?>
<svg width="96px" height="96px" viewBox="0 0 96 96" version="1.1" xmlns="http://www.w3.org/2000/svg" xmlns:xlink="http://www.w3.org/1999/xlink">
    <!-- Generator: Sketch 60 (88103) - https://sketch.com -->
    <title>icon / Forecast/Day/Rain</title>
    <desc>Created with Sketch.</desc>
    <g id="icon-/-Forecast/Day/Rain" stroke="none" stroke-width="1" fill="none" fill-rule="evenodd">
        <g id="12-rain">
            <rect id="Rectangle" x="0" y="0" width="96" height="96"></rect>
            <g id="Group" opacity="0.6" transform="translate(21.000000, 57.000000)" fill="#5EB4E9" fill-rule="nonzero">
                <path d="M3.39,5.32 C2.70401253,5.32532297 2.04414961,5.05722645 1.55626205,4.57496836 C1.06837448,4.09271027 0.792638295,3.43600304 0.79,2.75 L0.79,2.69 C0.806523242,1.25808127 1.97779754,0.109092634 3.40976948,0.120076489 C4.84174141,0.131060344 5.99525243,1.29788111 5.98982732,2.72988482 C5.98436382,4.16188853 4.82201406,5.31990467 3.39,5.32 L3.39,5.32 Z" id="Path"></path>
            </g>
            <path d="M24.39,87.7 C22.9563367,87.6945175 21.7954825,86.5336633 21.79,85.1 L21.79,70.1 C21.79,68.6640597 22.9540597,67.5000001 24.39,67.5000001 C25.8259403,67.5000001 26.99,68.6640597 26.99,70.1 L26.99,85.1 C26.99,86.5359403 25.8259403,87.7 24.39,87.7 L24.39,87.7 Z" id="Path" fill="#5EB4E9" fill-rule="nonzero"></path>
            <g id="Group" opacity="0.6" transform="translate(32.000000, 42.000000)" fill="#5EB4E9" fill-rule="nonzero">
                <path d="M2.77,28.7200194 C2.07962184,28.7226707 1.41674879,28.4496007 0.928574057,27.9614259 C0.440399328,27.4732512 0.167329261,26.8103782 0.169980592,26.12 L0.169980592,3.31 C0.169980592,1.87405965 1.33405965,0.71 2.77,0.71 C4.20594035,0.71 5.37001941,1.87405965 5.37001941,3.31 L5.37001941,26.12 C5.37267074,26.8103782 5.09960067,27.4732512 4.61142594,27.9614259 C4.12325121,28.4496007 3.46037816,28.7226707 2.77,28.7200194 Z" id="Path"></path>
            </g>
            <path d="M34.77,86.62 C33.3340597,86.62 32.17,85.4559403 32.17,84.02 L32.17,78.5 C32.17,77.0640597 33.3340597,75.9 34.77,75.9 C36.2059403,75.9 37.37,77.0640597 37.37,78.5 L37.37,84 C37.3753311,84.6930216 37.1037586,85.3594914 36.615585,85.8514202 C36.1274114,86.343349 35.4630421,86.62 34.77,86.62 Z" id="Path" fill="#5EB4E9" fill-rule="nonzero"></path>
            <path d="M45.15,66.4000194 C44.4596218,66.4026707 43.7967488,66.1296007 43.3085741,65.6414259 C42.8203993,65.1532512 42.5473293,64.4903782 42.5499806,63.8 L42.5499806,45.31 C42.5499806,43.8740597 43.7140597,42.71 45.15,42.71 C46.5859403,42.71 47.75,43.8740597 47.75,45.31 L47.75,63.8 C47.75,64.4895629 47.4760722,65.150883 46.9884776,65.6384776 C46.500883,66.1260722 45.8395629,66.4000194 45.15,66.4000194 Z" id="Path" fill="#5EB4E9" fill-rule="nonzero"></path>
            <g id="Group" opacity="0.6" transform="translate(42.000000, 71.000000)" fill="#5EB4E9" fill-rule="nonzero">
                <path d="M3.15,24.2600194 C2.45962184,24.2626707 1.79674879,23.9896007 1.30857406,23.5014259 C0.820399328,23.0132512 0.547329261,22.3503782 0.549980592,21.66 L0.549980592,3.18 C0.549980592,1.74405965 1.71405965,0.58 3.15,0.58 C4.58594035,0.58 5.75,1.74405965 5.75,3.18 L5.75,21.66 C5.75,23.0959403 4.58594035,24.2600194 3.15,24.2600194 L3.15,24.2600194 Z" id="Path"></path>
            </g>
            <path d="M55.53,75.81 C54.0940597,75.81 52.93,74.6459403 52.93,73.21 L52.93,45.31 C52.93,43.8740597 54.0940597,42.71 55.53,42.71 C56.9659403,42.71 58.13,43.8740597 58.13,45.31 L58.13,73.21 C58.1245175,74.6436633 56.9636633,75.8045175 55.53,75.81 L55.53,75.81 Z" id="Path" fill="#5EB4E9" fill-rule="nonzero"></path>
            <g id="Group" opacity="0.6" transform="translate(52.000000, 80.000000)" fill="#5EB4E9" fill-rule="nonzero">
                <path d="M3.53,12.0000194 C2.83962184,12.0026707 2.17674879,11.7296007 1.68857406,11.2414259 C1.20039933,10.7532512 0.927329261,10.0903782 0.929980592,9.4 L0.929980592,3.58 C0.929980592,2.14405965 2.09405965,0.98 3.53,0.98 C4.96594035,0.98 6.13,2.14405965 6.13,3.58 L6.13,9.42 C6.11901411,10.8481237 4.95816599,12.0000194 3.53,12.0000194 L3.53,12.0000194 Z" id="Path"></path>
            </g>
            <path d="M65.91,88.89 C65.2204371,88.89 64.559117,88.6160722 64.0715224,88.1284776 C63.5839278,87.640883 63.31,86.9795629 63.31,86.29 L63.31,45.29 C63.2500327,44.3244507 63.7311042,43.4054466 64.5587262,42.9045242 C65.3863483,42.4036018 66.4236517,42.4036018 67.2512738,42.9045242 C68.0788958,43.4054466 68.5599673,44.3244507 68.5,45.29 L68.5,86.29 C68.5000106,87.7220442 67.3420336,88.8844921 65.91,88.89 L65.91,88.89 Z" id="Path" fill="#5EB4E9" fill-rule="nonzero"></path>
            <path d="M14,81.54 C12.5663367,81.5345175 11.4054825,80.3736633 11.4,78.94 L11.4,45.31 C11.4,43.8740597 12.5640597,42.71 14,42.71 C15.4359403,42.71 16.6,43.8740597 16.6,45.31 L16.6,78.94 C16.6,79.6295629 16.3260722,80.290883 15.8384776,80.7784776 C15.350883,81.2660722 14.6895629,81.54 14,81.54 L14,81.54 Z" id="Path" fill="#5EB4E9" fill-rule="nonzero"></path>
            <path d="M71.67,29.66 C73.1066092,25.8025509 72.5602606,21.4858348 70.2079044,18.107939 C67.8555482,14.7300433 63.9962687,12.720442 59.88,12.73 C59.6,12.73 59.33,12.73 59.06,12.73 C57.3253823,7.03362953 52.6627017,2.7093438 46.8520158,1.40801225 C41.0413298,0.10668071 34.9796483,2.0291931 30.9811209,6.44159768 C26.9825936,10.8540023 25.6644829,17.0751454 27.53,22.73 L27.53,48.46 L67.62,48.46 C72.2400974,48.4285741 76.2161324,45.187056 77.1776322,40.6680068 C78.139132,36.1489577 75.8271221,31.5695577 71.62,29.66 L71.67,29.66 Z" id="Path" fill="#C8C8C8" fill-rule="nonzero"></path>
            <g id="Group" opacity="0.15" transform="translate(26.000000, 14.000000)" fill="#9D9D9D" fill-rule="nonzero">
                <path d="M0.74,2.87 C0.74,3.13 0.74,3.39 0.74,3.65 C0.742516069,5.39976267 1.02266609,7.13804292 1.57,8.8 L1.57,34.46 L37.84,34.46 C39.52,30.11 39.29,24.77 35.53,18.27 C25.18,0.41 10,-1.3 0.74,2.87 Z" id="Path"></path>
            </g>
            <path d="M60.4200056,44.07 C60.4181662,39.467664 57.325781,35.440181 52.88,34.25 C53.8463048,32.0047349 53.6178774,29.423928 52.2722275,27.3832942 C50.9265775,25.3426604 48.6443702,24.1161724 46.2,24.12 C45.4233018,24.1284278 44.6531831,24.2635363 43.92,24.52 C41.7560133,16.8598635 34.3390499,11.9139577 26.4356286,12.8607736 C18.5322073,13.8075895 12.4933779,20.3654756 12.2,28.32 C5.57586591,29.5787904 0.994043898,35.6667677 1.61803617,42.3805103 C2.24202844,49.0942529 7.86734212,54.2335531 14.61,54.25 L14.97,54.25 L14.97,54.25 L50.36,54.25 C55.93763,54.1896711 60.425811,49.6479532 60.4200056,44.07 L60.4200056,44.07 Z" id="Path" fill="#AAAAAA" fill-rule="nonzero"></path>
        </g>
    </g>
</svg>