<?xml version="1.0" encoding="UTF-8"?>
<svg width="96px" height="96px" viewBox="0 0 96 96" version="1.1" xmlns="http://www.w3.org/2000/svg" xmlns:xlink="http://www.w3.org/1999/xlink">
    <!-- Generator: Sketch 60 (88103) - https://sketch.com -->
    <title>icon / Forecast/Night/Showers night</title>
    <desc>Created with Sketch.</desc>
    <g id="icon-/-Forecast/Night/Showers-night" stroke="none" stroke-width="1" fill="none" fill-rule="evenodd">
        <g id="11-showers-night">
            <rect id="Rectangle" x="0" y="0" width="96" height="96"></rect>
            <g id="Group" opacity="0.6" transform="translate(25.000000, 73.000000)" fill="#5EB4E9" fill-rule="nonzero">
                <path d="M2.8455,16.1694 C1.40955965,16.1694 0.2455,15.0053403 0.2455,13.5694 L0.2455,2.8379 C0.229016122,1.89828281 0.720860305,1.02289995 1.53195652,0.548268402 C2.34305273,0.0736368489 3.34714727,0.0736368489 4.15824348,0.548268402 C4.96933969,1.02289995 5.46118388,1.89828281 5.4447,2.8379 L5.4447,13.5693 C5.44475529,15.004967 4.28116697,16.1689583 2.8455,16.1694 L2.8455,16.1694 Z" id="Path"></path>
            </g>
            <g id="Group" opacity="0.6" transform="translate(25.000000, 54.000000)" fill="#5EB4E9" fill-rule="nonzero">
                <path d="M2.8455,14.2466 C1.40955965,14.2466 0.2455,13.0825403 0.2455,11.6466 L0.2455,3.3242 C0.229016122,2.38458281 0.720860305,1.50919995 1.53195652,1.0345684 C2.34305273,0.559936849 3.34714727,0.559936849 4.15824348,1.0345684 C4.96933969,1.50919995 5.46118388,2.38458281 5.4447,3.3242 L5.4447,11.6465 C5.44475529,13.082167 4.28116697,14.2461583 2.8455,14.2466 L2.8455,14.2466 Z" id="Path"></path>
            </g>
            <path d="M38.2234,85.0054 C36.7874597,85.0054 35.6234,83.8413403 35.6234,82.4054 L35.6234,59.7026 C35.6069161,58.7629828 36.0987603,57.8876 36.9098565,57.4129684 C37.7209527,56.9383368 38.7250473,56.9383368 39.5361435,57.4129684 C40.3472397,57.8876 40.8390839,58.7629828 40.8226,59.7026 L40.8226,82.4053 C40.8226553,83.840967 39.659067,85.0049583 38.2234,85.0054 Z" id="Path" fill="#5EB4E9" fill-rule="nonzero"></path>
            <path d="M48.6023,81.9243 C47.1663597,81.9243 46.0023,80.7602403 46.0023,79.3243 L46.0023,78.838 C45.9858161,77.8983828 46.4776603,77.023 47.2887565,76.5483684 C48.0998527,76.0737368 49.1039473,76.0737368 49.9150435,76.5483684 C50.7261397,77.023 51.2179839,77.8983828 51.2015,78.838 L51.2015,79.3243 C51.2015001,80.759928 50.0379279,81.9238583 48.6023,81.9243 Z" id="Path" fill="#5EB4E9" fill-rule="nonzero"></path>
            <path d="M48.6023,71.06 C47.1663597,71.06 46.0023,69.8959403 46.0023,68.46 L46.0023,61.4326 C45.9858161,60.4929828 46.4776603,59.6176 47.2887565,59.1429684 C48.0998527,58.6683368 49.1039473,58.6683368 49.9150435,59.1429684 C50.7261397,59.6176 51.2179839,60.4929828 51.2015,61.4326 L51.2015,68.46 C51.2015001,69.895628 50.0379279,71.0595583 48.6023,71.06 L48.6023,71.06 Z" id="Path" fill="#5EB4E9" fill-rule="nonzero"></path>
            <g id="Group" opacity="0.6" transform="translate(14.000000, 52.000000)" fill="#5EB4E9" fill-rule="nonzero">
                <path d="M3.4666,27.1675 C2.03065965,27.1675 0.8666,26.0034403 0.8666,24.5675 L0.8666,3.4863 C0.850116122,2.54668281 1.34196031,1.67129995 2.15305652,1.1966684 C2.96415273,0.722036849 3.96824727,0.722036849 4.77934348,1.1966684 C5.59043969,1.67129995 6.08228388,2.54668281 6.0658,3.4863 L6.0658,24.5674 C6.06585529,26.003067 4.90226697,27.1670583 3.4666,27.1675 L3.4666,27.1675 Z" id="Path"></path>
            </g>
            <path d="M17.4666,89.5478 C17.2954597,89.5461762 17.1247971,89.5294446 16.9566,89.4978 C16.7933751,89.4587737 16.6330027,89.4086573 16.4766,89.3478 C16.3204309,89.2799469 16.1699494,89.1996901 16.0266,89.1078 C15.8806323,89.0179633 15.7462873,88.9104873 15.6266,88.7878 C15.5061835,88.6662295 15.3991084,88.5321342 15.3072,88.3878 C15.2075545,88.249134 15.1268434,88.0978005 15.0672,87.9378 C14.997852,87.7845007 14.9474794,87.6233082 14.9172,87.4578 C14.880819,87.2903131 14.8640396,87.1191635 14.8672,86.9478 C14.8687667,86.2583999 15.1418057,85.5973582 15.6272,85.1078 C15.7468873,84.9851127 15.8812323,84.8776367 16.0272,84.7878 C16.166103,84.688536 16.3173843,84.6078527 16.4772,84.5478 C16.6304114,84.4782215 16.7916327,84.4278398 16.9572,84.3978 C17.2935734,84.327571 17.6408266,84.327571 17.9772,84.3978 C18.1427388,84.4279554 18.3039462,84.4783327 18.4572,84.5478 C18.6170351,84.6078098 18.7683218,84.688496 18.9072,84.7878 C19.0512455,84.8803403 19.185297,84.9875816 19.3072,85.1078 C19.7925943,85.5973582 20.0656333,86.2583999 20.0672,86.9478 C20.0650397,87.1189111 20.0483126,87.2895274 20.0172,87.4578 C19.9869206,87.6233082 19.936548,87.7845007 19.8672,87.9378 C19.7989504,88.0937773 19.7187099,88.2442282 19.6272,88.3878 C19.4437201,88.6783493 19.1977493,88.9243201 18.9072,89.1078 C18.7638743,89.1997306 18.6133895,89.2799892 18.4572,89.3478 C18.3007575,89.4085438 18.140393,89.4586577 17.9772,89.4978 C17.8087991,89.5294323 17.6379383,89.5461637 17.4666,89.5478 L17.4666,89.5478 Z" id="Path" fill="#5EB4E9" fill-rule="nonzero"></path>
            <g id="Group" opacity="0.6" transform="translate(46.000000, 87.000000)" fill="#5EB4E9" fill-rule="nonzero">
                <path d="M2.6023,5.4648 C1.16635965,5.4648 0.0023,4.30074035 0.0023,2.8648 L0.0023,2.7027 C-0.0141838778,1.76308281 0.477660305,0.887699955 1.28875652,0.413068402 C2.09985273,-0.0615631511 3.10394727,-0.0615631511 3.91504348,0.413068402 C4.72613969,0.887699955 5.21798388,1.76308281 5.2015,2.7027 L5.2015,2.8648 C5.20150007,4.30042799 4.03792792,5.46435827 2.6023,5.4648 Z" id="Path"></path>
            </g>
            <path d="M47.3654,7.3768 C55.4714054,-0.72902049 68.6136715,-0.728920569 76.7195536,7.37702318 C84.8254358,15.4829669 84.8254358,28.6252331 76.7195536,36.7311768 C68.6136715,44.8371206 55.4714054,44.8372205 47.3654,36.7314 C39.259386,28.6253366 39.259386,15.4828634 47.3654,7.3768" id="Path" fill="#FFFFFF"></path>
            <g id="Group" opacity="0.85" transform="translate(56.000000, 1.000000)" fill="#D6D6D6">
                <path d="M7.7579,0.3792 C-2.67971428,12.3189959 -2.13410833,30.2901835 9.0086,41.5748 C19.4564922,40.0756646 27.1115418,30.968169 26.7912423,20.4181326 C26.4709427,9.86809634 18.2774934,1.2417617 7.7579,0.3792 Z" id="Path"></path>
            </g>
            <path d="M74.9144,47.5829 C74.9109484,41.8279249 71.0416863,36.7931138 65.4815,35.3085 C66.9373151,32.0256111 66.3051167,28.1917196 63.8723571,25.5500463 C61.4395976,22.9083729 57.6706476,21.9631665 54.2792,23.1442 C51.5840941,13.5613468 42.3104563,7.36965302 32.4265189,8.5539053 C22.5425815,9.73815759 14.9941643,17.9454 14.6392,27.8937 C6.33973881,29.4440897 0.587453498,37.0612285 1.36737903,45.468159 C2.14730455,53.8750895 9.20266997,60.3040403 17.6457,60.3012009 C17.8004,60.3012009 17.9499,60.2823 18.1037,60.2781 L18.1037,60.3012009 L62.3385,60.3012009 L62.3385,60.294 C69.3051505,60.2183778 74.9132761,54.5499608 74.9144,47.5829 L74.9144,47.5829 Z" id="Path" fill="#A6A6A6" fill-rule="nonzero"></path>
        </g>
    </g>
</svg>