<?xml version="1.0" encoding="UTF-8"?>
<svg width="96px" height="96px" viewBox="0 0 96 96" version="1.1" xmlns="http://www.w3.org/2000/svg" xmlns:xlink="http://www.w3.org/1999/xlink">
    <!-- Generator: Sketch 60 (88103) - https://sketch.com -->
    <title>icon / Forecast/Day/Showers</title>
    <desc>Created with Sketch.</desc>
    <g id="icon-/-Forecast/Day/Showers" stroke="none" stroke-width="1" fill="none" fill-rule="evenodd">
        <g id="11-showers">
            <rect id="Rectangle" x="0" y="0" width="96" height="96"></rect>
            <g id="Group" opacity="0.6" transform="translate(25.000000, 73.000000)" fill="#5EB4E9" fill-rule="nonzero">
                <path d="M2.85,16.1700194 C2.15962184,16.1726707 1.49674879,15.8996007 1.00857406,15.4114259 C0.520399328,14.9232512 0.247329261,14.2603782 0.249980592,13.57 L0.249980592,2.84 C0.249980592,1.91110944 0.745557153,1.05277915 1.54999997,0.588333859 C2.35444278,0.123888568 3.34555722,0.123888568 4.15000003,0.588333859 C4.95444285,1.05277915 5.45,1.91110944 5.45,2.84 L5.45,13.57 C5.45,15.0059403 4.28594035,16.1700194 2.85,16.1700194 L2.85,16.1700194 Z" id="Path"></path>
            </g>
            <g id="Group" opacity="0.6" transform="translate(25.000000, 54.000000)" fill="#5EB4E9" fill-rule="nonzero">
                <path d="M2.85,14.25 C2.16043713,14.25 1.49911695,13.9760722 1.01152237,13.4884776 C0.523927785,13.000883 0.25,12.3395629 0.25,11.65 L0.25,3.32 C0.25,2.39110944 0.745557153,1.53277915 1.54999997,1.06833386 C2.35444278,0.603888568 3.34555722,0.603888568 4.15000003,1.06833386 C4.95444285,1.53277915 5.45,2.39110944 5.45,3.32 L5.45,11.65 C5.44451748,13.0836633 4.28366327,14.2445175 2.85,14.25 Z" id="Path"></path>
            </g>
            <path d="M38.22,85 C36.7863367,84.9945175 35.6254825,83.8336633 35.62,82.4 L35.62,59.7 C35.62,58.2640597 36.7840597,57.1 38.22,57.1 C39.6559403,57.1 40.82,58.2640597 40.82,59.7 L40.82,82.41 C40.8144921,83.8420336 39.6520442,85 38.22,85 L38.22,85 Z" id="Path" fill="#5EB4E9" fill-rule="nonzero"></path>
            <path d="M48.6,81.9200194 C47.1640597,81.9200194 46,80.7559403 46,79.32 L46,78.84 C46,77.4040597 47.1640597,76.24 48.6,76.24 C50.0359403,76.24 51.2000194,77.4040597 51.2000194,78.84 L51.2000194,79.32 C51.2026707,80.0103782 50.9296007,80.6732512 50.4414259,81.1614259 C49.9532512,81.6496007 49.2903782,81.9226707 48.6,81.9200194 L48.6,81.9200194 Z" id="Path" fill="#5EB4E9" fill-rule="nonzero"></path>
            <path d="M48.6,71.0600194 C47.1640597,71.0600194 46,69.8959403 46,68.46 L46,61.46 C46,60.0240597 47.1640597,58.86 48.6,58.86 C50.0359403,58.86 51.2000194,60.0240597 51.2000194,61.46 L51.2000194,68.46 C51.2026707,69.1503782 50.9296007,69.8132512 50.4414259,70.3014259 C49.9532512,70.7896007 49.2903782,71.0626707 48.6,71.0600194 Z" id="Path" fill="#5EB4E9" fill-rule="nonzero"></path>
            <g id="Group" opacity="0.6" transform="translate(14.000000, 52.000000)" fill="#5EB4E9" fill-rule="nonzero">
                <path d="M3.47,27.17 C2.03405965,27.17 0.87,26.0059403 0.87,24.57 L0.87,3.49 C0.87,2.05405965 2.03405965,0.89 3.47,0.89 C4.90594035,0.89 6.07,2.05405965 6.07,3.49 L6.07,24.57 C6.06451748,26.0036633 4.90366327,27.1645175 3.47,27.17 Z" id="Path"></path>
            </g>
            <path d="M17.47,89.54 C17.2986363,89.5431658 17.127486,89.5263864 16.96,89.49 C16.7944745,89.4597907 16.6332736,89.4094154 16.48,89.34 C16.3099447,89.281927 16.1484916,89.2012005 16,89.1 C15.8539912,89.0102217 15.7196393,88.9027402 15.6,88.78 C15.4797618,88.6617551 15.3724875,88.5310147 15.28,88.39 C15.1846253,88.2487202 15.1041932,88.09791 15.04,87.94 C14.9704629,87.7832984 14.9200985,87.6187747 14.89,87.45 C14.7864171,86.946374 14.8387403,86.4231417 15.04,85.95 C15.1004688,85.7903728 15.1811244,85.6391436 15.28,85.5 C15.3723365,85.3558083 15.4795941,85.2217363 15.6,85.1 C16.6386308,84.1394639 18.2413692,84.1394639 19.28,85.1 C19.4004059,85.2217363 19.5076635,85.3558083 19.6,85.5 C19.6918081,85.6433974 19.7720614,85.7938722 19.84,85.95 C19.9081007,86.1037715 19.9584264,86.2648138 19.99,86.43 C20.0539546,86.7602657 20.0539546,87.0997343 19.99,87.43 C19.9599015,87.5987747 19.9095371,87.7632984 19.84,87.92 C19.7718005,88.0760016 19.691558,88.2264563 19.6,88.37 C19.5075125,88.5110147 19.4002382,88.6417551 19.28,88.76 C19.1582637,88.8804059 19.0241917,88.9876635 18.88,89.08 C18.7408564,89.1788756 18.5896272,89.2595312 18.43,89.32 C18.2767264,89.3894154 18.1155255,89.4397907 17.95,89.47 C17.7930532,89.5108752 17.6320838,89.5343499 17.47,89.54 Z" id="Path" fill="#5EB4E9" fill-rule="nonzero"></path>
            <g id="Group" opacity="0.6" transform="translate(46.000000, 87.000000)" fill="#5EB4E9" fill-rule="nonzero">
                <path d="M2.6,5.46001941 C1.16405965,5.46001941 -7.10542736e-15,4.29594035 -7.10542736e-15,2.86 L-7.10542736e-15,2.7 C-7.10542736e-15,1.26405965 1.16405965,0.1 2.6,0.1 C4.03594035,0.1 5.20001941,1.26405965 5.20001941,2.7 L5.20001941,2.86 C5.20267074,3.55037816 4.92960067,4.21325121 4.44142594,4.70142594 C3.95325121,5.18960067 3.29037816,5.46267074 2.6,5.46001941 L2.6,5.46001941 Z" id="Path"></path>
            </g>
            <circle id="Oval" fill="#FFE58D" fill-rule="nonzero" cx="62.04" cy="21.25" r="20.76"></circle>
            <path d="M41.2899512,21.25 C41.2680829,31.4211573 48.6252674,40.1073186 58.6613953,41.759305 C68.6975232,43.4112914 78.4506657,37.5415577 81.69,27.9 C72.8,26.56 63.38,23.08 55.55,15.44 C53,12.92 50.06,9.9 47.07,6.9 C43.3566693,10.7536611 41.2844283,15.8984117 41.2899512,21.25 L41.2899512,21.25 Z" id="Path" fill="#FFDF64" fill-rule="nonzero"></path>
            <path d="M74.9100172,47.58 C74.9057074,41.8272172 71.0379247,36.7945879 65.48,35.31 C66.6884534,32.5025685 66.4033709,29.2755247 64.7214484,26.7234338 C63.0395258,24.1713429 60.1864719,22.6366876 57.13,22.64 C56.1592506,22.6518623 55.1968149,22.8207107 54.28,23.14 C51.5941936,13.5469951 42.3157941,7.34432464 32.4246614,8.5295638 C22.5335287,9.71480297 14.9832822,17.9340241 14.64,27.89 C6.32273747,29.4208799 0.547938213,37.0451348 1.32741777,45.4661122 C2.10689732,53.8870896 9.18305175,60.3218085 17.64,60.3000553 L18.09,60.3000553 L18.09,60.3000553 L62.34,60.3000553 C69.3109969,60.2286488 74.9213437,54.5513528 74.9100172,47.58 Z" id="Path" fill="#C8C8C8" fill-rule="nonzero"></path>
        </g>
    </g>
</svg>