<?xml version="1.0" encoding="UTF-8"?>
<svg width="96px" height="96px" viewBox="0 0 96 96" version="1.1" xmlns="http://www.w3.org/2000/svg" xmlns:xlink="http://www.w3.org/1999/xlink">
    <!-- Generator: Sketch 60 (88103) - https://sketch.com -->
    <title>icon / Forecast/Day/Wind</title>
    <desc>Created with Sketch.</desc>
    <g id="icon-/-Forecast/Day/Wind" stroke="none" stroke-width="1" fill="none" fill-rule="evenodd">
        <g id="09-wind">
            <rect id="Rectangle" x="0" y="0" width="96" height="96"></rect>
            <g id="Group" opacity="0.1" transform="translate(54.000000, 27.000000)" fill="#000000" fill-rule="nonzero">
                <path d="M20.09,18.41 L3.44,18.41 C2.00405969,18.41 0.84000011,17.2459403 0.84000011,15.81 C0.84000011,14.3740597 2.00405969,13.2100001 3.44,13.21 L20.09,13.21 C22.1455444,13.2474125 24.0144799,12.022784 24.8008112,10.1232195 C25.5871426,8.22365504 25.1305775,6.03637743 23.65,4.61 C22.6337961,3.59379606 22.6337961,1.94620396 23.65,0.930000027 C24.666204,-0.0862039016 26.3137961,-0.0862039138 27.33,0.93 C30.2579669,3.8585924 31.1337553,8.2624523 29.5490664,12.0884692 C27.9643775,15.914486 24.2312128,18.4093745 20.09,18.41 L20.09,18.41 Z" id="Path"></path>
            </g>
            <g id="Group" opacity="0.2" transform="translate(43.000000, 50.000000)" fill="#000000" fill-rule="nonzero">
                <path d="M21.77,18.4100182 C20.7304838,18.399448 19.7971721,17.7707025 19.3968741,16.8112929 C18.9965762,15.8518832 19.2062459,14.7462475 19.93,14 C21.3024314,12.6299681 21.7134042,10.5676095 20.9709747,8.77614251 C20.2285453,6.98467556 18.4792136,5.81760198 16.54,5.82 L3.27,5.82 C1.83405965,5.82 0.67,4.65594035 0.67,3.22 C0.67,1.78405965 1.83405965,0.62 3.27,0.62 L16.54,0.62 C20.5646494,0.640834293 24.1845945,3.07239811 25.7258891,6.79028026 C27.2671838,10.5081624 26.4294204,14.7877252 23.6,17.65 C23.1167519,18.1387158 22.4572882,18.4125914 21.77,18.4100182 Z" id="Path"></path>
            </g>
            <path d="M35.89,55.79 L3.46,55.79 C2.02405965,55.79 0.86,54.6259403 0.86,53.19 C0.86,51.7540597 2.02405965,50.59 3.46,50.59 L35.89,50.59 C37.3259403,50.59 38.49,51.7540597 38.49,53.19 C38.49,54.6259403 37.3259403,55.79 35.89,55.79 Z" id="Path" fill="#C7D8E6" fill-rule="nonzero"></path>
            <g id="Group" opacity="0.2" transform="translate(29.000000, 40.000000)" fill="#000000" fill-rule="nonzero">
                <path d="M18.07,5.41 L2.82,5.41 C1.38405969,5.41 0.22000011,4.24594031 0.22000011,2.81 C0.22000011,1.37405969 1.38405969,0.21 2.82,0.21 L18.07,0.21 C18.9988906,0.21 19.8572208,0.705557153 20.3216661,1.50999997 C20.7861114,2.31444278 20.7861114,3.30555722 20.3216661,4.11000003 C19.8572208,4.91444285 18.9988906,5.41 18.07,5.41 L18.07,5.41 Z" id="Path"></path>
            </g>
            <g id="Group" opacity="0.1" transform="translate(10.000000, 60.000000)" fill="#000000" fill-rule="nonzero">
                <path d="M41.88,11.52 C40.4440597,11.52 39.28,10.3559403 39.28,8.92 C39.28,7.40121694 38.0487831,6.17 36.53,6.17 L2.88,6.17 C1.44405965,6.17 0.28,5.00594035 0.28,3.57 C0.28,2.13405965 1.44405965,0.97 2.88,0.97 L36.53,0.97 C40.9287393,0.997492657 44.48,4.57117479 44.48,8.97 C44.4474924,10.3841003 43.2944649,11.5149542 41.88,11.52 L41.88,11.52 Z" id="Path"></path>
            </g>
            <g id="Group" opacity="0.2" transform="translate(36.000000, 19.000000)" fill="#000000" fill-rule="nonzero">
                <path d="M27.5700001,16 L2.67,16 C1.23405969,16 0.0700001096,14.8359403 0.0700001096,13.4 C0.0700001096,11.9640597 1.23405969,10.8000001 2.67,10.8 L27.5700001,10.8 C28.6838467,10.800376 29.6879178,10.1288243 30.112896,9.09923792 C30.5378742,8.06965155 30.2998187,6.88539228 29.51,6.09999939 C28.620298,5.23803259 27.2699421,5.06313709 26.19,5.67 C24.9473593,6.39349302 23.353493,5.97264069 22.63,4.73 C21.906507,3.48735931 22.3273593,1.89349302 23.5700001,1.17 C24.7863277,0.468481236 26.1658699,0.0994536772 27.5700001,0.0999993943 C31.6172586,0.554631136 34.6769714,3.97728691 34.6769714,8.05 C34.6769714,12.1227131 31.6172586,15.5453689 27.5700001,16 L27.5700001,16 Z" id="Path"></path>
            </g>
            <circle id="Oval" fill="#D0DFBB" fill-rule="nonzero" cx="76.13" cy="53.19" r="2.6"></circle>
            <circle id="Oval" fill="#D0DFBB" fill-rule="nonzero" cx="26.61" cy="32.43" r="2.6"></circle>
            <path d="M21.44,45.41 L11.07,45.41 C9.63405969,45.41 8.47000011,44.2459403 8.47000011,42.81 C8.47000011,41.3740597 9.63405969,40.21 11.07,40.21 L21.44,40.21 C22.3688906,40.21 23.2272208,40.7055572 23.6916661,41.51 C24.1561114,42.3144428 24.1561114,43.3055572 23.6916661,44.11 C23.2272208,44.9144428 22.3688906,45.41 21.44,45.41 Z" id="Path" fill="#C7D8E6" fill-rule="nonzero"></path>
            <rect id="Rectangle" x="0" y="0" width="96" height="96"></rect>
        </g>
    </g>
</svg>